<?xml version="1.0" encoding="UTF-8"?>
<svg version="1.1" xmlns="http://www.w3.org/2000/svg" width="300" height="300">
<path d="M0 0 C0.85702802 -0.00538554 1.71405604 -0.01077108 2.5970546 -0.01631981 C5.46199573 -0.03060009 8.32647487 -0.02349546 11.19143677 -0.01637268 C13.24828462 -0.02207624 15.3051293 -0.02904045 17.36196899 -0.03717041 C22.94466304 -0.05511935 28.52720006 -0.05393002 34.1099143 -0.04822803 C38.77194861 -0.0451384 43.43395266 -0.05122618 48.09598267 -0.05726677 C59.09559972 -0.07131637 70.09513912 -0.06974733 81.09475708 -0.05836487 C92.43851583 -0.0468856 103.7820381 -0.06095524 115.12576568 -0.08776134 C124.86862314 -0.10992159 134.61140639 -0.1165549 144.35428727 -0.11068493 C150.17168281 -0.10731466 155.98892679 -0.10973512 161.80630112 -0.12693596 C167.27781855 -0.14240783 172.74898589 -0.13844657 178.2204895 -0.11963081 C180.22637999 -0.11594551 182.23229642 -0.11905167 184.23816299 -0.1295166 C186.98111786 -0.14273227 189.72291476 -0.1311739 192.46582031 -0.11352539 C193.65037585 -0.1279329 193.65037585 -0.1279329 194.8588618 -0.14263147 C201.16338061 -0.05943805 206.63640617 1.69888654 211.19973755 6.2040863 C211.56196411 6.78029724 211.92419067 7.35650818 212.2973938 7.95018005 C212.86780396 8.81836365 212.86780396 8.81836365 213.44973755 9.7040863 C215.72157631 13.9065005 215.50813584 17.98304821 215.50706482 22.61801147 C215.51074151 23.46713138 215.5144182 24.31625128 215.5182063 25.19110209 C215.52925215 28.04691734 215.53308846 30.90269623 215.53689575 33.75852966 C215.54315955 35.8017183 215.54980627 37.8449058 215.55680847 39.88809204 C215.57422193 45.445853 215.58477045 51.00360535 215.593014 56.56138682 C215.59816176 60.03106445 215.60423748 63.50073939 215.61052513 66.97041512 C215.62957526 77.81892202 215.64380869 88.6674221 215.6521371 99.51594251 C215.66192015 112.05311442 215.6882683 124.59011026 215.72863799 137.12722009 C215.75874989 146.80964243 215.77360115 156.49201414 215.77691811 166.17448241 C215.77927356 171.96163556 215.78829861 177.74860058 215.81337929 183.53570366 C215.83657991 188.97677103 215.8409256 194.41752531 215.8306179 199.85862923 C215.83012053 201.85814579 215.83649985 203.85767735 215.85017395 205.85714722 C215.8677695 208.58193303 215.86084809 211.30558003 215.84764099 214.03036499 C215.85861024 214.82598451 215.86957948 215.62160403 215.88088113 216.44133323 C215.83989127 219.93160695 215.67582349 221.96803787 213.54661846 224.7962122 C210.46104792 227.04184761 207.14031605 228.56485102 203.66067505 230.08299255 C202.89018829 230.42782684 202.11970154 230.77266113 201.3258667 231.12794495 C198.77858914 232.26514221 196.22563458 233.38894311 193.6723938 234.51268005 C191.87658078 235.31111103 190.08109443 236.11027709 188.28591919 236.91014099 C182.65015247 239.41687888 177.00610117 241.90456331 171.3598938 244.38768005 C170.46065186 244.78330139 169.56140991 245.17892273 168.63491821 245.58653259 C160.81663 249.02515304 152.99707933 252.46085397 145.16848755 255.8759613 C137.11429154 259.39324244 129.08268424 262.9482532 121.1020813 266.62986755 C120.37809647 266.96260681 119.65411163 267.29534607 118.90818787 267.63816833 C115.53954265 269.18692431 112.17647014 270.745785 108.82254028 272.32615662 C107.07179199 273.13391541 107.07179199 273.13391541 105.28567505 273.95799255 C104.27932007 274.42995056 103.27296509 274.90190857 102.2361145 275.38816833 C95.56154435 277.70763953 91.07808356 275.72703575 85.02786255 272.86424255 C84.21572296 272.49150711 83.40358337 272.11877167 82.5668335 271.73474121 C80.80970678 270.92700815 79.05489658 270.11422072 77.30218506 269.29695129 C72.5791537 267.09509541 67.83920152 264.93010566 63.1020813 262.7587738 C62.12735367 262.31066849 61.15262604 261.86256317 60.14836121 261.40087891 C51.05663817 257.22782508 41.90690378 253.19402044 32.73776245 249.1945343 C28.51056281 247.35006884 24.28683391 245.49769253 20.0630188 243.64549255 C19.25085907 243.28936386 18.43869934 242.93323517 17.60192871 242.5663147 C2.06684295 235.75186606 2.06684295 235.75186606 -5.52648926 232.36317444 C-6.87956716 231.7608916 -8.2340167 231.16167958 -9.58990479 230.56575012 C-11.43191653 229.75555709 -13.26859826 228.93327766 -15.10494995 228.1103363 C-16.1322522 227.65408875 -17.15955444 227.19784119 -18.21798706 226.72776794 C-20.6401062 225.38768005 -20.6401062 225.38768005 -22.6401062 222.38768005 C-22.8360297 219.61538787 -22.91395931 216.94355886 -22.90080261 214.17080688 C-22.90462816 213.32309811 -22.90845371 212.47538934 -22.91239518 211.60199243 C-22.92274482 208.75078879 -22.91872929 205.8997858 -22.9147644 203.04856873 C-22.91910985 201.0086244 -22.92429244 198.96868171 -22.93025208 196.92874146 C-22.94367286 191.37908814 -22.94421721 185.8295028 -22.94168878 180.27983642 C-22.94062092 175.65007931 -22.9454978 171.02033606 -22.9502942 166.39058191 C-22.96140053 155.4682988 -22.96182079 144.54605007 -22.95578003 133.62376404 C-22.94974134 122.35107324 -22.96204605 111.0785073 -22.9833501 99.80583781 C-23.00095836 90.13356866 -23.00696859 80.46133928 -23.00371236 70.78905469 C-23.00189776 65.00970748 -23.0045531 59.23044928 -23.0184269 53.45111656 C-23.03098758 48.01499388 -23.02907771 42.57906588 -23.01601601 37.14294624 C-23.01364666 35.14750478 -23.01639769 33.15204969 -23.02463913 31.15662384 C-23.03507815 28.43269051 -23.02702869 25.70941376 -23.014328 22.98550415 C-23.02170229 22.19571031 -23.02907657 21.40591648 -23.03667432 20.59218949 C-22.97516158 14.32151709 -21.38394078 10.41429862 -17.3276062 5.70018005 C-11.72607825 0.88026065 -7.1177782 -0.05386559 0 0 Z M12.3598938 42.38768005 C12.33734527 55.9303248 12.31898016 69.47295718 12.30808163 83.01561642 C12.30285218 89.30330029 12.29575341 95.59097072 12.28445435 101.87864685 C12.27362766 107.94105729 12.26761743 114.00345474 12.26501656 120.0658741 C12.26316191 122.38444282 12.25954055 124.70301079 12.25416374 127.02157402 C12.24695622 130.25682513 12.24590273 133.49202188 12.24636841 136.72727966 C12.24277313 137.69616119 12.23917786 138.66504272 12.23547363 139.6632843 C12.2368483 140.53973099 12.23822296 141.41617767 12.23963928 142.31918335 C12.23871749 143.08519332 12.2377957 143.85120329 12.23684597 144.64042568 C12.17002589 146.41637411 12.17002589 146.41637411 13.3598938 147.38768005 C15.735579 147.47607676 18.08198054 147.50298311 20.45755005 147.4853363 C21.16640854 147.48392136 21.87526703 147.48250641 22.60560608 147.48104858 C24.87791092 147.47543448 27.15011855 147.46287968 29.4223938 147.45018005 C30.95950175 147.44516687 32.49661125 147.44060365 34.03372192 147.43650818 C37.80918047 147.42630975 41.58442784 147.40673737 45.3598938 147.38768005 C45.3598938 141.44768005 45.3598938 135.50768005 45.3598938 129.38768005 C40.4098938 129.38768005 35.4598938 129.38768005 30.3598938 129.38768005 C30.3598938 120.80768005 30.3598938 112.22768005 30.3598938 103.38768005 C35.3098938 103.38768005 40.2598938 103.38768005 45.3598938 103.38768005 C45.3598938 97.44768005 45.3598938 91.50768005 45.3598938 85.38768005 C40.4098938 85.38768005 35.4598938 85.38768005 30.3598938 85.38768005 C30.6898938 77.13768005 31.0198938 68.88768005 31.3598938 60.38768005 C35.9798938 60.05768005 40.5998938 59.72768005 45.3598938 59.38768005 C45.3598938 53.77768005 45.3598938 48.16768005 45.3598938 42.38768005 C34.4698938 42.38768005 23.5798938 42.38768005 12.3598938 42.38768005 Z M56.3598938 42.38768005 C56.3367732 55.93032183 56.31898016 69.47295896 56.30808163 83.01561642 C56.30285218 89.30330029 56.29575341 95.59097072 56.28445435 101.87864685 C56.27362766 107.94105729 56.26761743 114.00345474 56.26501656 120.0658741 C56.26316191 122.38444282 56.25954055 124.70301079 56.25416374 127.02157402 C56.24695622 130.25682513 56.24590273 133.49202188 56.24636841 136.72727966 C56.24277313 137.69616119 56.23917786 138.66504272 56.23547363 139.6632843 C56.2368483 140.53973099 56.23822296 141.41617767 56.23963928 142.31918335 C56.23871749 143.08519332 56.2377957 143.85120329 56.23684597 144.64042568 C56.17002589 146.41637411 56.17002589 146.41637411 57.3598938 147.38768005 C60.05644233 147.46087627 62.72680838 147.48010543 65.4223938 147.45018005 C66.18100708 147.44566833 66.93962036 147.44115662 67.72122192 147.43650818 C69.60081251 147.42468685 71.48036279 147.40675083 73.3598938 147.38768005 C74.794986 144.51749564 74.47147885 142.05224283 74.45755005 138.84861755 C74.45432739 137.54666443 74.45110474 136.2447113 74.44778442 134.90330505 C74.43942846 133.52309606 74.4309635 132.14288773 74.4223938 130.76268005 C74.41737881 129.3746608 74.4128159 127.98663983 74.40872192 126.59861755 C74.39690356 123.19492873 74.38042814 119.79132567 74.3598938 116.38768005 C75.03826294 116.33434509 75.71663208 116.28101013 76.41555786 116.22605896 C77.30984497 116.14790955 78.20413208 116.06976013 79.1255188 115.98924255 C80.01013794 115.91528259 80.89475708 115.84132263 81.80618286 115.76512146 C88.05948602 114.84087608 91.98827445 111.10859571 96.09817505 106.55955505 C99.33268404 100.99179345 99.66892414 94.56656713 99.66067505 88.2665863 C99.66710274 87.15029091 99.66710274 87.15029091 99.67366028 86.01144409 C99.6793614 84.44928497 99.67993528 82.88709933 99.67556763 81.32493591 C99.67240601 78.95931451 99.69592412 76.59494451 99.72122192 74.22947693 C99.76059513 64.90736394 99.4812312 57.1142767 94.1723938 49.07518005 C87.55413095 42.75106222 81.94594317 41.94004371 73.05911255 42.03611755 C71.83837036 42.06963318 70.61762817 42.1031488 69.3598938 42.13768005 C67.48237427 42.16475037 67.48237427 42.16475037 65.56692505 42.19236755 C62.49711138 42.23923494 59.42891206 42.30483695 56.3598938 42.38768005 Z M106.3598938 42.38768005 C106.3598938 77.03768005 106.3598938 111.68768005 106.3598938 147.38768005 C112.2998938 147.38768005 118.2398938 147.38768005 124.3598938 147.38768005 C124.3830144 133.84503827 124.40080744 120.30240115 124.41170597 106.75974369 C124.41693542 100.47205981 124.42403419 94.18438939 124.43533325 87.89671326 C124.44615994 81.83430282 124.45217017 75.77190536 124.45477104 69.70948601 C124.45662569 67.39091729 124.46024705 65.07234932 124.46562386 62.75378609 C124.47283138 59.51853498 124.47388486 56.28333823 124.47341919 53.04808044 C124.47701447 52.07919891 124.48060974 51.11031738 124.48431396 50.11207581 C124.4829393 49.23562912 124.48156464 48.35918243 124.48014832 47.45617676 C124.48107011 46.69016679 124.4819919 45.92415682 124.48294163 45.13493443 C124.54976171 43.358986 124.54976171 43.358986 123.3598938 42.38768005 C117.7498938 42.38768005 112.1398938 42.38768005 106.3598938 42.38768005 Z M133.5473938 48.45018005 C131.02012922 52.57361174 131.19954225 56.56531327 131.18289185 61.23631287 C131.17632065 62.03505325 131.16974945 62.83379364 131.16297913 63.65673828 C131.14326097 66.30142818 131.13158634 68.9460613 131.12161255 71.59080505 C131.11753702 72.49501945 131.11346149 73.39923386 131.10926247 74.33084869 C131.08840724 79.11753104 131.07410361 83.90418477 131.06472778 88.69090271 C131.05366933 93.6283482 131.01927443 98.56534228 130.97955608 103.50262833 C130.95337644 107.30484337 130.94503471 111.10695111 130.9414463 114.90924835 C130.93658321 116.7288645 130.92497709 118.54847595 130.90640831 120.36800385 C130.88198961 122.91951987 130.88298668 125.46987136 130.8899231 128.02146912 C130.87711304 128.76770035 130.86430298 129.51393158 130.85110474 130.28277588 C130.90475956 135.71996637 132.31240223 138.87727072 135.3598938 143.38768005 C141.01665142 148.53248076 148.81254573 147.95566291 155.9848938 147.82518005 C157.09090942 147.8322699 158.19692505 147.83935974 159.3364563 147.84666443 C165.90588218 147.79534079 170.93972679 147.50726231 176.00442505 142.88768005 C179.78115103 138.03730287 180.48497702 135.03107143 180.45755005 128.9697113 C180.45432739 127.71609802 180.45110474 126.46248474 180.44778442 125.17088318 C180.43940552 123.86055115 180.43102661 122.55021912 180.4223938 121.20018005 C180.41737697 119.86489524 180.41281438 118.52960864 180.40872192 117.19432068 C180.39692084 113.92542125 180.37898516 110.65654503 180.3598938 107.38768005 C174.4198938 107.38768005 168.4798938 107.38768005 162.3598938 107.38768005 C162.3598938 114.64768005 162.3598938 121.90768005 162.3598938 129.38768005 C158.0698938 129.38768005 153.7798938 129.38768005 149.3598938 129.38768005 C149.6898938 106.61768005 150.0198938 83.84768005 150.3598938 60.38768005 C153.9898938 60.38768005 157.6198938 60.38768005 161.3598938 60.38768005 C161.6898938 67.31768005 162.0198938 74.24768005 162.3598938 81.38768005 C168.2998938 81.38768005 174.2398938 81.38768005 180.3598938 81.38768005 C180.46804874 76.86620267 180.54730355 72.34732547 180.6098938 67.82518005 C180.64340942 66.54836365 180.67692505 65.27154724 180.7114563 63.95603943 C180.86315065 54.42110321 180.86315065 54.42110321 176.3598938 46.38768005 C172.01266681 42.96927788 169.15415351 41.87814703 163.6411438 41.85643005 C162.37915161 41.8512738 161.11715942 41.84611755 159.81692505 41.84080505 C157.85819458 41.86400818 157.85819458 41.86400818 155.8598938 41.88768005 C154.55407349 41.8722113 153.24825317 41.85674255 151.90286255 41.84080505 C150.64087036 41.8459613 149.37887817 41.85111755 148.0786438 41.85643005 C146.36064575 41.86319763 146.36064575 41.86319763 144.60794067 41.87010193 C139.85407341 42.62763339 136.69682557 44.8663439 133.5473938 48.45018005 Z M15.3598938 174.38768005 C15.26008166 177.06499385 15.22109504 179.7107218 15.2348938 182.38768005 C15.23102661 183.13791443 15.22715942 183.8881488 15.22317505 184.66111755 C14.88313839 188.32374122 14.88313839 188.32374122 16.3598938 191.38768005 C18.25586686 191.48643445 20.15556459 191.51400203 22.05410767 191.5146637 C23.29091782 191.51748352 24.52772797 191.52030334 25.80201721 191.52320862 C27.18524184 191.52126402 28.56846633 191.51921584 29.95169067 191.51707458 C31.39847355 191.51842858 32.84525609 191.52020851 34.29203796 191.52238464 C38.23201142 191.52695914 42.17195882 191.52516935 46.11193275 191.52200556 C50.22612201 191.51948204 54.34030896 191.52181947 58.45449829 191.52339172 C65.36486209 191.52521344 72.27521521 191.52280705 79.18557739 191.51805115 C87.18639147 191.51260852 95.18718007 191.51437118 103.18799353 191.51987755 C110.04487499 191.52440861 116.90174876 191.52505927 123.75863123 191.52243888 C127.85940119 191.52087607 131.96015915 191.52068246 136.06092834 191.52397537 C139.91532019 191.52685399 143.76967904 191.52487858 147.62406731 191.51908112 C149.04269798 191.51775346 150.46133142 191.51814772 151.87996101 191.52034378 C153.80853301 191.52305505 155.73711104 191.51906067 157.66567993 191.5146637 C159.28839184 191.51409816 159.28839184 191.51409816 160.9438858 191.51352119 C163.31016173 191.66053504 163.31016173 191.66053504 164.3598938 190.38768005 C164.43314548 187.52500438 164.45227585 184.68696106 164.4223938 181.82518005 C164.41562622 180.61571716 164.41562622 180.61571716 164.40872192 179.38182068 C164.39689898 177.38374249 164.37896294 175.38570222 164.3598938 173.38768005 C145.0803635 173.36435238 125.80083606 173.34670153 106.52129459 173.33586788 C97.57010998 173.33070464 88.61893412 173.32366142 79.66775513 173.3122406 C71.86878991 173.30229461 64.06983104 173.29582683 56.27085966 173.29359156 C52.13877194 173.29228431 48.00670236 173.28919755 43.87462044 173.28195 C39.98987854 173.27519111 36.10516234 173.27306282 32.22041512 173.27457237 C30.79049541 173.27429598 29.36057489 173.27229008 27.93066025 173.26847458 C25.98671328 173.26353947 24.04275271 173.265282 22.09880066 173.26742554 C21.00831956 173.26650374 19.91783846 173.26558195 18.79431248 173.26463223 C16.41175729 173.1123132 16.41175729 173.1123132 15.3598938 174.38768005 Z M52.3598938 220.38768005 C52.3598938 221.04768005 52.3598938 221.70768005 52.3598938 222.38768005 C58.22007858 225.41926843 64.09271337 228.42559599 69.97463989 231.41477966 C71.97368434 232.43440582 73.96981797 233.45976002 75.96292114 234.49095154 C78.82994805 235.97303446 81.70684498 237.43413724 84.5864563 238.8915863 C85.47418732 239.35609695 86.36191833 239.8206076 87.27655029 240.29919434 C90.78499536 242.05467813 93.43356286 243.36915343 97.38723755 243.44822693 C101.66603241 241.92169236 105.65558096 239.98456436 109.6958313 237.9150238 C110.57518341 237.47251785 111.45453552 237.0300119 112.36053467 236.57409668 C115.15584756 235.16528546 117.94537575 233.74542511 120.7348938 232.32518005 C122.6342619 231.36546014 124.53399766 230.40646747 126.43411255 229.44822693 C131.08033176 227.1031194 135.72185725 224.74892584 140.3598938 222.38768005 C140.3598938 221.72768005 140.3598938 221.06768005 140.3598938 220.38768005 C111.3198938 220.38768005 82.2798938 220.38768005 52.3598938 220.38768005 Z " fill="#000000" transform="translate(53.640106201171875,11.612319946289063)"/>
<path d="M0 0 C6 1 6 1 7 2 C7.11332093 4.57019485 7.16417485 7.11251477 7.16796875 9.68359375 C7.17129715 10.45429703 7.17462555 11.22500031 7.17805481 12.01905823 C7.1831271 13.65242921 7.18546304 15.2858106 7.18530273 16.91918945 C7.1874878 19.42351299 7.20563595 21.92739521 7.22460938 24.43164062 C7.22754347 26.01562349 7.22952816 27.59960845 7.23046875 29.18359375 C7.23765427 29.9357164 7.24483978 30.68783905 7.25224304 31.4627533 C7.22882279 36.77117721 7.22882279 36.77117721 5 39 C3.35 39 1.7 39 0 39 C0 26.13 0 13.26 0 0 Z " fill="#000000" transform="translate(128,71)"/>
</svg>
