<?xml version="1.0" encoding="UTF-8"?>
<svg version="1.1" xmlns="http://www.w3.org/2000/svg" width="1024" height="1024">
<path d="M0 0 C1.79328735 0.07577271 1.79328735 0.07577271 3.62280273 0.15307617 C8.07761479 1.04800818 9.59931075 3.30486708 12.0859375 6.91015625 C14.46766107 9.66855143 16.8602658 9.8470743 20.3828125 10.125 C24.60350322 11.30336543 27.54404162 14.02247614 29.90307617 17.61450195 C31.01421806 19.65769786 32.02381755 21.72300408 33.00390625 23.83203125 C33.52307617 24.89260742 33.52307617 24.89260742 34.05273438 25.97460938 C37.30752637 32.73163369 38.1119736 38.89580211 38.81640625 46.33203125 C38.96529297 47.7406543 38.96529297 47.7406543 39.1171875 49.17773438 C40.33906505 62.07828214 38.5855725 70.37614953 32.12890625 81.70703125 C31.23461914 83.34188477 31.23461914 83.34188477 30.32226562 85.00976562 C20.16742453 103.32766226 20.16742453 103.32766226 14.45483398 108.98413086 C12.45716784 110.5884469 12.45716784 110.5884469 12.69140625 112.76953125 C13.90828125 113.22328125 15.12515625 113.67703125 16.37890625 114.14453125 C25.49183239 117.56995739 25.49183239 117.56995739 26.69140625 118.76953125 C26.97502733 123.59108955 26.44558037 127.27446006 24.69140625 131.76953125 C25.39265625 132.07890625 26.09390625 132.38828125 26.81640625 132.70703125 C31.00763809 135.71378453 33.8089105 138.9237152 35.69140625 143.76953125 C35.61818531 146.85773208 35.05455396 149.57080387 34.359375 152.578125 C32.70136069 160.49974891 32.47990723 168.70022933 36.69140625 175.76953125 C37.38363281 176.27226563 38.07585937 176.775 38.7890625 177.29296875 C41.85297143 181.28171261 41.06610313 185.46128129 40.87890625 190.33203125 C40.83751357 192.33456363 40.79970464 194.33717356 40.765625 196.33984375 C40.74677246 197.29020508 40.72791992 198.24056641 40.70849609 199.21972656 C40.68933112 202.07914048 40.8676285 204.86642112 41.19140625 207.70703125 C41.66752997 211.97834402 41.83699581 216.22423476 41.87890625 220.51953125 C41.89308594 221.73125 41.90726563 222.94296875 41.921875 224.19140625 C41.58880577 229.36244713 40.57266618 233.44764136 37.69140625 237.76953125 C37.49115591 241.44078748 37.57915071 244.85582339 38.02734375 248.50390625 C39.58523042 261.59015425 36.05275861 270.70091246 29.36450195 281.67407227 C26.03993127 287.38751998 24.88254186 292.32469297 24.06640625 298.83203125 C22.98081344 306.46329002 22.98081344 306.46329002 20.12060547 309.36083984 C16.23988492 312.13164442 11.98319572 313.99477544 7.61474609 315.86083984 C4.0787897 317.5314199 1.24883915 320.03820324 -1.70703125 322.5546875 C-3.30859375 323.76953125 -3.30859375 323.76953125 -5.30859375 323.76953125 C-5.57671875 324.36765625 -5.84484375 324.96578125 -6.12109375 325.58203125 C-7.39840073 327.93496516 -8.18867582 329.13141285 -10.30859375 330.76953125 C-12.81644783 331.41147342 -15.20238694 331.91986783 -17.74609375 332.33203125 C-21.89781929 333.03265996 -25.56839483 333.75422407 -29.30859375 335.76953125 C-32.29829856 335.41780127 -33.1357084 334.9424166 -35.30859375 332.76953125 C-37.31198921 332.87370952 -37.31198921 332.87370952 -39.30859375 333.76953125 C-39.86740234 334.52943359 -39.86740234 334.52943359 -40.4375 335.3046875 C-43.41417586 337.63507048 -46.69289387 337.12089525 -50.30859375 337.01953125 C-51.09371338 337.00857422 -51.87883301 336.99761719 -52.68774414 336.98632812 C-60.29676074 336.84785922 -67.89647746 336.44480091 -75.4921875 335.98828125 C-77.76176745 335.85819274 -80.03528862 335.76953125 -82.30859375 335.76953125 C-84.49609375 333.89453125 -84.49609375 333.89453125 -86.30859375 331.76953125 C-86.30859375 331.10953125 -86.30859375 330.44953125 -86.30859375 329.76953125 C-85.01945888 329.09798192 -83.72719171 328.43244266 -82.43359375 327.76953125 C-81.71429688 327.39828125 -80.995 327.02703125 -80.25390625 326.64453125 C-78.30859375 325.76953125 -78.30859375 325.76953125 -76.30859375 325.76953125 C-76.19902344 325.1146875 -76.08945313 324.45984375 -75.9765625 323.78515625 C-75.81800781 322.8725 -75.65945312 321.95984375 -75.49609375 321.01953125 C-75.26986328 319.69695312 -75.26986328 319.69695312 -75.0390625 318.34765625 C-74.61321555 316.26168937 -74.14849892 314.18162956 -73.58911133 312.12744141 C-71.62362696 304.8861832 -70.78392996 298.1344068 -70.62109375 290.64453125 C-70.58983398 289.54761963 -70.55857422 288.45070801 -70.52636719 287.32055664 C-70.4679572 285.1277751 -70.41616407 282.93480547 -70.37158203 280.74169922 C-70.31879171 278.25073269 -70.23988301 275.763171 -70.1484375 273.2734375 C-69.84147795 262.02584992 -71.02063994 250.8931599 -72.24121094 239.72631836 C-73.91634426 223.71606249 -73.29575878 207.77203389 -72.80859375 191.70703125 C-72.76019119 190.05013678 -72.71201317 188.39323573 -72.6640625 186.73632812 C-72.54814592 182.74731573 -72.42924501 178.75840313 -72.30859375 174.76953125 C-70.98859375 174.43953125 -69.66859375 174.10953125 -68.30859375 173.76953125 C-68.44917851 171.31079357 -68.59582374 168.8526795 -68.74609375 166.39453125 C-68.78541016 165.69585937 -68.82472656 164.9971875 -68.86523438 164.27734375 C-69.05139509 160.39592633 -69.05139509 160.39592633 -70.30859375 156.76953125 C-70.55169549 152.62863012 -70.49379356 148.47926755 -70.49609375 144.33203125 C-70.50833984 143.17380859 -70.52058594 142.01558594 -70.53320312 140.82226562 C-70.53610352 139.1584082 -70.53610352 139.1584082 -70.5390625 137.4609375 C-70.54317139 136.44201416 -70.54728027 135.42309082 -70.55151367 134.37329102 C-70.30859375 131.76953125 -70.30859375 131.76953125 -68.30859375 128.76953125 C-67.99177205 126.39197176 -67.99177205 126.39197176 -68.05859375 123.83203125 C-68.0534375 122.97738281 -68.04828125 122.12273437 -68.04296875 121.2421875 C-68.1395423 118.79666467 -68.1395423 118.79666467 -69.30229187 117.02160645 C-70.64128959 114.02496736 -70.61196292 111.54294634 -70.67504883 108.26367188 C-70.68991333 107.61912048 -70.70477783 106.97456909 -70.72009277 106.31048584 C-70.76620959 104.18231416 -70.79788108 102.05423376 -70.828125 99.92578125 C-70.85448811 98.43566207 -70.88124304 96.94554978 -70.90837097 95.45544434 C-70.96279291 92.3284351 -71.0095568 89.201419 -71.05151367 86.07421875 C-71.1058725 82.09773934 -71.18339899 78.12210426 -71.26746082 74.14615631 C-71.32920597 71.06446994 -71.37606484 67.98268218 -71.41892052 64.90068054 C-71.44142521 63.43681772 -71.46888808 61.97302129 -71.50171852 60.50935364 C-71.69565499 51.51327143 -71.03106263 43.40640828 -68.30859375 34.76953125 C-69.40171875 34.54265625 -70.49484375 34.31578125 -71.62109375 34.08203125 C-75.98594923 32.52843862 -76.17541877 31.68035205 -78.30859375 27.76953125 C-80.00455855 26.18364109 -81.7697729 24.73776442 -83.58984375 23.296875 C-86.32773293 20.86388712 -88.11257087 18.98602619 -88.70703125 15.296875 C-88.69929687 14.44222656 -88.6915625 13.58757812 -88.68359375 12.70703125 C-88.69132813 11.84980469 -88.6990625 10.99257813 -88.70703125 10.109375 C-88.30859375 7.76953125 -88.30859375 7.76953125 -87.2265625 5.99609375 C-84.30804812 4.12967111 -81.67768009 4.31525015 -78.24609375 4.20703125 C-73.91141951 4.02167875 -69.72933802 3.78343766 -65.49609375 2.76953125 C-57.87658475 1.11311625 -50.07418106 1.05964232 -42.30859375 0.76953125 C-41.02033691 0.71909668 -39.73208008 0.66866211 -38.40478516 0.61669922 C-34.72656058 0.47461583 -31.04803308 0.34450864 -27.36914062 0.22097778 C-25.89429223 0.17082445 -24.41951416 0.11854864 -22.94482422 0.06393433 C-15.29124493 -0.21447488 -7.65358373 -0.34663278 0 0 Z M-22.30859375 40.76953125 C-22.30859375 42.41953125 -22.30859375 44.06953125 -22.30859375 45.76953125 C-22.96859375 45.76953125 -23.62859375 45.76953125 -24.30859375 45.76953125 C-24.30859375 62.92953125 -24.30859375 80.08953125 -24.30859375 97.76953125 C-22.32859375 97.76953125 -20.34859375 97.76953125 -18.30859375 97.76953125 C-17.78072266 96.64804687 -17.78072266 96.64804687 -17.2421875 95.50390625 C-14.06484117 89.16580547 -11.95010898 85.47533375 -5.30859375 82.76953125 C-3.98008702 82.41745349 -2.64756899 82.07942508 -1.30859375 81.76953125 C-1.21771484 79.79919922 -1.21771484 79.79919922 -1.125 77.7890625 C-1.04056119 76.05337584 -0.95591487 74.31769927 -0.87109375 72.58203125 C-0.83177734 71.71771484 -0.79246094 70.85339844 -0.75195312 69.96289062 C-0.54370507 65.78191042 -0.13029794 61.87805218 0.69140625 57.76953125 C0.36140625 57.10953125 0.03140625 56.44953125 -0.30859375 55.76953125 C-0.4765625 53.89453125 -0.4765625 53.89453125 -0.49609375 51.76953125 C-0.51027344 51.06828125 -0.52445313 50.36703125 -0.5390625 49.64453125 C-0.30859375 47.76953125 -0.30859375 47.76953125 1.69140625 45.76953125 C-0.19578125 45.39828125 -0.19578125 45.39828125 -2.12109375 45.01953125 C-5.94920535 44.09272528 -7.04907693 42.99741242 -9.30859375 39.76953125 C-13.54170355 39.16480128 -18.08884498 40.19736193 -22.30859375 40.76953125 Z M-24.30859375 135.76953125 C-24.3336499 136.51638184 -24.35870605 137.26323242 -24.38452148 138.03271484 C-24.50027588 141.40350392 -24.62309503 144.77399908 -24.74609375 148.14453125 C-24.80506836 149.90796875 -24.80506836 149.90796875 -24.86523438 151.70703125 C-24.90712891 152.82851563 -24.94902344 153.95 -24.9921875 155.10546875 C-25.04717407 156.66080322 -25.04717407 156.66080322 -25.10327148 158.24755859 C-25.30859375 160.76953125 -25.30859375 160.76953125 -26.30859375 162.76953125 C-26.62461636 167.68647126 -26.39498701 172.524875 -25.68359375 177.39453125 C-25.09312065 181.97271991 -26.05616003 185.34917694 -27.30859375 189.76953125 C-27.47871388 192.60376617 -27.47871388 192.60376617 -27.30859375 194.76953125 C-28.79359375 195.26453125 -28.79359375 195.26453125 -30.30859375 195.76953125 C-29.98425858 196.32145645 -29.6599234 196.87338165 -29.32575989 197.44203186 C-28.14418591 200.14573249 -28.04872006 202.06514036 -28.03393555 205.00952148 C-28.02440353 206.05418076 -28.01487152 207.09884003 -28.00505066 208.17515564 C-28.00596207 209.29813553 -28.00687347 210.42111542 -28.0078125 211.578125 C-28.00352737 212.73699722 -27.99924225 213.89586945 -27.99482727 215.08985901 C-27.98908547 217.54012397 -27.9885826 219.99040598 -27.99291992 222.44067383 C-27.99607878 226.1892607 -27.97262153 229.93705764 -27.94726562 233.68554688 C-27.94499252 236.06640525 -27.94428919 238.44726576 -27.9453125 240.828125 C-27.93610275 241.94908066 -27.92689301 243.07003632 -27.91740417 244.22496033 C-27.92674736 245.79667747 -27.92674736 245.79667747 -27.9362793 247.40014648 C-27.93564987 248.31851791 -27.93502045 249.23688934 -27.93437195 250.18309021 C-28.38329817 253.28585224 -29.66447329 255.12968249 -31.30859375 257.76953125 C-31.52588921 260.57101294 -31.58956448 263.13285883 -31.49609375 265.921875 C-31.48473389 266.69962784 -31.47337402 267.47738068 -31.46166992 268.27870178 C-31.41285003 271.58996512 -31.32842289 274.90009538 -31.24707031 278.21069336 C-31.19262456 280.63520102 -31.1564676 283.05952591 -31.12109375 285.484375 C-31.08375122 286.59557961 -31.08375122 286.59557961 -31.0456543 287.72923279 C-30.97822838 292.52034444 -31.84893675 295.66727851 -34.30859375 299.76953125 C-23.73702416 298.36756682 -13.97971765 287.64075152 -7.30859375 279.76953125 C-5.03877491 275.63570967 -5.07164969 271.62738707 -4.99609375 267.01953125 C-4.77812261 260.58763032 -3.73095936 254.94848998 -1.74609375 248.83203125 C0.18919031 242.85481871 1.9359043 237.08372137 0.69140625 230.76953125 C0.03140625 229.77953125 -0.62859375 228.78953125 -1.30859375 227.76953125 C-0.64859375 227.76953125 0.01140625 227.76953125 0.69140625 227.76953125 C0.83557407 224.6699232 0.93511738 222.33311325 -0.30859375 219.45703125 C-1.7329031 215.62919989 -1.82368398 211.81450455 -1.30859375 207.76953125 C-0.31859375 206.28453125 -0.31859375 206.28453125 0.69140625 204.76953125 C0.47221422 200.89713871 -0.0487998 198.23915878 -1.93359375 194.83203125 C-3.71506176 190.86421615 -3.09146768 187.88543278 -2.30859375 183.76953125 C-1.02108816 175.02452573 -0.39937421 169.28677367 -5.30859375 161.76953125 C-4.64859375 161.43953125 -3.98859375 161.10953125 -3.30859375 160.76953125 C-3.63300979 159.10110591 -3.96798564 157.43472644 -4.30859375 155.76953125 C-4.38078125 155.15335938 -4.45296875 154.5371875 -4.52734375 153.90234375 C-5.69834849 150.7055008 -7.8379352 149.13151583 -10.37109375 146.89453125 C-11.29019531 146.07210937 -12.20929688 145.2496875 -13.15625 144.40234375 C-16.73249714 141.34036686 -20.51611455 138.55576894 -24.30859375 135.76953125 Z " fill="#009AE4" transform="translate(224.30859375,346.23046875)"/>
<path d="M0 0 C0.495 0.495 0.495 0.495 1 1 C3.08301165 1.05546481 5.16648918 1.09343165 7.25 1.125 C15.1405902 1.42867141 22.05747124 3.7206586 29.41308594 6.47314453 C34.63099423 8.38704525 39.31602962 9.45257498 44.87768555 9.75170898 C48.37186235 10.16049511 50.3003753 11.80655493 53 14 C53.74314453 14.51030762 54.48628906 15.02061523 55.25195312 15.54638672 C62.57426057 20.81759993 65.91755538 26.39125198 69.5 34.5625 C70.01046875 35.66013672 70.5209375 36.75777344 71.046875 37.88867188 C75.85025541 48.37394569 79.45126959 58.86087349 76.32421875 70.51953125 C75.77849285 71.9549714 75.22132355 73.38611745 74.65234375 74.8125 C73.88036808 77.40116093 73.94110931 79.49340977 74.0625 82.1875 C74.36653292 95.02841964 68.5655578 108.43838535 60.171875 118.10546875 C55.2741441 122.57299355 49.55611219 125.00664967 43 126 C42.505 128.97 42.505 128.97 42 132 C42.58007812 132.01417969 43.16015625 132.02835938 43.7578125 132.04296875 C49.73440348 132.40787612 52.64301902 133.64301902 57 138 C57.928125 138.78375 58.85625 139.5675 59.8125 140.375 C62 143 62 143 62.5 146.625 C62.665 147.73875 62.83 148.8525 63 150 C63.77859375 150.38285156 64.5571875 150.76570312 65.359375 151.16015625 C69.32733949 153.9248179 69.70596033 157.24083864 70.75 161.8125 C71.06674683 163.1260144 71.06674683 163.1260144 71.38989258 164.46606445 C73.08441678 172.0843488 73.61984146 179.60899547 73.72363281 187.3996582 C73.80844368 193.21627002 74.56427157 198.35432683 76 204 C77.32 204.33 78.64 204.66 80 205 C85.92271573 235.21608894 85.92271573 235.21608894 83 248 C83.598125 248.185625 84.19625 248.37125 84.8125 248.5625 C87.97648345 250.64168912 88.95615158 253.4865896 90 257 C90.35946107 259.91111873 90.33247632 262.75880668 90.25 265.6875 C90.23976807 266.47406982 90.22953613 267.26063965 90.21899414 268.07104492 C90.11935827 273.58141531 89.76112832 279.0436799 89.12109375 284.51953125 C88.86716636 286.95795602 88.86716636 286.95795602 89.59570312 289.05029297 C90.19706116 293.43773728 89.21747387 297.36466882 88.34765625 301.67578125 C88.16867294 302.6009404 87.98968964 303.52609955 87.80528259 304.47929382 C87.23319648 307.42550233 86.6480406 310.36893909 86.0625 313.3125 C85.67166071 315.31298217 85.28167676 317.31363166 84.89257812 319.31445312 C83.93828926 324.21163015 82.97227297 329.10636314 82 334 C77.72488642 335.42503786 75.24541542 334.19496421 71.11328125 332.640625 C66.86842536 330.40368714 63.68550438 327.45307275 60.32446289 324.06152344 C55.06862659 318.79562375 50.04484062 315.75885491 42.5625 314.75 C41.51191406 314.60046875 40.46132813 314.4509375 39.37890625 314.296875 C38.20134766 314.14992188 38.20134766 314.14992188 37 314 C37.3909143 306.71300649 38.94098063 300.51757624 41.4375 293.6875 C51.01348921 265.92655982 49.05291318 233.26826484 38 206 C36.73899338 203.82252409 35.3908797 201.78817437 33.94140625 199.734375 C31.95225007 196.06970551 32.49209375 191.99963091 33.49609375 188.046875 C35.46589697 180.04550378 33.65973605 174.03723381 29.80078125 166.91796875 C27.1825477 162.6754081 24.23419321 158.78917312 21 155 C20.81824219 155.65226563 20.63648438 156.30453125 20.44921875 156.9765625 C18.28973843 164.48490946 18.28973843 164.48490946 16.3125 168 C13.20991159 175.09163065 15.18630813 184.10532882 16.05859375 191.609375 C16.1672023 192.5798175 16.27581085 193.55026001 16.38771057 194.55010986 C16.61633025 196.5839908 16.84755843 198.6175801 17.08129883 200.65087891 C17.43806609 203.75492529 17.78711627 206.85976418 18.13476562 209.96484375 C18.35892998 211.95057112 18.58352439 213.93625 18.80859375 215.921875 C18.91280136 216.84385681 19.01700897 217.76583862 19.12437439 218.71575928 C19.53565605 222.28551431 19.97012285 225.8236647 20.57055664 229.36743164 C20.95310396 231.7125185 21.10403109 233.83050466 21.0625 236.19921875 C21.05476562 236.93333984 21.04703125 237.66746094 21.0390625 238.42382812 C21.02617188 239.17083984 21.01328125 239.91785156 21 240.6875 C20.83217277 246.42039694 20.83217277 246.42039694 22 252 C22.09351594 253.73763197 22.13069921 255.47860471 22.1328125 257.21875 C22.13410156 258.23324219 22.13539063 259.24773437 22.13671875 260.29296875 C22.13285156 261.35128906 22.12898437 262.40960937 22.125 263.5 C22.12886719 264.55832031 22.13273438 265.61664062 22.13671875 266.70703125 C22.13542969 267.72152344 22.13414062 268.73601562 22.1328125 269.78125 C22.13168457 270.71001953 22.13055664 271.63878906 22.12939453 272.59570312 C22 275 22 275 21 278 C20.29407132 286.24130689 21.47427055 294.56394582 22.46411133 302.73779297 C22.56103271 303.61709473 22.6579541 304.49639648 22.7578125 305.40234375 C22.8520752 306.19116943 22.94633789 306.97999512 23.04345703 307.79272461 C22.99237382 310.38734993 22.19029956 311.72094433 21 314 C20.58159525 316.31137567 20.58159525 316.31137567 20.4375 318.7734375 C20.36273437 319.6809375 20.28796875 320.5884375 20.2109375 321.5234375 C20.14132812 322.46445312 20.07171875 323.40546875 20 324.375 C19.16176096 335.61361227 19.16176096 335.61361227 17 341 C16.34 341 15.68 341 15 341 C14.5875 339.97261719 14.175 338.94523437 13.75 337.88671875 C7.19001742 321.97211626 -1.87766638 309.13618155 -16.640625 299.80078125 C-22.70748556 295.17028006 -22.70748556 295.17028006 -24 292 C-23.73332766 288.11279828 -22.48574303 284.65444573 -21.1875 281 C-20.68150269 279.46666016 -20.68150269 279.46666016 -20.1652832 277.90234375 C-17.87262677 271.09270756 -15.29508257 264.45299928 -12.26171875 257.9375 C-10.81702386 254.57399981 -9.65402674 251.61498416 -9 248 C-9.75332211 246.29868405 -10.50874623 244.59819755 -11.28390503 242.90671921 C-12.47654768 239.73111438 -12.37952171 236.68124979 -12.38476562 233.31494141 C-12.3901384 232.58044769 -12.39551117 231.84595398 -12.40104675 231.08920288 C-12.41077829 229.50423423 -12.41378298 227.91921258 -12.41069031 226.33421707 C-12.40617274 223.80836387 -12.42032808 221.28319707 -12.43908691 218.75741577 C-12.47575257 213.37995496 -12.48953031 208.00256725 -12.5 202.625 C-12.51216773 196.42001839 -12.53425633 190.21537254 -12.58000183 184.01054001 C-12.59333443 181.55315792 -12.58944284 179.09622695 -12.58459473 176.63882446 C-12.62609724 164.60742029 -13.30194165 152.22160082 -18 141 C-18.23826228 139.00726096 -18.39977858 137.00442846 -18.5 135 C-19.03899544 126.63138657 -20.20809226 118.42876848 -22.0625 110.25 C-23.22109608 104.81627418 -23.39784363 99.33857341 -23.57055664 93.79980469 C-23.7210268 90.0427663 -23.8666938 88.1999593 -26 85 C-26 83.68 -26 82.36 -26 81 C-27.485 80.505 -27.485 80.505 -29 80 C-30.89468584 55.8476137 -30.89468584 55.8476137 -27.98339844 49.93554688 C-25.02061394 46.56662788 -20.96844825 44.91435708 -17 43 C-15.07026854 41.44038899 -13.1907318 39.8159666 -11.375 38.125 C-10.57835937 37.40570313 -9.78171875 36.68640625 -8.9609375 35.9453125 C-6.82874704 33.95982716 -6.82874704 33.95982716 -5 31 C-7.3260857 30.61936779 -9.66055264 30.28730055 -12 30 C-12.495 30.495 -12.495 30.495 -13 31 C-15.33297433 31.04092937 -17.66705225 31.04241723 -20 31 C-20.25652344 30.3709375 -20.51304687 29.741875 -20.77734375 29.09375 C-23.95321778 21.99347943 -27.90094536 17.73784694 -34 13 C-34.60070312 12.49339844 -35.20140625 11.98679687 -35.8203125 11.46484375 C-40.19671154 7.97390219 -44.51053213 6.83400079 -50 6 C-50 4.68 -50 3.36 -50 2 C-48.94611084 1.98018066 -47.89222168 1.96036133 -46.80639648 1.93994141 C-42.87192111 1.86349313 -38.93779677 1.77483823 -35.00366211 1.68261719 C-33.30549076 1.64448871 -31.60724308 1.60960854 -29.90893555 1.578125 C-27.45854533 1.53212178 -25.00867333 1.47418849 -22.55859375 1.4140625 C-21.80726669 1.40251129 -21.05593964 1.39096008 -20.28184509 1.37905884 C-13.11826141 1.18142685 -7.16576037 -1.57646728 0 0 Z M15 39 C14.97687624 49.28304538 14.95908475 59.56608462 14.94818783 69.84915066 C14.94295907 74.6234828 14.93586156 79.39779721 14.92456055 84.17211914 C14.9137314 88.77566262 14.90772311 93.37918899 14.90512276 97.98274422 C14.90326856 99.74309623 14.89964804 101.50344726 14.89426994 103.26379204 C14.88705914 105.72072277 14.88600907 108.17758195 14.88647461 110.63452148 C14.88287933 111.36963455 14.87928406 112.10474762 14.87557983 112.86213684 C14.58599332 116.21583107 14.58599332 116.21583107 16 119 C20.72286502 119.13920023 24.25336429 118.45079892 28.3125 116 C31.80353611 112.65362008 33.32431556 108.44845376 35 104 C35.27714844 103.360625 35.55429687 102.72125 35.83984375 102.0625 C37.9287033 97.07417869 38.73751494 92.08104265 39.5234375 86.74609375 C40 84 40 84 41.1875 80.9375 C43.0399362 74.24023066 41.7299207 67.77266424 38.6875 61.625 C33.42847509 52.77506705 25.91437043 44.25492007 17 39 C16.34 39 15.68 39 15 39 Z " fill="#009AE4" transform="translate(696,342)"/>
<path d="M0 0 C2.95377218 2.10983727 5.50158792 2.01197405 9.06640625 2.15625 C11.70353984 2.66133636 12.33652919 3.67441699 14.1875 5.5625 C16.74040354 6.63988318 16.74040354 6.63988318 19.5625 7.5 C23.00188043 8.66749611 25.06295485 9.45822964 27.875 11.8125 C30.50602051 13.80354255 31.0973171 13.72417605 34.25 13.5625 C35.549375 13.5625 36.84875 13.5625 38.1875 13.5625 C39.52083333 14.89583333 40.85416667 16.22916667 42.1875 17.5625 C44.52828458 18.0137864 46.7836263 18.18625296 49.1640625 18.2890625 C51.1875 18.5625 51.1875 18.5625 53.1875 20.5625 C56.07973503 21.02646693 56.07973503 21.02646693 59.3125 21.1875 C60.40820312 21.26226562 61.50390625 21.33703125 62.6328125 21.4140625 C63.89738281 21.48753906 63.89738281 21.48753906 65.1875 21.5625 C65.6825 23.0475 65.6825 23.0475 66.1875 24.5625 C67.05632812 24.48128906 67.92515625 24.40007812 68.8203125 24.31640625 C78.08577181 23.80856788 78.08577181 23.80856788 81.10546875 25.875 C82.5 27.625 82.5 27.625 83.79296875 29.5703125 C85.38429156 31.8436308 87.143243 33.27887105 89.3125 35 C95.98946154 40.73939958 98.06135632 48.61791222 101.0390625 56.70703125 C102.12719053 59.69321466 102.12719053 59.69321466 104.1875 62.5625 C104.36694336 65.42236328 104.36694336 65.42236328 104.27734375 68.8828125 C104.25736328 70.1409375 104.23738281 71.3990625 104.21679688 72.6953125 C104.15613545 75.33343923 104.09111036 77.97146964 104.02148438 80.609375 C103.92780699 86.95359492 103.86321802 92.45861832 106.43579102 98.33544922 C109.04767398 106.07354484 108.43931727 114.81332514 108.48266602 122.88061523 C108.49423657 124.3787578 108.5147679 125.87685754 108.54418945 127.37475586 C108.5870391 129.56391777 108.60304885 131.75187627 108.61328125 133.94140625 C108.62786377 135.2363501 108.64244629 136.53129395 108.6574707 137.86547852 C108.22976173 141.23004838 107.85611498 142.47300599 106.19018555 145.22875977 C104.24790591 148.46194622 103.69774369 149.86458883 103.71875 153.5234375 C103.70457031 154.40773438 103.69039062 155.29203125 103.67578125 156.203125 C103.68356027 158.01822931 103.69137248 159.83333348 103.69921875 161.6484375 C103.59759552 168.00450859 102.52789411 173.07977333 99.1875 178.5625 C98.66687988 179.05975586 98.14625977 179.55701172 97.60986328 180.06933594 C95.8780916 181.88730978 95.64773198 183.01599834 95.2734375 185.4765625 C95.09167969 186.61931641 95.09167969 186.61931641 94.90625 187.78515625 C94.7928125 188.57792969 94.679375 189.37070312 94.5625 190.1875 C94.38074219 191.34185547 94.38074219 191.34185547 94.1953125 192.51953125 C93.83399211 194.86418642 93.5105405 197.21230627 93.1875 199.5625 C93.07438477 200.2440918 92.96126953 200.92568359 92.84472656 201.62792969 C91.96069075 207.65236545 92.44719861 213.42444835 92.91650391 219.47705078 C93.3725121 225.7625436 93.37352372 232.05449653 93.37280273 238.35375977 C93.37502369 240.52313933 93.39338132 242.69203541 93.41210938 244.86132812 C93.43952119 251.791125 93.08675194 257.89692614 91.1875 264.5625 C90.8694513 267.66287308 90.77916031 270.76075423 90.6875 273.875 C90.38723122 280.95063381 89.72928265 287.63832642 88.1875 294.5625 C87.91595586 295.97617734 87.64662229 297.39028021 87.37890625 298.8046875 C85.09473682 310.45971414 82.38500448 322.45796314 72.57421875 330.17578125 C68.77249231 332.38464031 64.80055733 333.51871666 60.5703125 334.65234375 C57.24220811 335.54778061 54.05426265 336.64660291 50.8125 337.8125 C46.32412863 339.3165189 42.89351035 340.15075129 38.1875 339.5625 C37.59582031 339.18609375 37.00414062 338.8096875 36.39453125 338.421875 C33.10339331 337.14036996 31.14187944 338.2628054 27.875 339.4375 C21.75705183 341.47681606 17.43074193 342.64358064 11.1875 340.5625 C11.87266188 336.94827109 13.42575776 334.14759764 15.1875 330.9375 C19.68228801 322.04516699 19.87453361 315.02233066 17.1875 305.5625 C16.85091299 304.22998431 16.51660782 302.8968826 16.1875 301.5625 C17.80999941 300.72430842 19.43558497 299.8920884 21.0625 299.0625 C21.96742188 298.5984375 22.87234375 298.134375 23.8046875 297.65625 C26.1875 296.5625 26.1875 296.5625 28.1875 296.5625 C27.31544922 295.06203125 27.31544922 295.06203125 26.42578125 293.53125 C20.22137306 282.62769366 15.90765182 273.91492342 17.83447266 261.06347656 C18.44884701 256.71102092 18.88267 252.33844389 19.34619141 247.96777344 C19.6105074 245.49336662 19.88454582 243.01997433 20.16943359 240.54785156 C21.95355614 226.53941589 21.95355614 226.53941589 17.375 213.625 C16.63390039 212.23073334 15.89817709 210.83359515 15.16796875 209.43359375 C14.82040527 208.76827637 14.4728418 208.10295898 14.11474609 207.41748047 C10.88129169 200.94886895 9.80567796 195.06254859 10.375 187.88671875 C10.36639062 185.44098098 10.36639062 185.44098098 8.70556641 183.32836914 C6.87815819 179.99888896 6.77665191 177.76589183 6.7109375 173.984375 C6.68 172.74171875 6.6490625 171.4990625 6.6171875 170.21875 C6.59914063 168.9296875 6.58109375 167.640625 6.5625 166.3125 C6.51175318 163.74471076 6.45727871 161.17699151 6.3984375 158.609375 C6.38087402 157.47338867 6.36331055 156.33740234 6.34521484 155.16699219 C6.48075776 152.6347333 6.48075776 152.6347333 5.1875 151.5625 C5.12466449 150.00905609 5.12812634 148.45282175 5.16015625 146.8984375 C5.17852539 145.46177734 5.17852539 145.46177734 5.19726562 143.99609375 C5.23201914 141.98038985 5.27098081 139.96475346 5.31445312 137.94921875 C5.32541016 136.98371094 5.33636719 136.01820313 5.34765625 135.0234375 C5.36449463 134.14478027 5.38133301 133.26612305 5.39868164 132.36083984 C5.29281344 129.47594033 5.29281344 129.47594033 4.1940918 126.52514648 C2.52807362 121.05824808 2.90249381 115.36033464 2.921875 109.69921875 C2.91996155 108.47088821 2.9180481 107.24255768 2.91607666 105.977005 C2.91471957 103.39083653 2.91838264 100.80466113 2.92675781 98.21850586 C2.93750967 94.24642831 2.92682257 90.27479834 2.9140625 86.30273438 C2.91538328 83.7890615 2.91794398 81.2753889 2.921875 78.76171875 C2.91782654 77.56906906 2.91377808 76.37641937 2.90960693 75.14762878 C2.91591125 74.04921158 2.92221558 72.95079437 2.92871094 71.8190918 C2.93030212 70.84981247 2.93189331 69.88053314 2.93353271 68.88188171 C3.1875 66.5625 3.1875 66.5625 5.1875 64.5625 C5.52521476 62.26969672 5.52521476 62.26969672 5.53125 59.625 C5.56089844 58.64789063 5.59054687 57.67078125 5.62109375 56.6640625 C5.64300781 55.64054687 5.66492188 54.61703125 5.6875 53.5625 C5.73077166 51.54145878 5.78243969 49.52057444 5.84375 47.5 C5.86244141 46.60152344 5.88113281 45.70304687 5.90039062 44.77734375 C6.1875 42.5625 6.1875 42.5625 8.1875 40.5625 C9.42681563 35.50475244 9.85556528 30.53923796 8.1875 25.5625 C4.28279735 19.63437542 -1.40407334 15.07364228 -6.8125 10.5625 C-8.10639498 9.48052378 -9.39818332 8.39602157 -10.6875 7.30859375 C-11.24308594 6.84767334 -11.79867187 6.38675293 -12.37109375 5.91186523 C-14.35257125 4.056915 -15.6054164 1.9766672 -16.8125 -0.4375 C-2.75704652 -2.1866231 -2.75704652 -2.1866231 0 0 Z M36.1875 80.5625 C36.10222609 82.82407895 36.09005693 85.08842895 36.10546875 87.3515625 C36.10967331 88.06027496 36.11387787 88.76898743 36.11820984 89.49917603 C36.13495237 91.85371914 36.16050732 94.20805326 36.1875 96.5625 C36.19541565 97.36667358 36.2033313 98.17084717 36.21148682 98.99938965 C36.26386443 104.10361936 36.34543931 109.2066348 36.44995117 114.31005859 C36.48351983 116.07233103 36.51144791 117.8347193 36.53393555 119.59716797 C36.6698599 133.34929959 36.6698599 133.34929959 40.1875 146.5625 C41.8125 152.125 41.8125 152.125 42.5390625 154.62890625 C43.0220932 156.5456224 43.0220932 156.5456224 44.1875 157.5625 C44.27916739 159.17547307 44.30049694 160.79248667 44.29429626 162.40805054 C44.29278061 163.45685898 44.29126495 164.50566742 44.28970337 165.58625793 C44.282966 166.74679184 44.27622864 167.90732574 44.26928711 169.10302734 C44.26622055 170.31755081 44.26315399 171.53207428 44.25999451 172.78340149 C44.25281932 175.43097378 44.24386091 178.07847498 44.23209953 180.72602463 C44.21385619 184.91073633 44.20422076 189.09543976 44.19618225 193.28018188 C44.17199351 205.18194152 44.13615285 217.08365151 44.09155273 228.98535156 C44.06701323 235.55415635 44.04964551 242.12294154 44.03999335 248.69178545 C44.03344256 252.85323392 44.01786677 257.01452154 43.99567592 261.17591453 C43.9812072 264.37165809 43.97976656 267.56741201 43.97631836 270.76318359 C43.96317596 272.49791176 43.96317596 272.49791176 43.94976807 274.26768494 C43.95107224 275.32213303 43.9523764 276.37658112 43.95372009 277.46298218 C43.95057769 278.38071096 43.94743528 279.29843975 43.94419765 280.2439785 C44.0346915 282.83685702 44.0346915 282.83685702 46.1875 285.5625 C52.28200571 277.33491729 55.80919079 269.38599652 57.0625 259.1875 C57.66110454 254.419558 58.79184744 251.25238196 61.20703125 247.12890625 C65.91413171 237.23835804 65.04195166 226.61544784 65 215.875 C65.01431376 212.73397937 65.03695807 209.59308668 65.05978394 206.45211792 C65.0745339 204.40422047 65.08703077 202.35630546 65.09719849 200.30838013 C65.13603058 194.02506644 65.26340945 187.75649694 65.57421875 181.48046875 C65.60441605 180.77416824 65.63461334 180.06786774 65.66572571 179.34016418 C66.28817465 168.38743924 66.28817465 168.38743924 69.68359375 165.125 C72.19248742 162.51835723 72.50651853 159.00148423 73.25 155.5625 C74.93999833 147.9337525 74.93999833 147.9337525 77.1875 144.5625 C77.86234024 141.26469579 77.99530433 137.91921972 78.1875 134.5625 C78.25324219 133.54285156 78.31898438 132.52320313 78.38671875 131.47265625 C78.64096571 124.2397687 77.56213287 118.3853335 75.17578125 111.5625 C74.30356203 108.91481478 73.85784256 106.56073087 73.5 103.8125 C72.49969615 98.72684302 69.05904639 96.01482963 65.28125 92.703125 C63.0319714 90.40348941 62.28834484 88.54125664 61.1875 85.5625 C58.88269712 83.86277975 58.88269712 83.86277975 56.1875 82.5625 C55.45660156 82.04429687 54.72570312 81.52609375 53.97265625 80.9921875 C50.44065187 79.17912494 47.88662451 79.22988233 43.9375 79.3125 C42.07351563 79.33570313 42.07351563 79.33570313 40.171875 79.359375 C37.30486749 79.22597985 37.30486749 79.22597985 36.1875 80.5625 Z " fill="#009AE4" transform="translate(779.8125,337.4375)"/>
<path d="M0 0 C3.49462019 0.49923146 4.59756767 0.94756836 7.0625 3.4375 C7.84818684 6.00116705 8.43583339 8.38390826 8.9375 11 C10.4735237 18.0423589 12.84673742 23.52338735 17.0625 29.4375 C19.54101856 33.15527784 19.54314292 36.36752011 19.875 40.6875 C20.80803804 50.59618509 23.66946265 59.18839549 27.21777344 68.4543457 C30.73249171 77.8983163 33.0319584 87.3265769 35.12011719 97.1628418 C35.54225876 99.13528643 35.97795879 101.10481405 36.4140625 103.07421875 C36.65979004 104.22623779 36.90551758 105.37825684 37.15869141 106.56518555 C38.07893174 109.48972025 38.84877814 110.45141021 41.0625 112.4375 C41.50390625 115.25 41.50390625 115.25 41.625 118.4375 C41.78708072 123.24209005 41.78708072 123.24209005 44.0625 127.4375 C44.0625 129.10416667 44.0625 130.77083333 44.0625 132.4375 C44.7225 133.0975 45.3825 133.7575 46.0625 134.4375 C46.33374023 137.39233398 46.33374023 137.39233398 46.37109375 141.18359375 C46.39634145 142.59440361 46.4217376 144.00521081 46.44726562 145.41601562 C46.47546885 147.61562632 46.49947454 149.81518614 46.51879883 152.01489258 C46.60486615 160.22722876 47.06480416 168.07160982 48.55078125 176.15625 C50.68057924 188.19691185 50.72936664 200.30544042 50.78320312 212.50463867 C50.81228383 216.47051935 50.90562948 220.43169361 51 224.39648438 C51.25088536 244.72056859 47.65748003 262.96329069 37.0226593 280.52700806 C35.51982873 283.51728862 35.72062285 286.09518877 36 289.375 C36.25317413 296.11666549 34.91543123 300.43285083 32.0625 306.4375 C28.87525438 313.81387178 28.87525438 313.81387178 28 321.6875 C28.0625 325.4375 28.0625 325.4375 26.5625 328.875 C25.10652449 332.33294184 24.96612198 333.55964877 25.1875 337.125 C25.31709801 341.12889635 25.31709801 341.12889635 23 343.9375 C19.64778374 345.64927001 16.77498949 345.98273097 13.0625 346.4375 C13.11470703 344.91382813 13.11470703 344.91382813 13.16796875 343.359375 C13.43271833 332.34874919 11.80077894 323.35762159 8.11474609 312.92236328 C7.89125488 312.2879834 7.66776367 311.65360352 7.4375 311 C7.21143066 310.3694873 6.98536133 309.73897461 6.75244141 309.08935547 C5.29140603 304.7944628 4.81797573 301.01777131 4.75 296.5 C4.55798494 291.59761553 3.808007 289.47007655 0.25 286.0625 C-0.46800781 285.44632813 -1.18601562 284.83015625 -1.92578125 284.1953125 C-5.97197879 280.65980009 -7.62844534 276.98277329 -8.6875 271.6875 C-8.43336166 266.59495857 -5.142604 263.30823542 -2.109375 259.44140625 C2.66595377 252.83667995 6.57398833 244.47546301 8.0625 236.4375 C8.26101563 235.59703125 8.45953125 234.7565625 8.6640625 233.890625 C9.12751022 230.6010549 9.14742495 228.59445374 8.0625 225.4375 C4.37589471 222.0811975 0.35941573 219.78255757 -4.03027344 217.45751953 C-6.85184555 215.94849133 -9.5720062 214.27560432 -12.3125 212.625 C-16.77814011 210.05097152 -21.29265745 207.67059738 -25.9375 205.4375 C-25.628125 206.675 -25.31875 207.9125 -25 209.1875 C-24.08633343 213.06904991 -23.87709871 216.64472542 -23.8125 220.625 C-23.59100515 224.16439727 -23.45588158 225.84647897 -21.09765625 228.53515625 C-19.10209398 230.01867618 -17.14238247 231.29236742 -14.9375 232.4375 C-15.47494483 237.00578107 -16.89683878 239.97743723 -19.9375 243.4375 C-22.8389207 244.1445111 -25.60235254 243.91256906 -28.5625 243.6875 C-39.8118643 243.03591842 -48.90291347 245.54950002 -59.375 249.5625 C-61.30954798 250.29862162 -63.24568079 251.03059568 -65.18359375 251.7578125 C-66.02591553 252.08023926 -66.8682373 252.40266602 -67.73608398 252.73486328 C-69.9375 253.4375 -69.9375 253.4375 -72.9375 253.4375 C-73.66710862 251.8848205 -74.37042641 250.31976957 -75.0625 248.75 C-75.45695313 247.87988281 -75.85140625 247.00976562 -76.2578125 246.11328125 C-77.12238306 242.70965575 -76.62801199 241.48138484 -74.9375 238.4375 C-73.6283558 236.79638467 -72.27080842 235.19306789 -70.875 233.625 C-67.0061314 228.95735242 -66.33873784 226.35575809 -65.9375 220.4375 C-63.53675412 216.57915841 -60.93307089 214.54627353 -56.9375 212.4375 C-57.5975 211.7775 -58.2575 211.1175 -58.9375 210.4375 C-58.94921875 208.37109375 -58.94921875 208.37109375 -58.625 205.875 C-58.51800781 204.9778125 -58.41101563 204.080625 -58.30078125 203.15625 C-58.07518456 201.46791351 -57.84438994 199.78025249 -57.60546875 198.09375 C-57.07757873 194.0958629 -56.96404047 190.74246262 -57.625 186.75 C-58.28714038 182.06656802 -56.55933989 180.33053499 -53.9375 176.4375 C-53.72388144 173.84894568 -53.81291911 171.36627731 -53.9375 168.7734375 C-53.9375 165.97352842 -53.01947768 163.98787595 -51.9375 161.4375 C-52.5975 160.4475 -53.2575 159.4575 -53.9375 158.4375 C-54.27760428 155.04380871 -54.0266319 151.65355289 -53.875 148.25 C-53.86017578 147.32896484 -53.84535156 146.40792969 -53.83007812 145.45898438 C-53.58677804 139.64864835 -52.56556446 135.86925553 -49.12036133 131.14916992 C-46.45340991 127.28993434 -45.94630106 122.80563909 -45.5 118.25 C-44.9375 114.4375 -44.9375 114.4375 -43.48828125 112.7890625 C-41.08796712 109.14929145 -41.04711784 105.26970492 -40.5625 101 C-39.40333944 92.14939283 -38.03541757 82.54784426 -32.27734375 75.3671875 C-30.27555057 72.48413843 -30.88355905 70.21873821 -31.22265625 66.8515625 C-30.81127723 63.36892916 -28.90969246 61.30935091 -26.9375 58.4375 C-25.87081318 55.94145283 -24.87226358 53.47985148 -23.9375 50.9375 C-22.53461936 47.12197299 -21.12582223 43.70770147 -18.78125 40.34375 C-16.70476997 37.07065436 -16.47736246 35.26429658 -16.4375 31.4375 C-16.15297656 26.10433968 -15.56420169 23.37506184 -11.9375 19.4375 C-11.25429688 19.19 -10.57109375 18.9425 -9.8671875 18.6875 C-7.61234942 17.53863883 -7.61234942 17.53863883 -7.21484375 14.5390625 C-7.04662109 12.81816406 -7.04662109 12.81816406 -6.875 11.0625 C-5.85129605 0.87146962 -5.85129605 0.87146962 0 0 Z M-6.9375 118.4375 C-7.11925781 119.16195312 -7.30101562 119.88640625 -7.48828125 120.6328125 C-8.8609872 125.91245076 -10.33761464 130.60914147 -12.9375 135.4375 C-12.9375 136.0975 -12.9375 136.7575 -12.9375 137.4375 C-13.9275 137.7675 -14.9175 138.0975 -15.9375 138.4375 C-15.98648438 139.15035156 -16.03546875 139.86320312 -16.0859375 140.59765625 C-16.42194758 144.9020612 -16.76194611 148.84887812 -18 153 C-20.39459381 161.78017732 -18.65949328 171.48994044 -17.9375 180.4375 C-17.19628906 180.4890625 -16.45507812 180.540625 -15.69140625 180.59375 C-6.5401644 181.57944068 0.54743139 184.65408208 8.703125 188.7578125 C11.58558863 190.5120356 11.58558863 190.5120356 13.0625 190.4375 C13.16311885 184.80400514 13.23477273 179.17105922 13.28222656 173.53686523 C13.30205616 171.62954575 13.32912835 169.72228459 13.36425781 167.81518555 C13.5472848 157.60604771 13.32596668 147.77594945 11.296875 137.73828125 C11.14091858 136.94294479 10.98496216 136.14760834 10.82427979 135.32817078 C10.07970993 132.0524639 9.48137455 129.84718692 7.04785156 127.46704102 C5.07010357 126.44144297 3.19428659 125.70370143 1.0625 125.0625 C-2.81527621 123.70961912 -4.67087001 121.9318879 -6.9375 118.4375 Z " fill="#009AE4" transform="translate(621.9375,341.5625)"/>
<path d="M0 0 C3.625 -0.1875 3.625 -0.1875 7 0 C7.33 0.66 7.66 1.32 8 2 C8.64549805 2.00410889 9.29099609 2.00821777 9.95605469 2.01245117 C12.88829328 2.04540063 15.81845757 2.11604365 18.75 2.1875 C19.76578125 2.19330078 20.7815625 2.19910156 21.828125 2.20507812 C24.63807311 2.28826738 27.24909169 2.41563075 30 3 C32.265625 5.48828125 32.265625 5.48828125 34 8 C35.13953125 8.15726562 36.2790625 8.31453125 37.453125 8.4765625 C41 9 41 9 43.546875 11.3984375 C44.27390625 12.38070313 45.0009375 13.36296875 45.75 14.375 C48.40928351 18.09071813 48.40928351 18.09071813 51.58959961 21.31738281 C53.58815005 23.70166698 53.46211077 25.50475087 53.58203125 28.5859375 C53.62650391 29.68164062 53.67097656 30.77734375 53.71679688 31.90625 C53.74837891 33.0509375 53.77996094 34.195625 53.8125 35.375 C53.88887695 37.08042969 53.88887695 37.08042969 53.96679688 38.8203125 C54.18553711 45.13782722 53.84324826 49.31350349 51 55 C51.81597656 55.66644531 52.63195312 56.33289063 53.47265625 57.01953125 C56.68996977 60.81367378 56.58639005 62.78373404 56.4375 67.6875 C56.42879883 68.70166992 56.42879883 68.70166992 56.41992188 69.73632812 C56.29635682 74.70364318 56.29635682 74.70364318 54 77 C53.67248878 79.47132187 53.67248878 79.47132187 53.69360352 82.38012695 C53.67761612 83.50502029 53.66162872 84.62991364 53.64515686 85.78889465 C53.63979416 87.00969223 53.63443146 88.23048981 53.62890625 89.48828125 C53.61987778 90.73876755 53.6108493 91.98925385 53.60154724 93.27763367 C53.58701409 95.92831813 53.5773554 98.57857073 53.57446289 101.22924805 C53.56908665 104.61912181 53.53144692 108.0077995 53.48571873 111.39733601 C53.44873769 114.6359133 53.44743072 117.87452118 53.44140625 121.11328125 C53.42187393 122.32800613 53.40234161 123.54273102 53.38221741 124.79426575 C53.27229085 131.45752816 53.27229085 131.45752816 56.47241211 137.05541992 C57.30651611 137.69713135 58.14062012 138.33884277 59 139 C59.94536177 141.71449408 60.12612225 144.22879724 60.12939453 147.08740234 C60.13254669 147.88278412 60.13569885 148.67816589 60.13894653 149.49765015 C60.13591019 150.77885239 60.13591019 150.77885239 60.1328125 152.0859375 C60.13376923 152.97930817 60.13472595 153.87267883 60.13571167 154.79312134 C60.13639202 156.6877652 60.13454785 158.5824114 60.13037109 160.47705078 C60.12508376 163.32980838 60.13028806 166.18240395 60.13671875 169.03515625 C60.15312446 196.82096514 60.15312446 196.82096514 56 205 C55.65201587 207.17498449 55.65201587 207.17498449 55.85546875 209.234375 C55.90123047 209.97300781 55.94699219 210.71164062 55.99414062 211.47265625 C56.08985352 212.59994141 56.08985352 212.59994141 56.1875 213.75 C56.23197266 214.51699219 56.27644531 215.28398438 56.32226562 216.07421875 C56.51731435 220.50514681 56.51731435 220.50514681 59 224 C59.25272295 226.67416144 59.37026558 229.20005242 59.375 231.875 C59.39949219 232.59558594 59.42398438 233.31617188 59.44921875 234.05859375 C59.46908146 237.65374502 59.35956631 239.56552404 57.03125 242.37890625 C56.3609375 242.91386719 55.690625 243.44882812 55 244 C54.02266343 245.98775876 54.02266343 245.98775876 54 248 C54.66 248.99 55.32 249.98 56 251 C56.25 254.5625 56.25 254.5625 56 258 C55.34 258.66 54.68 259.32 54 260 C53.89831235 262.74556655 54.06926677 265.43347656 54.22265625 268.17578125 C54 271 54 271 52.5 273.31640625 C50.37504873 277.11807688 50.74455572 280.35838318 50.9375 284.625 C51.25478278 292.61782583 51.25478278 292.61782583 49 296 C49.27034634 298.43717258 49.27034634 298.43717258 50 301 C50.33 302.65 50.66 304.3 51 306 C57.6 306 64.2 306 71 306 C71.66 304.68 72.32 303.36 73 302 C75.36109207 299.86026031 77.06221766 299.01291267 80.26953125 298.96875 C84.27475762 299.3132856 87.93378086 299.98154549 91.8125 301.0625 C98.54831644 302.87335085 106.09835419 303.10062427 112.625 300.625 C113.800625 299.820625 113.800625 299.820625 115 299 C135.98627432 285.00915045 186.99552753 295.23798982 212 296 C211.98428955 296.99330322 211.9685791 297.98660645 211.95239258 299.01000977 C211.89779801 302.72053818 211.86354344 306.43103158 211.83520508 310.1418457 C211.82018534 311.74314356 211.79976337 313.34440075 211.77368164 314.94555664 C211.73699562 317.25677571 211.72020565 319.56744756 211.70703125 321.87890625 C211.68380547 322.9402755 211.68380547 322.9402755 211.66011047 324.02308655 C211.65801264 330.32025612 213.48283641 334.47139402 216.6875 339.8125 C218 342 218 342 218 344 C212.48243524 344.0493521 206.96499829 344.08569662 201.44726562 344.10986328 C199.56931318 344.11993534 197.69137647 344.13359362 195.81347656 344.15087891 C193.1177991 344.17507453 190.42232854 344.18647083 187.7265625 344.1953125 C186.88380768 344.20563507 186.04105286 344.21595764 185.17276001 344.22659302 C183.11378753 344.22699144 181.05532065 344.12257588 179 344 C178.34 343.34 177.68 342.68 177 342 C174.8625599 341.61405508 174.8625599 341.61405508 172.5 341.5 C168.22222222 341.22222222 168.22222222 341.22222222 166 339 C164.00827818 338.30899447 162.00838196 337.64097297 160 337 C159.67 336.67 159.34 336.34 159 336 C156.90210702 335.87800532 154.80042472 335.82022536 152.69921875 335.7890625 C151.41208984 335.76070312 150.12496094 335.73234375 148.79882812 335.703125 C146.74487799 335.66192337 144.69115936 335.62504705 142.63696289 335.59863281 C140.65749008 335.57095789 138.67831682 335.52398971 136.69921875 335.4765625 C135.51158936 335.45674316 134.32395996 335.43692383 133.1003418 335.41650391 C130 335 130 335 128.21780396 333.49702454 C125.18815829 331.45200433 123.05171592 331.62813425 119.41479492 331.63110352 C118.76221207 331.62733704 118.10962921 331.62357056 117.43727112 331.61968994 C116.02409995 331.61326842 114.61088558 331.61357727 113.19771385 331.61987495 C110.95624961 331.6290049 108.71561851 331.61873957 106.47419739 331.60325623 C100.10317254 331.56321567 93.73221375 331.56194875 87.36108398 331.56420898 C83.45945329 331.56426025 79.55827078 331.5450087 75.65676308 331.51487541 C73.45692524 331.50409712 71.25796047 331.51615347 69.05815125 331.52870178 C61.95257117 331.5087221 56.81744659 331.32871127 51 327 C46.62048055 325.96873701 42.68879782 326.19554818 38.60546875 328.140625 C36.28158311 329.64501434 34.14338616 331.24884162 32 333 C31.31292969 333.54914063 30.62585938 334.09828125 29.91796875 334.6640625 C26.45956549 337.41959893 26.45956549 337.41959893 24 341 C22.73285156 340.91621094 21.46570313 340.83242188 20.16015625 340.74609375 C18.46096185 340.64282779 16.76174163 340.53998591 15.0625 340.4375 C14.23169922 340.38142578 13.40089844 340.32535156 12.54492188 340.26757812 C7.51560767 339.97403839 2.84592508 340.11580675 -2.13476562 340.90625 C-4 341 -4 341 -6.5625 339.5625 C-7.036875 339.046875 -7.51125 338.53125 -8 338 C-5.77656184 331.51497204 -2.27652838 327.85458426 3.5625 324.375 C8.27543959 321.74982134 8.27543959 321.74982134 12 318 C12.50695217 314.90653605 12.50695217 314.90653605 12.5625 311.5 C12.79248658 305.31127013 12.79248658 305.31127013 15 302 C14.34 301.34 13.68 300.68 13 300 C12.42785064 296.76273432 12.39337736 293.46899149 12.25 290.1875 C12.19457031 289.28451172 12.13914062 288.38152344 12.08203125 287.45117188 C11.67925283 279.14539259 11.67925283 279.14539259 14 275 C14.33 274.67 14.66 274.34 15 274 C15.28484531 271.51777659 15.44806553 269.03531145 15.62109375 266.54296875 C16 264 16 264 17.11328125 261.83984375 C17.40589844 261.23269531 17.69851563 260.62554688 18 260 C16.64520503 257.15493056 15.22568901 255.22568901 13 253 C12.82460564 250.05903263 12.76867625 247.21346651 12.8046875 244.2734375 C12.8075174 243.41062164 12.81034729 242.54780579 12.81326294 241.65884399 C12.82447667 238.8974228 12.84958316 236.1363235 12.875 233.375 C12.88502827 231.50521301 12.89415438 229.63542095 12.90234375 227.765625 C12.92441988 223.17695891 12.95895766 218.58853407 13 214 C13.66 213.67 14.32 213.34 15 213 C14.96519531 211.68644531 14.93039062 210.37289062 14.89453125 209.01953125 C14.86638534 207.28386699 14.83908604 205.54818885 14.8125 203.8125 C14.78736328 202.94818359 14.76222656 202.08386719 14.73632812 201.19335938 C14.72666016 200.35224609 14.71699219 199.51113281 14.70703125 198.64453125 C14.6913208 197.87471924 14.67561035 197.10490723 14.65942383 196.31176758 C15 194 15 194 16.5065918 191.61206055 C18.37183822 188.34963264 18.30407899 186.29734527 18.1875 182.5625 C18.16429687 181.33789062 18.14109375 180.11328125 18.1171875 178.8515625 C18.07851563 177.58054687 18.03984375 176.30953125 18 175 C17.92331313 172.47955836 17.86026926 169.9586555 17.8125 167.4375 C17.77769531 166.32246094 17.74289062 165.20742188 17.70703125 164.05859375 C18.03802069 160.60306401 19.15392363 158.88418828 21 156 C20.87062278 152.16098369 20.87062278 152.16098369 19 149 C18.86428864 145.93418307 18.78932089 142.88777044 18.75390625 139.8203125 C18.72096728 137.92317248 18.68775564 136.02603718 18.65429688 134.12890625 C18.60685442 131.12454492 18.56243734 128.12020268 18.52319336 125.11572266 C18.48353129 122.22537938 18.43196937 119.3354364 18.37890625 116.4453125 C18.3704921 115.54523468 18.36207794 114.64515686 18.35340881 113.71780396 C18.33676682 112.88038666 18.32012482 112.04296936 18.30297852 111.18017578 C18.29267105 110.44372833 18.28236359 109.70728088 18.27174377 108.94851685 C18.09888099 106.67766054 18.09888099 106.67766054 16 104 C15.53566886 100.0360168 15.62966737 96.05076456 15.625 92.0625 C15.60050781 90.96486328 15.57601563 89.86722656 15.55078125 88.73632812 C15.54498047 87.15174805 15.54498047 87.15174805 15.5390625 85.53515625 C15.53084473 84.569729 15.52262695 83.60430176 15.51416016 82.60961914 C16.13226776 79.28954266 17.53105538 78.2147622 20 76 C21.65874789 70.47084038 21.66908474 63.71908149 21 58 C20.0419747 56.63619455 19.04841849 55.29560659 18 54 C18.6875 51.625 18.6875 51.625 20 49 C23.75206537 39.61983657 21.69665255 32.97758476 18 24 C16.989375 24.020625 15.97875 24.04125 14.9375 24.0625 C12.17251602 23.68419233 11.17823681 23.18646313 9.22265625 21.140625 C8.05545931 19.56318877 6.90746429 17.97139488 5.77734375 16.3671875 C3.24483167 12.99421537 0.29075583 10.61917301 -3 8 C-2.45276317 4.62537285 -1.9451 2.91765 0 0 Z " fill="#009AE4" transform="translate(265,342)"/>
<path d="M0 0 C12.30007173 -0.06949668 24.60009678 -0.12280969 36.90032482 -0.15543652 C42.61176168 -0.17109539 48.32306425 -0.19233796 54.03442383 -0.22631836 C59.54573703 -0.25890352 65.05692104 -0.27685134 70.56832314 -0.28463173 C72.6714818 -0.29017672 74.77463335 -0.30100466 76.87773705 -0.31719017 C79.82253705 -0.33895298 82.76680249 -0.34196737 85.71166992 -0.34057617 C86.5820137 -0.351362 87.45235748 -0.36214783 88.34907532 -0.3732605 C93.01394248 -0.34939861 96.27027997 -0.14148977 100 3 C101.12312532 8.41789328 98.60241475 12.53698962 96.125 17.1875 C95.76019531 17.89841797 95.39539063 18.60933594 95.01953125 19.34179688 C93.4628204 22.3504944 91.88293538 25.17559693 90 28 C89.69010687 30.53952971 89.69010687 30.53952971 89.625 33.3125 C89.25860801 38.26533461 88.28589761 41.13423811 85 45 C84.46890625 45.43570313 83.9378125 45.87140625 83.390625 46.3203125 C81.00715031 49.19922856 81.63133057 52.60900139 81.6015625 56.2109375 C81 59 81 59 78.58984375 61.1875 C74.84900749 65.24994662 74.66816548 69.27638475 73.9375 74.625 C73.09687272 80.45710314 72.19733498 85.76633278 69.9140625 91.22265625 C67.20586888 98.24329599 67.43137495 105.40206366 67.4375 112.8125 C67.43387037 114.8884089 67.42418161 116.96349249 67.39674377 119.03923035 C67.37253075 120.90858816 67.37002868 122.7781908 67.36889648 124.64770508 C66.95843621 128.37770513 65.80173003 130.7374463 64 134 C62.90850025 137.79215907 61.98946012 141.60610875 61.0625 145.44140625 C60 149 60 149 58.390625 151.6015625 C56.28472469 155.23364899 56.73170085 158.65812862 56.796875 162.76953125 C55.89980758 166.40617222 55.14880507 166.90423972 52.484375 169.3359375 C47.36195953 174.81577621 48.26122547 181.4487284 48.44458008 188.47607422 C48.7265262 200.36252541 48.5057195 210.69178301 43.5144043 221.66723633 C40.71249435 227.96735014 40.38570941 233.58020511 40.27246094 240.41723633 C40.0754679 249.5976915 37.22924047 256.33579511 32.171875 263.890625 C29.26855236 269.11660576 28 275.07287771 28 281 C29.916588 281.02712153 31.8332873 281.04645097 33.75 281.0625 C34.81734375 281.07410156 35.8846875 281.08570313 36.984375 281.09765625 C40.60970819 281.0432857 40.60970819 281.0432857 44 280 C44.88411083 278.03845602 44.88411083 278.03845602 45.3125 275.6875 C46.41621608 272.01038273 46.75200722 271.18995191 49.9375 268.75 C51.27313566 268.12540211 52.6306578 267.54676052 54 267 C72.61996609 260.36767933 72.61996609 260.36767933 86 247 C89.875 248.875 89.875 248.875 91 250 C92.91741255 249.96765102 94.8342638 249.89894176 96.75 249.8125 C100.64262597 249.79398573 102.6534218 249.83010872 106.1875 251.5625 C108.57070922 254.76750551 108.92911018 257.03017002 109 261 C108.33333333 262.33333333 107.66666667 263.66666667 107 265 C107.40170032 269.66029854 107.40170032 269.66029854 109 274 C109.23432625 278.08615281 109.22839964 282.17400386 109.24023438 286.26635742 C109.24991423 288.29452939 109.28092532 290.32167642 109.3125 292.34960938 C109.32023438 294.27450195 109.32023438 294.27450195 109.328125 296.23828125 C109.3374707 297.41430908 109.34681641 298.59033691 109.35644531 299.80200195 C108.94070368 303.53200173 108.64649714 305.29631677 106 308 C102.86460921 308.72287372 99.79378728 308.62836474 96.58984375 308.55859375 C95.66659805 308.55626236 94.74335236 308.55393097 93.79212952 308.55152893 C91.84106198 308.54178684 89.89002296 308.51998907 87.93920898 308.48706055 C84.94537726 308.43763006 81.95318735 308.42558013 78.95898438 308.41992188 C77.0650866 308.40583709 75.17120315 308.38963312 73.27734375 308.37109375 C72.37837875 308.36573105 71.47941376 308.36036835 70.5532074 308.35484314 C69.30665123 308.33086205 69.30665123 308.33086205 68.03491211 308.30639648 C67.30227646 308.29575668 66.56964081 308.28511688 65.81480408 308.27415466 C64 308 64 308 62 306 C57.81845319 304.77013329 53.30920762 304.2395516 49 305 C46.9877502 306.10813756 45.30549963 307.33912026 43.54296875 308.80859375 C40.47907288 311.17438677 37.48598138 311.1311948 33.7734375 311.17578125 C32.74089844 311.19962891 31.70835937 311.22347656 30.64453125 311.24804688 C28.48847371 311.2905498 26.33216727 311.32204975 24.17578125 311.34179688 C18.02988584 311.5055351 13.38288909 312.20599333 7.93041992 315.12475586 C4.86624825 316.5140382 2.31077567 316.28176814 -1 316 C-3.55427154 311.51048168 -3.33155593 307.55363331 -3.3125 302.5 C-3.32861328 301.64535156 -3.34472656 300.79070312 -3.36132812 299.91015625 C-3.36501016 295.18979064 -3.23734877 292.64094397 0 289 C0.17696832 286.99629002 0.17696832 286.99629002 -0.125 285 C-0.22265625 282.8984375 -0.22265625 282.8984375 0 281 C2.4375 278.625 2.4375 278.625 5 277 C6.45655196 274.08689608 5.92167283 271.39574735 5.7421875 268.19140625 C6 266 6 266 7.50390625 264.5234375 C9.24076748 263.07477354 9.24076748 263.07477354 9.22265625 260.66015625 C9.16980469 259.80292969 9.11695313 258.94570313 9.0625 258.0625 C8.84206866 254.31516728 9.162266 252.26937697 11 249 C13.07268407 239.88019011 12.26682516 230.83462561 8.4375 222.3125 C5.87609865 216.41014036 5.81776598 210.57970481 5.8125 204.25 C5.80025391 203.52167969 5.78800781 202.79335938 5.77539062 202.04296875 C5.76865593 199.35358211 5.86834253 196.68644935 6 194 C6.0628418 192.70553955 6.12568359 191.4110791 6.19042969 190.07739258 C7.06198781 177.52700888 10.94561975 166.77979602 15.625 155.1875 C16.68877931 152.50946938 17.74613723 149.82918966 18.79452515 147.14509583 C19.44113664 145.493924 20.09723882 143.84642654 20.76431274 142.20341492 C22.91172198 136.78582844 22.91172198 136.78582844 23 131 C22.67 130.67 22.34 130.34 22 130 C22.37943488 125.90210331 22.69305957 123.46041065 25 120 C25.30418749 118.17487505 25.54673093 116.33910108 25.75 114.5 C26.6215911 108.63978989 28.69392371 104.51275098 31.671875 99.453125 C33.72781549 95.65568198 33.94282613 92.12966526 34.05688477 87.88110352 C34.4698166 80.58397594 36.88026402 74.98084235 40.125 68.5 C40.58648438 67.53191406 41.04796875 66.56382812 41.5234375 65.56640625 C44.40728324 59.66402967 47.66569319 54.39102487 51.64477539 49.16162109 C53.57937866 46.07587486 53.35481708 43.54817078 53 40 C54 37.5625 54 37.5625 55 36 C54.67 35.67 54.34 35.34 54 35 C50.72848932 35.05019054 47.46724777 35.19810565 44.19921875 35.35546875 C40.31750787 34.92416754 39.53273336 33.83514929 37 31 C33.89273931 29.72380365 31.69129597 30.01399141 28.5 30.9375 C27.7471875 31.13214844 26.994375 31.32679688 26.21875 31.52734375 C20.79769188 35.12547564 19.71424748 41.74378218 18.47265625 47.73046875 C17.74627617 51.48177409 17.05351418 55.23744685 16.37695312 58.99804688 C16.14041016 60.20912109 15.90386719 61.42019531 15.66015625 62.66796875 C15.46043213 63.76391357 15.26070801 64.8598584 15.05493164 65.98901367 C13.75355332 69.70340821 11.99765531 71.49364213 9 74 C6.25 74.6875 6.25 74.6875 4 75 C3.505 75.99 3.505 75.99 3 77 C0.28878505 76.14382686 -1.55388461 75.54750525 -3.375 73.3125 C-4.2573775 70.04770326 -3.49981426 67.33209505 -3 64 C-3.19501545 62.66124531 -3.42514609 61.32720216 -3.6875 60 C-4.22856163 56.54728993 -4.08425782 56.13083519 -2.04394531 52.96264648 C0.91988822 48.07439626 0.50160975 43.16532786 0.390625 37.59765625 C0.38213531 35.9811039 0.38213531 35.9811039 0.37347412 34.33189392 C0.3511816 30.90830032 0.30099671 27.48577436 0.25 24.0625 C0.22992587 21.73373913 0.2116767 19.40496177 0.1953125 17.07617188 C0.15134022 11.38375369 0.0844991 5.69195314 0 0 Z " fill="#009AE4" transform="translate(496,346)"/>
<path d="M0 0 C27.39 0 54.78 0 83 0 C83 4.62 83 9.24 83 14 C84.09168319 17.39982123 84.09168319 17.39982123 85.32113647 20.75054932 C86.71085114 25.35544335 86.28420918 30.16778556 86.14453125 34.9296875 C86.12283371 36.04183624 86.10113617 37.15398499 86.07878113 38.29983521 C86.02976645 40.63463239 85.97302749 42.96927899 85.90893555 45.30371094 C85.81224053 48.88460892 85.74316165 52.46528294 85.67773438 56.046875 C85.62662247 58.32034956 85.57394356 60.59378954 85.51953125 62.8671875 C85.48808769 64.4749556 85.48808769 64.4749556 85.45600891 66.11520386 C85.42645615 67.10698639 85.39690338 68.09876892 85.36645508 69.12060547 C85.34408279 69.99280731 85.32171051 70.86500916 85.29866028 71.76364136 C85 74 85 74 83 77 C83.01132042 79.04333528 83.10544348 81.08675305 83.25 83.125 C83.35007486 89.16285003 82.29360477 92.01403659 78.6484375 96.703125 C76.16192643 100.16774232 74.77533122 103.94769581 73.23046875 107.90234375 C72.42054247 109.94130103 71.54884585 111.95695513 70.61328125 113.94140625 C67.94070909 119.69241396 66.83451546 123.93618423 66.875 130.3125 C66.765625 133.86328125 66.765625 133.86328125 66 137 C63.38050078 139.44400989 60.77896108 140.91932519 57.61328125 142.578125 C54.79423738 143.89185549 54.79423738 143.89185549 52.8125 146.75 C52.01295873 149.94816508 52.00685694 152.29387536 52.125 155.5625 C52.26263313 160.67557084 52.26263313 160.67557084 49.875 163.625 C48.92625 164.40875 47.9775 165.1925 47 166 C41.74447877 172.54617523 38.7293956 179.91256487 35.75 187.6875 C35.316875 188.78900391 34.88375 189.89050781 34.4375 191.02539062 C30.39025115 201.23479693 30.39025115 201.23479693 28.21484375 211.94921875 C27.09068476 219.67356195 24.44527593 226.59853815 21.5625 233.8125 C21.06582937 235.08220265 20.5703818 236.35238442 20.07617188 237.62304688 C19.13794233 240.02749748 18.19503133 242.43012867 17.24658203 244.83056641 C15.78812839 248.53868337 14.38311706 252.26323968 13 256 C14.56467003 255.40147573 16.12664086 254.79589327 17.6875 254.1875 C18.55761719 253.85105469 19.42773438 253.51460937 20.32421875 253.16796875 C23.03087016 252.07812953 23.03087016 252.07812953 25.3828125 250.421875 C29.63581797 248.11128696 34.16049953 248.1560592 38.91796875 247.72265625 C42.04005524 247.34994364 42.04005524 247.34994364 43.2265625 245.265625 C43.48179687 244.51796875 43.73703125 243.7703125 44 243 C53.70147393 226.28479558 53.70147393 226.28479558 61.75 223.5625 C65.32810776 221.84225588 65.51435823 221.56348501 66.75 218.0625 C67.06517578 217.01255859 67.06517578 217.01255859 67.38671875 215.94140625 C68.15145436 213.5205553 69.24723036 211.82897702 71 210 C71.66 210 72.32 210 73 210 C73.33 210.66 73.66 211.32 74 212 C76.96676187 210.94768703 77.89604626 210.18219261 79.484375 207.3984375 C79.90203125 206.40070313 80.3196875 205.40296875 80.75 204.375 C81.17796875 203.37210938 81.6059375 202.36921875 82.046875 201.3359375 C82.36140625 200.56507813 82.6759375 199.79421875 83 199 C85.97 199 88.94 199 92 199 C92.66 205.27 93.32 211.54 94 218 C92.02 218.99 92.02 218.99 90 220 C86.74483306 225.73277962 86.58701131 232.20696101 86.70703125 238.62890625 C86.71127609 239.50401352 86.71552094 240.37912079 86.71989441 241.28074646 C86.73652019 244.04166072 86.77414034 246.80181105 86.8125 249.5625 C86.82756772 251.44855707 86.84125244 253.33462573 86.85351562 255.22070312 C86.88637063 259.81409083 86.93803865 264.40691647 87 269 C86.28972656 269.34933594 85.57945312 269.69867187 84.84765625 270.05859375 C83.92855469 270.51363281 83.00945312 270.96867187 82.0625 271.4375 C80.68771484 272.11619141 80.68771484 272.11619141 79.28515625 272.80859375 C77.09471096 273.80525394 77.09471096 273.80525394 76 275 C73.55169574 275.08843793 71.13179401 275.11528752 68.68359375 275.09765625 C67.58701195 275.09553383 67.58701195 275.09553383 66.46827698 275.09336853 C64.12464368 275.08775408 61.78110461 275.07519922 59.4375 275.0625 C57.85221492 275.05748686 56.26692834 275.05292363 54.68164062 275.04882812 C50.7877239 275.03777997 46.89387795 275.02050572 43 275 C42.67 274.34 42.34 273.68 42 273 C39.21061788 272.58109782 39.21061788 272.58109782 36 273 C35.175 273.825 34.35 274.65 33.5 275.5 C31 278 31 278 28 278.5 C25 278 25 278 23.0078125 276.5 C17.67339875 273.83972094 11.70573899 274.52550215 5.83984375 274.47265625 C4.39931641 274.43978516 4.39931641 274.43978516 2.9296875 274.40625 C1.61846924 274.39561523 1.61846924 274.39561523 0.28076172 274.38476562 C-2.47416107 273.92000879 -3.36496047 273.23610871 -5 271 C-5.375 268 -5.375 268 -5 265 C-4.49855469 264.60683594 -3.99710937 264.21367188 -3.48046875 263.80859375 C-1.10904987 260.91158335 -1.76856469 257.62289141 -1.9375 254.0625 C-2.2848047 245.85280793 -2.2848047 245.85280793 0 242 C-0.2081539 237.10838332 -1.73595187 234.57992376 -5 231 C-4.62875 230.360625 -4.2575 229.72125 -3.875 229.0625 C-2.8441289 225.45445114 -3.63235934 223.32178545 -4.5390625 219.765625 C-6.30627595 209.16234432 -3.99428037 194.38073539 0.05859375 184.390625 C1.07014401 181.82187496 1.33894396 179.61296491 1.625 176.875 C2.62062039 170.86889977 5.40844522 167.19981985 9.109375 162.48046875 C11.4065375 159.46662951 12.69146281 156.5517438 14 153 C14.75543848 151.01490619 15.52792982 149.03626147 16.3125 147.0625 C16.67988281 146.10472656 17.04726563 145.14695312 17.42578125 144.16015625 C18.78874974 141.4240731 20.04059403 139.70107908 21.97265625 137.40234375 C25.92648004 132.29595391 26.87937393 126.72813033 28.125 120.5 C32.01315541 101.72576386 32.01315541 101.72576386 40 95 C40.66 95 41.32 95 42 95 C42.165 94.195625 42.33 93.39125 42.5 92.5625 C44.05117478 88.87845989 45.26335798 87.75912632 48.125 85.125 C51.07862257 82.01426985 51.96885438 80.66679931 52.171875 76.3203125 C52.08816048 74.96251586 51.9887019 73.60561489 51.875 72.25 C51.40036094 65.79415535 52.32883995 62.19077203 56.5 57.1875 C57.85860094 55.61394751 59.23872554 54.06662594 60.64404297 52.53466797 C62.81774203 50.0744821 64.66358711 47.42777734 66.5625 44.75 C69.90769231 40.09230769 69.90769231 40.09230769 71 39 C71.23701239 36.14122091 71.42219182 33.30116703 71.5625 30.4375 C71.62727539 29.22803711 71.62727539 29.22803711 71.69335938 27.99414062 C71.79975262 25.99631195 71.90040888 23.9981793 72 22 C67.56301373 21.82365998 63.12694427 21.71846198 58.6875 21.625 C57.44419922 21.57472656 56.20089844 21.52445312 54.91992188 21.47265625 C46.19076968 21.33518929 40.09499967 22.78194583 33 28 C29.7997334 31.51248773 28.93556306 34.13182289 28.25 38.6875 C27.828125 41.01953125 27.828125 41.01953125 27 43 C24.97195776 44.26102626 23.19549265 44.82972045 20.875 45.3671875 C18.61357811 45.91773789 18.61357811 45.91773789 17 49 C16.75769277 50.98028692 16.75769277 50.98028692 16.875 53.1328125 C16.89046875 53.93976563 16.9059375 54.74671875 16.921875 55.578125 C16.97324007 57.25262635 17.02530304 58.92710647 17.078125 60.6015625 C17.23389806 68.80561052 16.56463073 76.61704122 11 83 C9.68 83 8.36 83 7 83 C4.7913645 79.68704675 5 78.77546697 5 75 C4.34 74.34 3.68 73.68 3 73 C0.48757598 65.17528961 -0.45397309 58.41157889 1.44140625 50.40625 C2.3767986 46.37686758 2.59998102 42.66148589 1.1875 38.75 C0.08756754 36.94685014 0.08756754 36.94685014 -1.54931641 35.74682617 C-3.60732873 33.26869117 -3.3878809 31.49113742 -3.3984375 28.30078125 C-3.40230469 27.17349609 -3.40617187 26.04621094 -3.41015625 24.88476562 C-3.39855469 23.70591797 -3.38695312 22.52707031 -3.375 21.3125 C-3.38660156 20.15298828 -3.39820313 18.99347656 -3.41015625 17.79882812 C-3.40628906 16.66509766 -3.40242188 15.53136719 -3.3984375 14.36328125 C-3.39336182 12.82087769 -3.39336182 12.82087769 -3.38818359 11.24731445 C-3 8 -3 8 0 0 Z " fill="#009AE4" transform="translate(398,349)"/>
<path d="M0 0 C2.125 0.0234375 2.125 0.0234375 5 0.375 C11.98624788 1.02923057 18.92224898 1.12350379 25.9375 1.125 C27.64123779 1.12826294 27.64123779 1.12826294 29.37939453 1.1315918 C36.4992476 1.10944206 43.41076126 0.77460878 50.4609375 -0.26953125 C53 0 53 0 55.296875 2.2734375 C57 5 57 5 57.875 8.4375 C57 12 57 12 54.86328125 13.640625 C53.09848861 14.66085549 51.30320614 15.63028495 49.48046875 16.54296875 C46.23588295 18.44884356 44.59403212 20.5377671 43.1875 24 C42.81444229 26.04124497 42.81444229 26.04124497 43.9375 27.8125 C45.4831926 30.99480829 45.31148057 33.51141765 45 37 C44.25459961 37.91736938 44.25459961 37.91736938 43.49414062 38.85327148 C41.52469684 41.6828988 41.68061276 43.42625782 41.78125 46.84765625 C41.80832031 48.00152832 41.83539063 49.15540039 41.86328125 50.34423828 C41.90839844 51.55063965 41.95351563 52.75704102 42 54 C42.05220703 55.75739502 42.05220703 55.75739502 42.10546875 57.55029297 C42.259317 62.39982852 42.45298586 67.2475339 42.64453125 72.09570312 C43.06188177 83.23896197 43.25333101 94.31469468 42.49194336 105.4453125 C41.94885495 113.55543275 41.65120939 120.7452617 44.30859375 128.5625 C45.13742863 131.48449415 45.20294384 133.97698236 45 137 C43.5625 138.6875 43.5625 138.6875 42 140 C39.66029308 147.01912076 41.13736846 154.66415046 42 161.875 C42.61106995 167.15982592 43.21866317 172.4316018 43.4375 177.75 C43.49744141 179.07257813 43.49744141 179.07257813 43.55859375 180.421875 C43 183 43 183 40.41015625 185.70703125 C38.65264521 187.65703904 38.03261314 188.59012133 37.82202148 191.23681641 C38.07527503 193.84648492 38.49424526 196.36499563 39 198.9375 C39.14050781 199.80568359 39.28101563 200.67386719 39.42578125 201.56835938 C40.11547921 205.53562201 40.94431374 209.16082457 42.609375 212.8359375 C44.61023692 217.3884604 44.28301185 221.11977124 44 226 C43.95746094 227.04542969 43.91492188 228.09085938 43.87109375 229.16796875 C43.38388164 237.67863136 43.38388164 237.67863136 40 242 C39.46579166 247.52015281 39.60525895 251.40711505 43 256 C46.21153546 258.21465673 49.60126832 260.08953281 53 262 C55.72339602 263.53599535 56.8596185 264.53032904 59 267 C59.77539695 270.67402849 59.98686864 274.2509974 60 278 C59.34773438 277.91621094 58.69546875 277.83242188 58.0234375 277.74609375 C53.05194819 277.16681992 48.94648563 277.0797236 44 278 C42.33157466 277.67558396 40.66519519 277.34060811 39 277 C31.08876738 276.45544097 22.65870498 276.95510648 15 279 C12.7938333 280.97646407 12.7938333 280.97646407 11 283 C7.7397292 283.46575297 5.89438845 283.54817356 3.0625 281.8125 C2 280 2 280 2.16015625 277.71484375 C3.23032039 274.25547596 4.92358924 272.39974496 7.375 269.75 C8.16648437 268.87859375 8.95796875 268.0071875 9.7734375 267.109375 C12 265 12 265 15 264 C15.0501123 262.86981445 15.10022461 261.73962891 15.15185547 260.57519531 C15.34035437 256.37780245 15.54070837 252.18104457 15.74462891 247.984375 C15.83119431 246.16877101 15.91455404 244.3530112 15.99462891 242.53710938 C16.1103599 239.92530382 16.23764997 237.31427772 16.3671875 234.703125 C16.41732498 233.48728729 16.41732498 233.48728729 16.46847534 232.24688721 C16.67417501 228.32535113 17.06628835 225.4212222 19 222 C18.38833864 220.31237071 17.71448246 218.64673526 17 217 C16.734375 214.02734375 16.734375 214.02734375 16.75 210.9375 C16.74484375 209.91527344 16.7396875 208.89304687 16.734375 207.83984375 C17 205 17 205 18.00241089 203.1312952 C19.18859443 200.59707819 19.2414194 198.85015425 19.22705078 196.05943298 C19.22690979 195.06539963 19.2267688 194.07136627 19.22662354 193.04721069 C19.21629089 191.96291779 19.20595825 190.87862488 19.1953125 189.76147461 C19.19239197 188.61478806 19.18947144 187.4681015 19.1864624 186.28666687 C19.17884969 183.79631264 19.16661576 181.30596927 19.15032959 178.81565666 C19.12484574 174.87851167 19.1117827 170.94150109 19.10205078 167.00428772 C19.07986096 158.6486314 19.04078038 150.29308315 19 141.9375 C18.95275176 132.25379266 18.91207018 122.57015011 18.88812256 112.88635445 C18.87511843 109.00023624 18.85010345 105.11431041 18.82470703 101.22825623 C18.81744451 98.85521617 18.81074073 96.48217431 18.8046875 94.10913086 C18.79435486 93.02281372 18.78402222 91.93649658 18.77337646 90.81726074 C18.77323547 89.82604721 18.77309448 88.83483368 18.77294922 87.81358337 C18.768508 86.95137145 18.76406677 86.08915953 18.75949097 85.20081997 C19 83 19 83 21 80 C20.34 80 19.68 80 19 80 C18.96685699 79.32650009 18.93371399 78.65300018 18.89956665 77.95909119 C18.55225737 70.93420041 18.19348585 63.9099609 17.828125 56.88598633 C17.69336072 54.26634367 17.56149613 51.64655013 17.43261719 49.02661133 C17.24660566 45.25558526 17.05009048 41.48522908 16.8515625 37.71484375 C16.79626373 36.54791489 16.74096497 35.38098602 16.68399048 34.17869568 C16.37586343 28.51817537 16.05217301 23.3156467 14 18 C11.9011161 16.33637016 11.9011161 16.33637016 9.375 15.5625 C8.55773437 15.25441406 7.74046875 14.94632812 6.8984375 14.62890625 C6.27195312 14.42136719 5.64546875 14.21382813 5 14 C5 13.34 5 12.68 5 12 C4.2575 11.9175 3.515 11.835 2.75 11.75 C-0.51221354 10.8603054 -1.80954878 9.51496251 -4 7 C-2.92598892 4.08482708 -2.22189824 2.22189824 0 0 Z " fill="#009AE4" transform="translate(327,349)"/>
</svg>
