<?xml version="1.0" encoding="UTF-8"?>
<svg version="1.1" xmlns="http://www.w3.org/2000/svg" width="256" height="256">
<path d="M0 0 C0 4.29 0 8.58 0 13 C-7.92 14.485 -7.92 14.485 -16 16 C-16.98890763 19.95563054 -17.32907867 23.70635717 -17.5625 27.75 C-17.706875 30.1425 -17.85125 32.535 -18 35 C-11.73 34.67 -5.46 34.34 1 34 C1.33 22.78 1.66 11.56 2 0 C6.29 0 10.58 0 15 0 C15.79139059 3.95695297 16.11797482 6.9949101 16.09765625 10.95703125 C16.09443359 12.06884766 16.09121094 13.18066406 16.08789062 14.32617188 C16.07532227 16.0519043 16.07532227 16.0519043 16.0625 17.8125 C16.05798828 18.98232422 16.05347656 20.15214844 16.04882812 21.35742188 C16.0370693 24.23833358 16.02063426 27.11914044 16 30 C17.97986082 29.88652381 19.95891598 29.7589065 21.9375 29.625 C23.03964844 29.55539063 24.14179687 29.48578125 25.27734375 29.4140625 C26.17582031 29.27742188 27.07429688 29.14078125 28 29 C28.33 28.34 28.66 27.68 29 27 C29.46019531 26.15695313 29.46019531 26.15695313 29.9296875 25.296875 C31.30047997 22.35517438 32.19275085 19.35749715 33.125 16.25 C33.47820312 15.07953125 33.83140625 13.9090625 34.1953125 12.703125 C34.46085937 11.81109375 34.72640625 10.9190625 35 10 C34.34 10 33.68 10 33 10 C33.33 7.03 33.66 4.06 34 1 C36.89944831 0.03351723 38.7658148 -0.12878732 41.78125 -0.1328125 C43.16763672 -0.13474609 43.16763672 -0.13474609 44.58203125 -0.13671875 C46.02642578 -0.13091797 46.02642578 -0.13091797 47.5 -0.125 C48.94439453 -0.13080078 48.94439453 -0.13080078 50.41796875 -0.13671875 C51.34222656 -0.13542969 52.26648438 -0.13414063 53.21875 -0.1328125 C54.4862207 -0.13112061 54.4862207 -0.13112061 55.77929688 -0.12939453 C58 0 58 0 61 1 C61.88040196 3.54698226 62.5759039 5.95191274 63.1875 8.5625 C63.36474609 9.27341797 63.54199219 9.98433594 63.72460938 10.71679688 C64.16122323 12.47505269 64.58210434 14.23720155 65 16 C65.66 12.04 66.32 8.08 67 4 C74.09063642 1.56590093 80.05524471 -0.13216783 87.61328125 -0.09765625 C88.86044922 -0.09443359 90.10761719 -0.09121094 91.39257812 -0.08789062 C92.68615234 -0.07951172 93.97972656 -0.07113281 95.3125 -0.0625 C97.28186523 -0.05573242 97.28186523 -0.05573242 99.29101562 -0.04882812 C102.52736328 -0.03705959 105.76368745 -0.01912463 109 0 C109 4.29 109 8.58 109 13 C111.31 13 113.62 13 116 13 C116 8.71 116 4.42 116 0 C120.29 0 124.58 0 129 0 C129 14.19 129 28.38 129 43 C130.32 43 131.64 43 133 43 C133 46.63 133 50.26 133 54 C130.03 54 127.06 54 124 54 C124 55.32 124 56.64 124 58 C124.68707031 58.03738281 125.37414062 58.07476562 126.08203125 58.11328125 C126.98308594 58.17902344 127.88414062 58.24476563 128.8125 58.3125 C130.15248047 58.39951172 130.15248047 58.39951172 131.51953125 58.48828125 C134 59 134 59 135.80078125 60.10546875 C137.648805 63.02498509 137.39633699 65.58608192 137.375 69 C137.38273438 70.2375 137.39046875 71.475 137.3984375 72.75 C137 76 137 76 135.7265625 77.875 C131.59444003 80.56742369 126.93885387 80.13168334 122.171875 80.09765625 C121.42286926 80.0962413 120.67386353 80.09482635 119.90216064 80.09336853 C117.51806588 80.08778659 115.13406622 80.07523745 112.75 80.0625 C111.13020969 80.05748266 109.51041791 80.05292016 107.890625 80.04882812 C103.92704688 80.03782308 99.96353955 80.02057091 96 80 C94.02 75.545 94.02 75.545 92 71 C91.67 73.97 91.34 76.94 91 80 C84.07 80 77.14 80 70 80 C69.67 78.35 69.34 76.7 69 75 C64.545 75.495 64.545 75.495 60 76 C59.505 77.98 59.505 77.98 59 80 C52.73818125 80.19461348 46.4760385 80.37177132 40.21337891 80.53710938 C38.08533694 80.59531444 35.95739819 80.65743579 33.82958984 80.72363281 C30.76158454 80.81838637 27.69347738 80.89879912 24.625 80.9765625 C23.68197021 81.00875885 22.73894043 81.0409552 21.76733398 81.0741272 C8.5341074 81.3706166 8.5341074 81.3706166 4.0625 77.1875 C1.67798315 72.27820061 1.92301414 67.39831476 2.25 62.0625 C2.29060547 61.02706055 2.29060547 61.02706055 2.33203125 59.97070312 C2.60536251 55.31966307 3.36685739 51.86531832 6 48 C10.19536492 45.2488432 14.12756085 44.43002715 19.0625 43.8125 C20.24972656 43.65394531 21.43695313 43.49539062 22.66015625 43.33203125 C28.4243183 42.89102875 34.21899253 43 40 43 C39.67 51.91 39.34 60.82 39 70 C40.26181095 68.96207228 40.26181095 68.96207228 40.11352539 66.68334961 C40.10828857 65.68311768 40.10305176 64.68288574 40.09765625 63.65234375 C40.09443359 62.57275391 40.09121094 61.49316406 40.08789062 60.38085938 C40.07951172 59.24455078 40.07113281 58.10824219 40.0625 56.9375 C40.05798828 55.79732422 40.05347656 54.65714844 40.04882812 53.48242188 C40.03699747 50.65489649 40.0205141 47.8274736 40 45 C40.33 45 40.66 45 41 45 C41 52.59 41 60.18 41 68 C43.97 68 46.94 68 50 68 C50.45375 66.63875 50.9075 65.2775 51.375 63.875 C52.58333333 60.25 53.79166667 56.625 55 53 C54.34 53 53.68 53 53 53 C53.75 45.25 53.75 45.25 56 43 C58.15478516 42.77294922 58.15478516 42.77294922 60.7890625 42.8046875 C61.73007813 42.81113281 62.67109375 42.81757813 63.640625 42.82421875 C65.11789063 42.84935547 65.11789063 42.84935547 66.625 42.875 C67.61757812 42.88402344 68.61015625 42.89304688 69.6328125 42.90234375 C72.08878134 42.92595884 74.54427168 42.95889201 77 43 C76.01 43.99 76.01 43.99 75 45 C75.99 47.64 76.98 50.28 78 53 C78.33 50.69 78.66 48.38 79 46 C79.33 46 79.66 46 80 46 C80 53.92 80 61.84 80 70 C80.33 61.75 80.66 53.5 81 45 C85.95 45 90.9 45 96 45 C97.98 49.95 97.98 49.95 100 55 C100.33 51.7 100.66 48.4 101 45 C104.3 45 107.6 45 111 45 C111.33 45.99 111.66 46.98 112 48 C114.44989101 44.25764681 114.23086143 40.55774581 114.125 36.25 C114.11597656 35.55261719 114.10695312 34.85523438 114.09765625 34.13671875 C114.07419888 32.42433042 114.03833104 30.71211996 114 29 C113.01 29 112.02 29 111 29 C111 33.95 111 38.9 111 44 C105.72 43.67 100.44 43.34 95 43 C94.67 40.69 94.34 38.38 94 36 C92.17708333 36.9765625 90.35416667 37.953125 88.53125 38.9296875 C80.84760349 42.1786368 73.73165463 42.2530042 65.5 42.125 C64.39140625 42.11597656 63.2828125 42.10695312 62.140625 42.09765625 C59.42685408 42.07426167 56.71354455 42.04148175 54 42 C53.505 38.04 53.505 38.04 53 34 C49.04 34 45.08 34 41 34 C41 35.98 41 37.96 41 40 C40.505 40.99 40.505 40.99 40 42 C37.18676231 42.36927575 34.4522815 42.61281444 31.625 42.78125 C30.36550537 42.86977234 30.36550537 42.86977234 29.08056641 42.96008301 C25.47323378 43.21332031 21.86454082 43.44415866 18.25585938 43.67724609 C15.62832258 43.85011036 13.00173275 44.03413268 10.375 44.21875 C9.14064209 44.29228699 9.14064209 44.29228699 7.88134766 44.36730957 C5.91447893 44.50611168 3.95498984 44.74338096 2 45 C1.505 45.99 1.505 45.99 1 47 C-9.4215959 50.32342231 -21.22430767 49.19685779 -32 49 C-35.56275285 33.24770283 -35.56275285 33.24770283 -36 26 C-36.07927734 24.80310547 -36.07927734 24.80310547 -36.16015625 23.58203125 C-36.37778998 17.47882459 -35.72567855 11.54289108 -33 6 C-24.37022862 -1.96309377 -10.85804929 -0.32251632 0 0 Z M94 9 C93.67 9.66 93.34 10.32 93 11 C90.27734375 11.4140625 90.27734375 11.4140625 86.9375 11.625 C85.83277344 11.69976562 84.72804688 11.77453125 83.58984375 11.8515625 C82.73519531 11.90054688 81.88054687 11.94953125 81 12 C81 13.65 81 15.3 81 17 C82.76949612 17.50471197 84.54065223 18.00360685 86.3125 18.5 C87.29863281 18.7784375 88.28476563 19.056875 89.30078125 19.34375 C92.02287203 20.11812196 92.02287203 20.11812196 95 20 C95 16.37 95 12.74 95 9 C94.67 9 94.34 9 94 9 Z M47 13 C46.01 16.3 45.02 19.6 44 23 C45.98 23 47.96 23 50 23 C49.88637738 21.5199159 49.75877092 20.04089926 49.625 18.5625 C49.52058594 17.32693359 49.52058594 17.32693359 49.4140625 16.06640625 C49.27742188 15.38449219 49.14078125 14.70257813 49 14 C48.34 13.67 47.68 13.34 47 13 Z M65 24 C65.66 26.31 66.32 28.62 67 31 C71.82360189 31.19294408 75.49646738 30.75747614 80 29 C80 28.34 80 27.68 80 27 C75.05 26.01 70.1 25.02 65 24 Z M109 28 C109 32.95 109 37.9 109 43 C109.33 43 109.66 43 110 43 C110 38.05 110 33.1 110 28 C109.67 28 109.34 28 109 28 Z M115 28 C115 33.28 115 38.56 115 44 C117.64 44 120.28 44 123 44 C123 43.67 123 43.34 123 43 C120.69 43 118.38 43 116 43 C116 38.05 116 33.1 116 28 C115.67 28 115.34 28 115 28 Z M28 30 C29 34 29 34 29 34 Z M16 55 C15.01795158 58.28128878 14.86587385 61.26975521 14.875 64.6875 C14.87242188 65.66074219 14.86984375 66.63398438 14.8671875 67.63671875 C14.73427038 69.95637611 14.73427038 69.95637611 16 71 C19.6691577 71.14310287 23.32715441 71.04221662 27 71 C27 65.39 27 59.78 27 54 C21.20800328 53.86956743 21.20800328 53.86956743 16 55 Z M64 57 C63.34 59.31 62.68 61.62 62 64 C63.65 64 65.3 64 67 64 C66.67 61.69 66.34 59.38 66 57 C65.34 57 64.68 57 64 57 Z M78 58 C78 59.98 78 61.96 78 64 C78.33 64 78.66 64 79 64 C79 62.02 79 60.04 79 58 C78.67 58 78.34 58 78 58 Z M111 63 C111 66.96 111 70.92 111 75 C111.33 75 111.66 75 112 75 C112 73.02 112 71.04 112 69 C116.95 69 121.9 69 127 69 C127 68.34 127 67.68 127 67 C125.92878906 66.87882812 124.85757813 66.75765625 123.75390625 66.6328125 C122.35671248 66.46402399 120.95958009 66.29472687 119.5625 66.125 C118.50192383 66.00705078 118.50192383 66.00705078 117.41992188 65.88671875 C115.60326568 65.66072324 113.79937478 65.33699273 112 65 C111.67 64.34 111.34 63.68 111 63 Z M49 72 C50 76 50 76 50 76 Z " fill="#000000" transform="translate(76,99)"/>
<path d="M0 0 C-0.185625 0.804375 -0.37125 1.60875 -0.5625 2.4375 C-0.7790625 3.7059375 -0.7790625 3.7059375 -1 5 C-0.67 5.33 -0.34 5.66 0 6 C0.04080783 7.99958364 0.04254356 10.00045254 0 12 C-1.65 12 -3.3 12 -5 12 C-5 14.64 -5 17.28 -5 20 C-8 20 -11 20 -14 20 C-14.66 20.33 -15.32 20.66 -16 21 C-17.83037287 21.12145993 -19.66564133 21.17543185 -21.5 21.1875 C-22.4796875 21.20167969 -23.459375 21.21585938 -24.46875 21.23046875 C-27 21 -27 21 -29 19 C-29.23046875 15.77734375 -29.23046875 15.77734375 -29.1875 11.9375 C-29.18105469 10.66777344 -29.17460938 9.39804688 -29.16796875 8.08984375 C-29 5 -29 5 -28 4 C-25.64686445 3.92728259 -23.29166332 3.91629132 -20.9375 3.9375 C-19.64714844 3.94652344 -18.35679688 3.95554688 -17.02734375 3.96484375 C-16.02832031 3.97644531 -15.02929688 3.98804688 -14 4 C-13.67 4.99 -13.34 5.98 -13 7 C-12.62875 6.05125 -12.2575 5.1025 -11.875 4.125 C-10 1 -10 1 -7.0625 -0.4375 C-4.18160069 -0.96664477 -2.69145832 -1.03517628 0 0 Z M-23 10 C-22.01 10.495 -22.01 10.495 -21 11 C-21 11.99 -21 12.98 -21 14 C-21.99 14.495 -21.99 14.495 -23 15 C-22.01 15 -21.02 15 -20 15 C-20 13.35 -20 11.7 -20 10 C-20.99 10 -21.98 10 -23 10 Z " fill="#000000" transform="translate(73,152)"/>
<path d="M0 0 C0.33 0 0.66 0 1 0 C1 13.53 1 27.06 1 41 C1.66 41.33 2.32 41.66 3 42 C2.01 42 1.02 42 0 42 C0 28.14 0 14.28 0 0 Z " fill="#000000" transform="translate(206,99)"/>
<path d="M0 0 C1.65 0 3.3 0 5 0 C5 4.95 5 9.9 5 15 C1.7 15 -1.6 15 -5 15 C-5 11.37 -5 7.74 -5 4 C-4.67 4 -4.34 4 -4 4 C-4 7.3 -4 10.6 -4 14 C-1.36 14 1.28 14 4 14 C4 9.71 4 5.42 4 1 C2.68 0.67 1.36 0.34 0 0 Z " fill="#000000" transform="translate(97,154)"/>
<path d="M0 0 C0.33 0 0.66 0 1 0 C1 3.63 1 7.26 1 11 C1.99 11 2.98 11 4 11 C4 7.37 4 3.74 4 0 C4.33 0 4.66 0 5 0 C5 3.96 5 7.92 5 12 C3.35 12 1.7 12 0 12 C0 8.04 0 4.08 0 0 Z " fill="#000000" transform="translate(186,99)"/>
<path d="M0 0 C0.33 0 0.66 0 1 0 C1 5.28 1 10.56 1 16 C3.31 16 5.62 16 8 16 C8 16.33 8 16.66 8 17 C5.36 17 2.72 17 0 17 C0 11.39 0 5.78 0 0 Z " fill="#000000" transform="translate(93,111)"/>
<path d="M0 0 C0.33 0 0.66 0 1 0 C1 6.6 1 13.2 1 20 C-0.32 19.67 -1.64 19.34 -3 19 C-2.01 19 -1.02 19 0 19 C0 12.73 0 6.46 0 0 Z " fill="#000000" transform="translate(76,112)"/>
<path d="M0 0 C6.93 0 13.86 0 21 0 C21 0.33 21 0.66 21 1 C14.07 1 7.14 1 0 1 C0 0.67 0 0.34 0 0 Z " fill="#000000" transform="translate(103,180)"/>
<path d="M0 0 C0.33 0 0.66 0 1 0 C1 3.96 1 7.92 1 12 C3.64 12 6.28 12 9 12 C9 12.33 9 12.66 9 13 C6.03 13 3.06 13 0 13 C0 8.71 0 4.42 0 0 Z " fill="#000000" transform="translate(59,120)"/>
<path d="M0 0 C5.94 0 11.88 0 18 0 C18 0.33 18 0.66 18 1 C12.06 1 6.12 1 0 1 C0 0.67 0 0.34 0 0 Z " fill="#000000" transform="translate(45,149)"/>
<path d="M0 0 C5.94 0 11.88 0 18 0 C18 0.33 18 0.66 18 1 C12.06 1 6.12 1 0 1 C0 0.67 0 0.34 0 0 Z " fill="#000000" transform="translate(114,97)"/>
<path d="M0 0 C5.28 0.33 10.56 0.66 16 1 C16 1.33 16 1.66 16 2 C13.70858714 2.05384521 11.41681812 2.09272087 9.125 2.125 C7.21074219 2.15980469 7.21074219 2.15980469 5.2578125 2.1953125 C2 2 2 2 0 0 Z " fill="#000000" transform="translate(155,141)"/>
<path d="M0 0 C5.28 0 10.56 0 16 0 C16 0.33 16 0.66 16 1 C10.72 1 5.44 1 0 1 C0 0.67 0 0.34 0 0 Z " fill="#000000" transform="translate(59,97)"/>
<path d="M0 0 C4.95 0 9.9 0 15 0 C15 0.33 15 0.66 15 1 C10.05 1 5.1 1 0 1 C0 0.67 0 0.34 0 0 Z " fill="#000000" transform="translate(190,180)"/>
<path d="M0 0 C4.62 0 9.24 0 14 0 C14 0.33 14 0.66 14 1 C9.38 1 4.76 1 0 1 C0 0.67 0 0.34 0 0 Z " fill="#000000" transform="translate(45,154)"/>
<path d="M0 0 C3.3 0 6.6 0 10 0 C9.67 0.66 9.34 1.32 9 2 C6.36 1.67 3.72 1.34 1 1 C0.67 1.99 0.34 2.98 0 4 C0 2.68 0 1.36 0 0 Z " fill="#000000" transform="translate(118,134)"/>
<path d="M0 0 C4.29 0 8.58 0 13 0 C13 0.33 13 0.66 13 1 C8.71 1 4.42 1 0 1 C0 0.67 0 0.34 0 0 Z " fill="#000000" transform="translate(173,180)"/>
<path d="M0 0 C0.33 0 0.66 0 1 0 C1 4.29 1 8.58 1 13 C0.67 13 0.34 13 0 13 C0 8.71 0 4.42 0 0 Z " fill="#000000" transform="translate(214,162)"/>
<path d="M0 0 C2.64 0 5.28 0 8 0 C4.77208445 2.1519437 3.71599191 2.20086443 0 2 C0 1.34 0 0.68 0 0 Z " fill="#000000" transform="translate(201,154)"/>
<path d="M0 0 C4.29 0 8.58 0 13 0 C13 0.33 13 0.66 13 1 C8.71 1 4.42 1 0 1 C0 0.67 0 0.34 0 0 Z " fill="#000000" transform="translate(172,97)"/>
<path d="M0 0 C3.96 0 7.92 0 12 0 C12 0.33 12 0.66 12 1 C8.04 1 4.08 1 0 1 C0 0.67 0 0.34 0 0 Z " fill="#000000" transform="translate(91,181)"/>
<path d="M0 0 C0.99 0.33 1.98 0.66 3 1 C2.34 1 1.68 1 1 1 C1 1.66 1 2.32 1 3 C2.98 3 4.96 3 7 3 C7 3.33 7 3.66 7 4 C4.69 4 2.38 4 0 4 C0 2.68 0 1.36 0 0 Z " fill="#000000" transform="translate(143,125)"/>
<path d="M0 0 C3.96 0 7.92 0 12 0 C12 0.33 12 0.66 12 1 C8.04 1 4.08 1 0 1 C0 0.67 0 0.34 0 0 Z " fill="#000000" transform="translate(158,97)"/>
<path d="M0 0 C2.97 0.33 5.94 0.66 9 1 C9 1.33 9 1.66 9 2 C6.03 2 3.06 2 0 2 C0 1.34 0 0.68 0 0 Z " fill="#000000" transform="translate(188,165)"/>
<path d="M0 0 C0.33 0 0.66 0 1 0 C1 3.63 1 7.26 1 11 C0.67 11 0.34 11 0 11 C0 7.37 0 3.74 0 0 Z " fill="#000000" transform="translate(210,142)"/>
<path d="M0 0 C3.63 0 7.26 0 11 0 C11 0.33 11 0.66 11 1 C7.37 1 3.74 1 0 1 C0 0.67 0 0.34 0 0 Z " fill="#000000" transform="translate(193,97)"/>
<path d="M0 0 C3.63 0 7.26 0 11 0 C11 0.33 11 0.66 11 1 C7.37 1 3.74 1 0 1 C0 0.67 0 0.34 0 0 Z " fill="#000000" transform="translate(79,97)"/>
<path d="M0 0 C3.3 0 6.6 0 10 0 C10 0.33 10 0.66 10 1 C6.7 1 3.4 1 0 1 C0 0.67 0 0.34 0 0 Z " fill="#000000" transform="translate(146,180)"/>
<path d="M0 0 C2.97 0 5.94 0 9 0 C9 0.33 9 0.66 9 1 C6.03 1 3.06 1 0 1 C0 0.67 0 0.34 0 0 Z " fill="#000000" transform="translate(157,180)"/>
<path d="M0 0 C2.97 0 5.94 0 9 0 C9 0.33 9 0.66 9 1 C6.03 1 3.06 1 0 1 C0 0.67 0 0.34 0 0 Z " fill="#000000" transform="translate(125,180)"/>
<path d="M0 0 C2.31 0 4.62 0 7 0 C4 2 4 2 0 2 C0 1.34 0 0.68 0 0 Z " fill="#000000" transform="translate(78,144)"/>
<path d="M0 0 C0.66 1.32 1.32 2.64 2 4 C1.34 4.66 0.68 5.32 0 6 C0 4.02 0 2.04 0 0 Z " fill="#000000" transform="translate(168,172)"/>
<path d="M0 0 C0.99 0.33 1.98 0.66 3 1 C2.34 1 1.68 1 1 1 C1 2.65 1 4.3 1 6 C0.67 6 0.34 6 0 6 C0 4.02 0 2.04 0 0 Z " fill="#000000" transform="translate(69,165)"/>
<path d="M0 0 C2.31 0 4.62 0 7 0 C7 0.33 7 0.66 7 1 C4.69 1 2.38 1 0 1 C0 0.67 0 0.34 0 0 Z " fill="#000000" transform="translate(66,148)"/>
<path d="M0 0 C1.65 0 3.3 0 5 0 C4.01 0.33 3.02 0.66 2 1 C1.67 1.66 1.34 2.32 1 3 C0.67 2.01 0.34 1.02 0 0 Z " fill="#000000" transform="translate(172,143)"/>
<path d="M0 0 C0 1.65 0 3.3 0 5 C-0.33 4.01 -0.66 3.02 -1 2 C-1.66 1.67 -2.32 1.34 -3 1 C-1 0 -1 0 0 0 Z " fill="#000000" transform="translate(170,136)"/>
<path d="M0 0 C1.32 0.33 2.64 0.66 4 1 C2.02 1.99 2.02 1.99 0 3 C0 2.01 0 1.02 0 0 Z " fill="#000000" transform="translate(158,112)"/>
<path d="M0 0 C1.98 0 3.96 0 6 0 C6 0.33 6 0.66 6 1 C4.02 1 2.04 1 0 1 C0 0.67 0 0.34 0 0 Z " fill="#000000" transform="translate(61,173)"/>
<path d="M0 0 C0.33 0 0.66 0 1 0 C1 1.98 1 3.96 1 6 C0.67 6 0.34 6 0 6 C0 4.02 0 2.04 0 0 Z " fill="#000000" transform="translate(77,154)"/>
<path d="M0 0 C0.99 0.495 0.99 0.495 2 1 C1.67 2.32 1.34 3.64 1 5 C0.67 3.35 0.34 1.7 0 0 Z " fill="#000000" transform="translate(174,146)"/>
<path d="M0 0 C0.33 0 0.66 0 1 0 C1 1.98 1 3.96 1 6 C0.67 6 0.34 6 0 6 C0 4.02 0 2.04 0 0 Z " fill="#000000" transform="translate(39,127)"/>
<path d="M0 0 C0.99 0.33 1.98 0.66 3 1 C3 1.66 3 2.32 3 3 C2.01 3 1.02 3 0 3 C0 2.01 0 1.02 0 0 Z " fill="#000000" transform="translate(122,118)"/>
<path d="M0 0 C0.33 0 0.66 0 1 0 C1 1.98 1 3.96 1 6 C0.67 6 0.34 6 0 6 C0 4.02 0 2.04 0 0 Z " fill="#000000" transform="translate(38,117)"/>
<path d="M0 0 C0.99 0.495 0.99 0.495 2 1 C1.01 2.485 1.01 2.485 0 4 C0 2.68 0 1.36 0 0 Z " fill="#000000" transform="translate(136,175)"/>
<path d="M0 0 C0.33 0 0.66 0 1 0 C1 1.65 1 3.3 1 5 C0.67 5 0.34 5 0 5 C0 3.35 0 1.7 0 0 Z " fill="#000000" transform="translate(153,146)"/>
<path d="M0 0 C1.65 0 3.3 0 5 0 C5 0.33 5 0.66 5 1 C3.35 1 1.7 1 0 1 C0 0.67 0 0.34 0 0 Z " fill="#000000" transform="translate(69,113)"/>
<path d="M0 0 C0.33 0 0.66 0 1 0 C1 1.65 1 3.3 1 5 C0.67 5 0.34 5 0 5 C0 3.35 0 1.7 0 0 Z " fill="#000000" transform="translate(140,108)"/>
<path d="M0 0 C4 1 4 1 4 1 Z " fill="#000000" transform="translate(85,180)"/>
<path d="M0 0 C4 1 4 1 4 1 Z " fill="#000000" transform="translate(206,179)"/>
<path d="M0 0 C1 4 1 4 1 4 Z " fill="#000000" transform="translate(77,170)"/>
<path d="M0 0 C0.99 1.485 0.99 1.485 2 3 C1.34 3 0.68 3 0 3 C0 2.01 0 1.02 0 0 Z " fill="#000000" transform="translate(140,159)"/>
<path d="M0 0 C1 4 1 4 1 4 Z " fill="#000000" transform="translate(40,135)"/>
<path d="M0 0 C4 1 4 1 4 1 Z " fill="#000000" transform="translate(147,126)"/>
<path d="M0 0 C1 4 1 4 1 4 Z " fill="#000000" transform="translate(123,114)"/>
<path d="M0 0 C0.99 0.495 0.99 0.495 2 1 C1.34 1.66 0.68 2.32 0 3 C0 2.01 0 1.02 0 0 Z " fill="#000000" transform="translate(60,115)"/>
<path d="M0 0 C1 4 1 4 1 4 Z " fill="#000000" transform="translate(39,111)"/>
<path d="M0 0 C1 4 1 4 1 4 Z " fill="#000000" transform="translate(141,103)"/>
<path d="M0 0 C1 4 1 4 1 4 Z " fill="#000000" transform="translate(108,101)"/>
<path d="M0 0 C4 1 4 1 4 1 Z " fill="#000000" transform="translate(153,98)"/>
<path d="M0 0 C4 1 4 1 4 1 Z " fill="#000000" transform="translate(54,98)"/>
<path d="" fill="#000000" transform="translate(0,0)"/>
<path d="" fill="#000000" transform="translate(0,0)"/>
<path d="M0 0 C3 1 3 1 3 1 Z " fill="#000000" transform="translate(207,156)"/>
<path d="" fill="#000000" transform="translate(0,0)"/>
<path d="M0 0 C0.99 0.495 0.99 0.495 2 1 C1.01 1.495 1.01 1.495 0 2 C0 1.34 0 0.68 0 0 Z " fill="#000000" transform="translate(93,155)"/>
<path d="M0 0 C0.66 0 1.32 0 2 0 C1.67 0.66 1.34 1.32 1 2 C0.67 1.34 0.34 0.68 0 0 Z " fill="#000000" transform="translate(59,155)"/>
<path d="" fill="#000000" transform="translate(0,0)"/>
<path d="M0 0 C3 1 3 1 3 1 Z " fill="#000000" transform="translate(65,150)"/>
<path d="" fill="#000000" transform="translate(0,0)"/>
<path d="" fill="#000000" transform="translate(0,0)"/>
<path d="M0 0 C3 1 3 1 3 1 Z " fill="#000000" transform="translate(159,140)"/>
<path d="M0 0 C3 1 3 1 3 1 Z " fill="#000000" transform="translate(162,139)"/>
<path d="" fill="#000000" transform="translate(0,0)"/>
<path d="M0 0 C3 1 3 1 3 1 Z " fill="#000000" transform="translate(151,127)"/>
<path d="" fill="#000000" transform="translate(0,0)"/>
<path d="M0 0 C3 1 3 1 3 1 Z " fill="#000000" transform="translate(165,116)"/>
<path d="M0 0 C3 1 3 1 3 1 Z " fill="#000000" transform="translate(161,115)"/>
<path d="M0 0 C3 1 3 1 3 1 Z " fill="#000000" transform="translate(63,114)"/>
<path d="" fill="#000000" transform="translate(0,0)"/>
<path d="" fill="#000000" transform="translate(0,0)"/>
<path d="M0 0 C3 1 3 1 3 1 Z " fill="#000000" transform="translate(149,99)"/>
<path d="M0 0 C2 1 2 1 2 1 Z " fill="#000000" transform="translate(82,179)"/>
<path d="M0 0 C2 1 2 1 2 1 Z " fill="#000000" transform="translate(210,178)"/>
<path d="" fill="#000000" transform="translate(0,0)"/>
<path d="" fill="#000000" transform="translate(0,0)"/>
<path d="" fill="#000000" transform="translate(0,0)"/>
<path d="" fill="#000000" transform="translate(0,0)"/>
<path d="" fill="#000000" transform="translate(0,0)"/>
<path d="" fill="#000000" transform="translate(0,0)"/>
<path d="M0 0 C2 1 2 1 2 1 Z " fill="#000000" transform="translate(63,151)"/>
<path d="M0 0 C2 1 2 1 2 1 Z " fill="#000000" transform="translate(75,147)"/>
<path d="" fill="#000000" transform="translate(0,0)"/>
<path d="M0 0 C2 1 2 1 2 1 Z " fill="#000000" transform="translate(165,138)"/>
<path d="" fill="#000000" transform="translate(0,0)"/>
<path d="" fill="#000000" transform="translate(0,0)"/>
<path d="" fill="#000000" transform="translate(0,0)"/>
<path d="" fill="#000000" transform="translate(0,0)"/>
<path d="" fill="#000000" transform="translate(0,0)"/>
<path d="M0 0 C2 1 2 1 2 1 Z " fill="#000000" transform="translate(143,101)"/>
<path d="" fill="#000000" transform="translate(0,0)"/>
<path d="M0 0 C2 1 2 1 2 1 Z " fill="#000000" transform="translate(45,101)"/>
<path d="M0 0 C2 1 2 1 2 1 Z " fill="#000000" transform="translate(146,100)"/>
<path d="" fill="#000000" transform="translate(0,0)"/>
<path d="M0 0 C2 1 2 1 2 1 Z " fill="#000000" transform="translate(48,100)"/>
<path d="M0 0 C2 1 2 1 2 1 Z " fill="#000000" transform="translate(51,99)"/>
<path d="M0 0 C2 1 2 1 2 1 Z " fill="#000000" transform="translate(135,98)"/>
<path d="M0 0 C2 1 2 1 2 1 Z " fill="#000000" transform="translate(111,98)"/>
<path d="" fill="#000000" transform="translate(0,0)"/>
<path d="" fill="#000000" transform="translate(0,0)"/>
<path d="" fill="#000000" transform="translate(0,0)"/>
<path d="" fill="#000000" transform="translate(0,0)"/>
<path d="" fill="#000000" transform="translate(0,0)"/>
<path d="" fill="#000000" transform="translate(0,0)"/>
<path d="" fill="#000000" transform="translate(0,0)"/>
<path d="" fill="#000000" transform="translate(0,0)"/>
<path d="" fill="#000000" transform="translate(0,0)"/>
<path d="" fill="#000000" transform="translate(0,0)"/>
<path d="" fill="#000000" transform="translate(0,0)"/>
<path d="" fill="#000000" transform="translate(0,0)"/>
<path d="" fill="#000000" transform="translate(0,0)"/>
<path d="" fill="#000000" transform="translate(0,0)"/>
<path d="" fill="#000000" transform="translate(0,0)"/>
<path d="" fill="#000000" transform="translate(0,0)"/>
<path d="" fill="#000000" transform="translate(0,0)"/>
<path d="" fill="#000000" transform="translate(0,0)"/>
<path d="" fill="#000000" transform="translate(0,0)"/>
<path d="" fill="#000000" transform="translate(0,0)"/>
<path d="" fill="#000000" transform="translate(0,0)"/>
<path d="" fill="#000000" transform="translate(0,0)"/>
<path d="" fill="#000000" transform="translate(0,0)"/>
<path d="" fill="#000000" transform="translate(0,0)"/>
<path d="" fill="#000000" transform="translate(0,0)"/>
<path d="" fill="#000000" transform="translate(0,0)"/>
<path d="" fill="#000000" transform="translate(0,0)"/>
<path d="" fill="#000000" transform="translate(0,0)"/>
<path d="" fill="#000000" transform="translate(0,0)"/>
</svg>
