<?xml version="1.0" encoding="UTF-8"?>
<svg version="1.1" xmlns="http://www.w3.org/2000/svg" width="600" height="600">
<path d="M0 0 C198 0 396 0 600 0 C600 198 600 396 600 600 C402 600 204 600 0 600 C0 402 0 204 0 0 Z " fill="#FEFEFE" transform="translate(0,0)"/>
<path d="M0 0 C0.99 0.66 1.98 1.32 3 2 C3 3.98 3 5.96 3 8 C10.92 8 18.84 8 27 8 C20.95558713 14.04441287 16.04033069 17.86594865 7.328125 18.09765625 C5.96871551 18.09105717 4.6093229 18.07920246 3.25 18.0625 C2.55261719 18.05798828 1.85523438 18.05347656 1.13671875 18.04882812 C-0.57555803 18.0371002 -2.28779033 18.01916653 -4 18 C-4 15.69 -4 13.38 -4 11 C-5.093125 11.433125 -6.18625 11.86625 -7.3125 12.3125 C-8.23482422 12.67794922 -8.23482422 12.67794922 -9.17578125 13.05078125 C-11.27968876 14.14553398 -12.54661832 15.1194122 -14 17 C-14.87259763 22.0103993 -14.09813287 26.41033435 -12 31 C-12 32.32 -12 33.64 -12 35 C-12.66 35 -13.32 35 -14 35 C-13.93967927 36.4386494 -13.85079867 37.87611902 -13.75 39.3125 C-13.70359375 40.11300781 -13.6571875 40.91351563 -13.609375 41.73828125 C-13.22005145 44.1747541 -13.22005145 44.1747541 -10.97753906 45.34204102 C-9 47 -9 47 -8.609375 49.21728516 C-8.65578125 50.06597168 -8.7021875 50.9146582 -8.75 51.7890625 C-8.7809375 52.73136719 -8.811875 53.67367187 -8.84375 54.64453125 C-8.94669135 56.60813754 -9.05082854 58.57168155 -9.15625 60.53515625 C-9.41483952 68.47600953 -7.95981136 74.00505461 -3.19335938 80.43847656 C3.84699226 90.47403397 2.82728854 100.54448182 2.5 112.375 C2.47340666 114.38928372 2.44994543 116.40361135 2.4296875 118.41796875 C2.22537254 133.49431932 2.22537254 133.49431932 1 140 C0.53482166 148.05116359 0.54208798 155.42012838 3.34375 163.046875 C4 165 4 165 4 168 C4.66 168 5.32 168 6 168 C5.67 160.08 5.34 152.16 5 144 C4.34 143.67 3.68 143.34 3 143 C3.3954811 139.1440593 4.34369178 136.08764437 6 132.625 C8.00476221 128.34672123 8.65837266 124.69737594 9 120 C9.99 120 10.98 120 12 120 C13.485 115.545 13.485 115.545 15 111 C19.13433714 112.03358429 20.97206893 113.30543571 24.21875 115.84375 C26.13964915 117.09064945 27.76452874 117.56859327 30 118 C29.74013771 110.76209243 29.74013771 110.76209243 26.875 104.25 C25 101 25 101 25.0625 97.75 C26 95 26 95 27.578125 93.6171875 C29.21875451 92.09546221 29.21875451 92.09546221 29.07421875 89.8984375 C28.88279297 88.64933594 28.88279297 88.64933594 28.6875 87.375 C28.06657366 82.22821057 27.84163646 77.17749461 27.8125 72 C27.79985107 71.2579834 27.78720215 70.5159668 27.77416992 69.75146484 C27.76588429 65.95315792 27.84144113 64.2378383 30 61 C32.84146978 61.35753593 33.8588044 61.84550117 35.82421875 63.99609375 C36.43910156 64.80175781 37.05398438 65.60742188 37.6875 66.4375 C41.16490333 70.51713519 43.58552423 72.14634994 48.87890625 72.87109375 C51.59922813 73.03641718 54.2769223 73.13964501 57 73 C57.33 72.34 57.66 71.68 58 71 C58.66 71 59.32 71 60 71 C62.1875 73.3125 62.1875 73.3125 64 76 C63.67 76.99 63.34 77.98 63 79 C62.34 79 61.68 79 61 79 C59.21392114 93.9249222 59.21392114 93.9249222 64.65234375 107.65234375 C66 110 66 110 66 114 C55.33041481 115.1341685 47.33099624 111.55844385 39 105 C39.99 107.97 40.98 110.94 42 114 C43.65 114.33 45.3 114.66 47 115 C47.02505615 115.57967529 47.0501123 116.15935059 47.07592773 116.7565918 C47.19246234 119.40042107 47.31492682 122.04394409 47.4375 124.6875 C47.47681641 125.59951172 47.51613281 126.51152344 47.55664062 127.45117188 C47.59853516 128.33740234 47.64042969 129.22363281 47.68359375 130.13671875 C47.72025146 130.94842529 47.75690918 131.76013184 47.79467773 132.59643555 C47.95622564 135.07212657 47.95622564 135.07212657 48.58227539 137.74145508 C48.72012451 138.4867749 48.85797363 139.23209473 49 140 C48.67 140.33 48.34 140.66 48 141 C47.83958807 144.10085221 47.74036598 147.18187579 47.68359375 150.28515625 C47.6524221 151.68138466 47.6524221 151.68138466 47.62062073 153.1058197 C47.55502069 156.09130182 47.49619198 159.07687484 47.4375 162.0625 C47.3943247 164.08138976 47.35071075 166.1002702 47.30664062 168.11914062 C47.19932871 173.07933297 47.09809112 178.03961709 47 183 C47.66 183 48.32 183 49 183 C48.97679687 182.26394531 48.95359375 181.52789062 48.9296875 180.76953125 C48.91164063 179.79371094 48.89359375 178.81789063 48.875 177.8125 C48.85179687 176.84957031 48.82859375 175.88664063 48.8046875 174.89453125 C49 172 49 172 49.98632812 169.63671875 C51.03720625 166.90322074 51.30685072 164.83055543 51.4140625 161.91796875 C51.45273437 160.98662109 51.49140625 160.05527344 51.53125 159.09570312 C51.57765625 157.65614258 51.57765625 157.65614258 51.625 156.1875 C51.66367187 155.20845703 51.70234375 154.22941406 51.7421875 153.22070312 C51.83610371 150.8141002 51.91912564 148.40707649 52 146 C55.3 146 58.6 146 62 146 C62.33 140.72 62.66 135.44 63 130 C64.65 129.67 66.3 129.34 68 129 C70 131 70 131 70.1953125 132.9453125 C70.13020833 134.96354167 70.06510417 136.98177083 70 139 C70.969375 139.144375 71.93875 139.28875 72.9375 139.4375 C76 140 76 140 77 141 C77.14115161 143.67058851 77.04247107 146.32432238 77 149 C78.32 149 79.64 149 81 149 C81 147.35 81 145.7 81 144 C81.99 143.67 82.98 143.34 84 143 C84 136.73 84 130.46 84 124 C79.38 124 74.76 124 70 124 C71.12691358 118.3654321 71.12691358 118.3654321 74.4375 115.75 C75.05496094 115.24984375 75.67242187 114.7496875 76.30859375 114.234375 C80.50722087 111.17024989 84.96960827 111.29529535 90 112 C92.76262928 113.39349554 94.63943925 114.94733848 97 117 C96.67 118.32 96.34 119.64 96 121 C91.05 121.495 91.05 121.495 86 122 C86.16371094 122.99128906 86.32742188 123.98257813 86.49609375 125.00390625 C87.06604226 128.99354579 87.09817505 132.90621941 87.0625 136.9375 C87.05798828 137.62134766 87.05347656 138.30519531 87.04882812 139.00976562 C87.0371956 140.67321604 87.01926694 142.3366205 87 144 C87.66 144 88.32 144 89 144 C88.67 145.98 88.34 147.96 88 150 C88.83144531 150.01417969 89.66289062 150.02835938 90.51953125 150.04296875 C91.60621094 150.09066406 92.69289063 150.13835937 93.8125 150.1875 C94.89144531 150.22230469 95.97039062 150.25710937 97.08203125 150.29296875 C100 151 100 151 101.61157227 153.20361328 C103.02284347 156.04600828 103.64137629 158.32617698 104.1328125 161.44921875 C104.29910156 162.46177734 104.46539062 163.47433594 104.63671875 164.51757812 C104.79785156 165.56365234 104.95898438 166.60972656 105.125 167.6875 C105.45831322 169.77516026 105.79412499 171.86242364 106.1328125 173.94921875 C106.27605957 174.87049561 106.41930664 175.79177246 106.56689453 176.7409668 C106.89872737 179.02312187 106.89872737 179.02312187 108 181 C109.485 178.525 109.485 178.525 111 176 C112.231394 179.69418201 111.64432764 182.2056261 111 186 C114.465 184.02 114.465 184.02 118 182 C117.67 183.65 117.34 185.3 117 187 C117.55429687 186.07316406 118.10859375 185.14632812 118.6796875 184.19140625 C119.41119226 182.98160991 120.14297768 181.77198324 120.875 180.5625 C121.23980469 179.95083984 121.60460937 179.33917969 121.98046875 178.70898438 C124.7734375 174.11328125 124.7734375 174.11328125 127 173 C126.70996094 173.85271484 126.70996094 173.85271484 126.4140625 174.72265625 C124.81863577 179.45364938 123.33099414 184.18794425 122 189 C123.32 187.68 124.64 186.36 126 185 C126.33 186.32 126.66 187.64 127 189 C129.31 189 131.62 189 134 189 C133.814375 189.5775 133.62875 190.155 133.4375 190.75 C132.95976454 193.20692525 133.24270636 194.64397534 134 197 C135.32 197 136.64 197 138 197 C138 197.66 138 198.32 138 199 C140.64 197.35 143.28 195.7 146 194 C144.515 198.455 144.515 198.455 143 203 C144.98 203.33 146.96 203.66 149 204 C149.103125 203.01 149.20625 202.02 149.3125 201 C149.8163372 197.40011971 150.91399054 194.25115323 152.28125 190.89453125 C153.01850416 188.95122544 153.533347 187.02365869 154 185 C153.01 184.67 152.02 184.34 151 184 C151.33 183.34 151.66 182.68 152 182 C153.32 182.33 154.64 182.66 156 183 C155.84273438 181.89398438 155.68546875 180.78796875 155.5234375 179.6484375 C155.11519604 176.39826255 154.89426889 173.18783791 154.7890625 169.9140625 C154.76070313 169.04652344 154.73234375 168.17898438 154.703125 167.28515625 C154.65036008 165.48851062 154.60630512 163.69159113 154.5703125 161.89453125 C154.52390625 160.60482422 154.52390625 160.60482422 154.4765625 159.2890625 C154.45674316 158.51256348 154.43692383 157.73606445 154.41650391 156.93603516 C154.14823553 154.59559757 154.14823553 154.59559757 151 153 C151 152.34 151 151.68 151 151 C149.68 150.67 148.36 150.34 147 150 C147.33 149.34 147.66 148.68 148 148 C148.66 148.33 149.32 148.66 150 149 C149.57692877 147.68277821 149.13602514 146.37127336 148.6875 145.0625 C148.44386719 144.33160156 148.20023437 143.60070312 147.94921875 142.84765625 C147.08759559 140.64067976 147.08759559 140.64067976 144 140 C143.67 139.34 143.34 138.68 143 138 C142.01 138.33 141.02 138.66 140 139 C140 138.01 140 137.02 140 136 C139.34 136 138.68 136 138 136 C137.67 137.32 137.34 138.64 137 140 C136.01 139.67 135.02 139.34 134 139 C134 140.32 134 141.64 134 143 C132.35 143.33 130.7 143.66 129 144 C124.79103194 138.01765339 125.07433985 132.06587245 126 125 C128.82331493 117.08616269 134.34721551 112.71238901 141 108 C142.00857514 107.09277678 143.00964685 106.17708059 144 105.25 C149.33833196 101.24625103 155.89652071 99.12524651 162.6171875 99.40625 C174.28958922 102.31478289 182.4420237 114.71933911 188.47290039 124.30761719 C191.46473549 129.29780775 194.17259117 133.96967467 193.5234375 139.96875 C192.15115226 145.294036 190.62955771 148.93579905 185.9375 152 C183 153 183 153 180 153 C180 152.01 180 151.02 180 150 C178.35 150 176.7 150 175 150 C174.67 150.66 174.34 151.32 174 152 C172.67511887 152.36548445 171.33981486 152.6937566 170 153 C169.360625 153.37125 168.72125 153.7425 168.0625 154.125 C165.37363338 155.26573129 163.76141748 154.76706041 161 154 C161 152.68 161 151.36 161 150 C160.34 150 159.68 150 159 150 C159.11099143 153.66722902 159.2413499 157.33353236 159.375 161 C159.42140625 162.54494141 159.42140625 162.54494141 159.46875 164.12109375 C159.69488086 170.03818471 160.31982449 175.31745519 162 181 C164.64 181.33 167.28 181.66 170 182 C170 181.34 170 180.68 170 180 C168.2984375 179.7834375 168.2984375 179.7834375 166.5625 179.5625 C163 179 163 179 162 178 C161.34388818 173.2059102 160.70880712 168.14542719 163.28125 163.87109375 C166.25070965 161.07035339 168.96792068 159.64323834 173.0625 159.375 C178.68920065 160.26812709 181.589901 162.39934708 185.3125 166.625 C187.94949623 170.33632803 188.4405291 172.41849733 188 177 C185.91246173 180.87685679 184.22963468 183.48941618 180 185 C180 184.34 180 183.68 180 183 C177.36 182.34 174.72 181.68 172 181 C171.91885894 182.77007714 171.86074495 184.54122098 171.8125 186.3125 C171.77769531 187.29863281 171.74289062 188.28476562 171.70703125 189.30078125 C172.04708654 192.43382396 172.7122349 192.99007717 175 195 C175.45185216 198.53950857 175.42109443 200.33326715 173.5 203.375 C172.7575 204.179375 172.7575 204.179375 172 205 C167.125 204.125 167.125 204.125 166 203 C165.83203125 201.00390625 165.83203125 201.00390625 165.8125 198.5625 C165.79832031 197.75941406 165.78414063 196.95632813 165.76953125 196.12890625 C166 194 166 194 168 192 C168.24212873 190.01871492 168.24212873 190.01871492 168.125 187.875 C168.063125 185.956875 168.063125 185.956875 168 184 C166.02 184.33 164.04 184.66 162 185 C159.84278299 192.47321608 158.53469136 199.21038876 159 207 C160.6396875 207.4021875 160.6396875 207.4021875 162.3125 207.8125 C166.62372786 209.20086151 168.11388045 210.2840695 170.16796875 214.26171875 C170.50441406 215.06222656 170.84085937 215.86273438 171.1875 216.6875 C171.53167969 217.49574219 171.87585938 218.30398438 172.23046875 219.13671875 C172.48441406 219.75160156 172.73835938 220.36648438 173 221 C177.37543434 220.88808933 181.75015915 220.75797389 186.125 220.625 C187.34316406 220.5940625 188.56132812 220.563125 189.81640625 220.53125 C197.09804714 220.3000868 204.14208851 219.6382114 211.33935547 218.52587891 C217.47871915 217.6439135 223.64869508 217.11253455 229.82568359 216.56738281 C232.02618107 216.37268351 234.22597318 216.17107592 236.42578125 215.96875 C242.3102199 215.43849132 248.08197713 215 254 215 C254 279.68 254 344.36 254 411 C241.64015748 409.87637795 241.64015748 409.87637795 236.46337891 409.29150391 C234.71985893 409.09578041 234.71985893 409.09578041 232.94111633 408.89610291 C231.71531357 408.75765457 230.4895108 408.61920624 229.2265625 408.4765625 C226.53495356 408.17564727 223.84331152 407.87504719 221.15161133 407.57495117 C220.11209273 407.45896057 220.11209273 407.45896057 219.05157375 407.34062672 C194.53495852 404.6065765 170.03731713 402.07311599 145.43212891 400.26757812 C140.77884936 399.90479577 136.14152512 399.42467222 131.5 398.9375 C119.19589554 397.69364937 106.83807035 397.14486053 94.48974609 396.53369141 C88.72546732 396.24697786 82.96273901 395.94521137 77.2012949 395.60617828 C46.92984898 393.83469725 16.6904843 393.64224863 -13.62632751 393.6827507 C-16.99028775 393.68674614 -20.35423076 393.68847024 -23.7181921 393.68876714 C-63.03570324 393.69315795 -102.2678265 394.08825373 -141.50512695 396.82684326 C-143.82524419 396.98787107 -146.14574861 397.13874859 -148.46679688 397.28564453 C-154.40804664 397.59868466 -154.40804664 397.59868466 -160.27478027 398.49058533 C-163.29045549 399.05429371 -166.20258017 399.25438952 -169.26660156 399.41210938 C-170.51503845 399.48095337 -171.76347534 399.54979736 -173.04974365 399.62072754 C-174.04668873 399.67460381 -174.04668873 399.67460381 -175.06377411 399.72956848 C-192.62289988 400.69493757 -210.0750356 402.38628486 -227.55645752 404.26568604 C-230.52551438 404.58284036 -233.49537521 404.89208072 -236.46526718 405.20130157 C-239.38092858 405.50554372 -242.29617865 405.81358508 -245.21131134 406.12284851 C-247.22272524 406.33589611 -249.23437493 406.54671392 -251.24603271 406.75744629 C-256.9213667 407.37002202 -262.54561508 408.05481841 -268.16894531 409.04101562 C-274.06913222 410.01136959 -280.04120696 410.50343391 -286 411 C-286 346.65 -286 282.3 -286 216 C-213 214 -213 214 -203 214 C-202.97264382 215.70824133 -202.95344494 217.41661405 -202.9375 219.125 C-202.92589844 220.07632813 -202.91429687 221.02765625 -202.90234375 222.0078125 C-203.00279401 225.08560857 -203.43036233 227.97688357 -204 231 C-202.2063257 229.8782037 -200.4151227 228.75245517 -198.625 227.625 C-197.62726563 226.99851562 -196.62953125 226.37203125 -195.6015625 225.7265625 C-192.9751981 224.10730288 -192.9751981 224.10730288 -191 222 C-190.83318891 218.91652174 -190.83318891 218.91652174 -191 216 C-191.99 216 -192.98 216 -194 216 C-194 214.35 -194 212.7 -194 211 C-194.99 211 -195.98 211 -197 211 C-196.505 208.03 -196.505 208.03 -196 205 C-195.01 205.33 -194.02 205.66 -193 206 C-193.66 203.36 -194.32 200.72 -195 198 C-195.763125 198.309375 -196.52625 198.61875 -197.3125 198.9375 C-199.18789677 199.67893593 -201.08684652 200.36228217 -203 201 C-203 200.34 -203 199.68 -203 199 C-204.32 199.33 -205.64 199.66 -207 200 C-207 198.35 -207 196.7 -207 195 C-207.66 195 -208.32 195 -209 195 C-209 191.7 -209 188.4 -209 185 C-209.66 185 -210.32 185 -211 185 C-210.51421457 181.87709365 -210.0013988 179.00419641 -209 176 C-209.66 176 -210.32 176 -211 176 C-211 174.35 -211 172.7 -211 171 C-211.66 171 -212.32 171 -213 171 C-213.84349132 163.52256339 -214.39900513 157.19701539 -212 150 C-211.01 150 -210.02 150 -209 150 C-207.64613064 151.65002828 -206.31321858 153.3174387 -205 155 C-204.01 155.33 -203.02 155.66 -202 156 C-202 156.99 -202 157.98 -202 159 C-200.02 159.99 -200.02 159.99 -198 161 C-198.99 161.33 -199.98 161.66 -201 162 C-198.28395285 164.87420123 -198.28395285 164.87420123 -195 167 C-195 167.66 -195 168.32 -195 169 C-195.66 169.33 -196.32 169.66 -197 170 C-195.02 170.99 -193.04 171.98 -191 173 C-191.33 173.99 -191.66 174.98 -192 176 C-191.01 176.33 -190.02 176.66 -189 177 C-189.66 178.65 -190.32 180.3 -191 182 C-190.01 182.33 -189.02 182.66 -188 183 C-188.33 183.66 -188.66 184.32 -189 185 C-188.34 185.33 -187.68 185.66 -187 186 C-187.99 186.33 -188.98 186.66 -190 187 C-190 187.66 -190 188.32 -190 189 C-188.68 189.33 -187.36 189.66 -186 190 C-185.67 191.32 -185.34 192.64 -185 194 C-187.31 194.33 -189.62 194.66 -192 195 C-191.01 196.98 -190.02 198.96 -189 201 C-188.67 200.34 -188.34 199.68 -188 199 C-187.01 199 -186.02 199 -185 199 C-184.67 197.35 -184.34 195.7 -184 194 C-183.01 194.33 -182.02 194.66 -181 195 C-181 195.66 -181 196.32 -181 197 C-179.68 196.67 -178.36 196.34 -177 196 C-177 194.35 -177 192.7 -177 191 C-175.35 191 -173.7 191 -172 191 C-171.67 190.01 -171.34 189.02 -171 188 C-169.68 188.33 -168.36 188.66 -167 189 C-167.66 185.7 -168.32 182.4 -169 179 C-171.64 178.67 -174.28 178.34 -177 178 C-177.33 178.99 -177.66 179.98 -178 181 C-178.33 180.01 -178.66 179.02 -179 178 C-180.65 178 -182.3 178 -184 178 C-184 176 -184 174 -184 172 C-184.66 172 -185.32 172 -186 172 C-186 170.68 -186 169.36 -186 168 C-186.66 168 -187.32 168 -188 168 C-187.34 165.69 -186.68 163.38 -186 161 C-186.99 161 -187.98 161 -189 161 C-188.67 159.35 -188.34 157.7 -188 156 C-188.66 156 -189.32 156 -190 156 C-189.34 154.35 -188.68 152.7 -188 151 C-189.32 151 -190.64 151 -192 151 C-191 149 -190 147 -189 145 C-190.32 144.67 -191.64 144.34 -193 144 C-191.35 142.02 -189.7 140.04 -188 138 C-189.32 138.33 -190.64 138.66 -192 139 C-191.67 136.03 -191.34 133.06 -191 130 C-191.99 130 -192.98 130 -194 130 C-193.34 129.01 -192.68 128.02 -192 127 C-191.54398739 124.49103314 -191.54398739 124.49103314 -191.375 121.8125 C-191.26285156 120.46091797 -191.26285156 120.46091797 -191.1484375 119.08203125 C-191.07496094 118.05142578 -191.07496094 118.05142578 -191 117 C-191.66 117 -192.32 117 -193 117 C-192.01 111.39 -191.02 105.78 -190 100 C-186.19069459 100.95232635 -185.48618469 101.13926581 -182.984375 103.72265625 C-182.45585937 104.26083984 -181.92734375 104.79902344 -181.3828125 105.35351562 C-180.84398437 105.91748047 -180.30515625 106.48144531 -179.75 107.0625 C-178.91855469 107.91424805 -178.91855469 107.91424805 -178.0703125 108.78320312 C-176.70665786 110.18212469 -175.35239583 111.59019114 -174 113 C-174.99 113.66 -175.98 114.32 -177 115 C-174.37801226 117.15377564 -172.35595828 118.40072174 -169 119 C-169.495 120.485 -169.495 120.485 -170 122 C-171.32 122 -172.64 122 -174 122 C-174 122.66 -174 123.32 -174 124 C-173.278125 124.28875 -172.55625 124.5775 -171.8125 124.875 C-167.90625 126.4375 -167.90625 126.4375 -164 128 C-164 128.66 -164 129.32 -164 130 C-165.98 130.33 -167.96 130.66 -170 131 C-170 131.66 -170 132.32 -170 133 C-169.4225 133.28875 -168.845 133.5775 -168.25 133.875 C-166.16666667 134.91666667 -164.08333333 135.95833333 -162 137 C-163.65 137.66 -165.3 138.32 -167 139 C-167 139.66 -167 140.32 -167 141 C-164.03 141.33 -161.06 141.66 -158 142 C-158.99 142.99 -159.98 143.98 -161 145 C-162.32 145 -163.64 145 -165 145 C-165 145.66 -165 146.32 -165 147 C-162.03 147.66 -159.06 148.32 -156 149 C-155.67 150.32 -155.34 151.64 -155 153 C-156.32 153 -157.64 153 -159 153 C-159 153.66 -159 154.32 -159 155 C-157.35 155.33 -155.7 155.66 -154 156 C-154 156.66 -154 157.32 -154 158 C-155.98 158 -157.96 158 -160 158 C-160 158.66 -160 159.32 -160 160 C-159.01 160.33 -158.02 160.66 -157 161 C-157 161.66 -157 162.32 -157 163 C-157.66 163 -158.32 163 -159 163 C-158.67 163.66 -158.34 164.32 -158 165 C-155.47266765 165.65555119 -155.47266765 165.65555119 -153 166 C-153 166.66 -153 167.32 -153 168 C-154.98 168.99 -154.98 168.99 -157 170 C-156.01 170.99 -155.02 171.98 -154 173 C-155 174 -155 174 -158.5625 174.0625 C-159.696875 174.041875 -160.83125 174.02125 -162 174 C-162 174.66 -162 175.32 -162 176 C-163.32 176 -164.64 176 -166 176 C-165.01 178.31 -164.02 180.62 -163 183 C-161.68 182.67 -160.36 182.34 -159 182 C-159 182.66 -159 183.32 -159 184 C-158.34 184 -157.68 184 -157 184 C-157 182.68 -157 181.36 -157 180 C-156.01 180 -155.02 180 -154 180 C-154 180.66 -154 181.32 -154 182 C-153.34 182 -152.68 182 -152 182 C-152 180.68 -152 179.36 -152 178 C-151.01 178.33 -150.02 178.66 -149 179 C-148.67 177.68 -148.34 176.36 -148 175 C-146 175 -146 175 -144.375 176.5 C-143.92125 176.995 -143.4675 177.49 -143 178 C-143 176.68 -143 175.36 -143 174 C-141.68 174 -140.36 174 -139 174 C-138.01 173.67 -137.02 173.34 -136 173 C-135.319375 172.896875 -134.63875 172.79375 -133.9375 172.6875 C-131.79878028 172.15861061 -131.79878028 172.15861061 -130.75 169.9375 C-130.37875 168.9784375 -130.37875 168.9784375 -130 168 C-130.495 167.54625 -130.99 167.0925 -131.5 166.625 C-133 165 -133 165 -133 163 C-136.99728234 164.33242745 -137.73289379 166.56277446 -140 170 C-140.66 170 -141.32 170 -142 170 C-141.45092403 166.35123775 -140.58707041 163.9808215 -138.41796875 161.00390625 C-137.89783203 160.28009766 -137.37769531 159.55628906 -136.84179688 158.81054688 C-136.29587891 158.06869141 -135.74996094 157.32683594 -135.1875 156.5625 C-134.11784038 155.08510523 -133.04881779 153.60724901 -131.98046875 152.12890625 C-131.46790527 151.42910645 -130.9553418 150.72930664 -130.42724609 150.00830078 C-129.14049131 148.19768757 -127.96610241 146.35453875 -126.80078125 144.46484375 C-126.20652344 143.65144531 -125.61226562 142.83804688 -125 142 C-124.01 142 -123.02 142 -122 142 C-122.38623849 144.78091715 -122.71019336 146.62199134 -124.4375 148.875 C-126.52475149 151.71366203 -127.15267526 154.61070105 -128 158 C-126.68 157.34 -125.36 156.68 -124 156 C-124.66 157.65 -125.32 159.3 -126 161 C-124.35 160.67 -122.7 160.34 -121 160 C-121 160.99 -121 161.98 -121 163 C-119.02 162.01 -117.04 161.02 -115 160 C-115.165 159.071875 -115.33 158.14375 -115.5 157.1875 C-116.381003 150.88203571 -116.32024869 144.54875613 -115.52734375 138.23828125 C-114.49166889 131.07757999 -114.49166889 131.07757999 -116.3515625 124.30078125 C-119.245352 120.87133285 -121.50031238 118.77821648 -126 118 C-125.67 116.68 -125.34 115.36 -125 114 C-121.7 114 -118.4 114 -115 114 C-115 110.04 -115 106.08 -115 102 C-113.68 102 -112.36 102 -111 102 C-111 102.99 -111 103.98 -111 105 C-109.68 105 -108.36 105 -107 105 C-107 104.01 -107 103.02 -107 102 C-106.01 102 -105.02 102 -104 102 C-103.67 102.66 -103.34 103.32 -103 104 C-100.97536745 104.65213292 -100.97536745 104.65213292 -99 105 C-99.13975405 101.45806625 -99.28788934 97.91653001 -99.4375 94.375 C-99.47681641 93.37597656 -99.51613281 92.37695312 -99.55664062 91.34765625 C-99.76607541 86.48232518 -100.07975331 81.79264474 -101 77 C-101.36757723 74.09613988 -101.28574104 72.00028091 -101 69 C-98.875 66.5 -98.875 66.5 -96 64 C-93.91371655 61.39581012 -91.95323674 58.70499796 -90 56 C-86.12992523 57.49176891 -84.61217574 59.63774859 -82.375 63.0625 C-80.22625495 66.62811197 -80.22625495 66.62811197 -77 69 C-77 73.62 -77 78.24 -77 83 C-77.66 83 -78.32 83 -79 83 C-78.80946422 85.89802603 -78.80946422 85.89802603 -78 89 C-77.3296875 89.4228125 -76.659375 89.845625 -75.96875 90.28125 C-74 92 -74 92 -73.609375 95.13671875 C-73.65578125 96.30847656 -73.7021875 97.48023438 -73.75 98.6875 C-73.78609375 99.86699219 -73.8221875 101.04648438 -73.859375 102.26171875 C-73.90578125 103.16535156 -73.9521875 104.06898438 -74 105 C-73.01 105 -72.02 105 -71 105 C-71 104.01 -71 103.02 -71 102 C-69.68 102 -68.36 102 -67 102 C-67 115.86 -67 129.72 -67 144 C-66.67 144 -66.34 144 -66 144 C-63.99951959 136.49395381 -63.7023206 129.45990466 -63.6484375 121.71484375 C-63.60206931 119.13733662 -63.55383581 116.55986248 -63.50390625 113.98242188 C-63.43117722 109.95140957 -63.37151132 105.92102764 -63.34814453 101.8894043 C-63.32399517 97.97592212 -63.23677685 94.06491664 -63.1484375 90.15234375 C-63.15225433 88.95318832 -63.15607117 87.7540329 -63.16000366 86.51853943 C-62.9802629 80.35194948 -62.47057008 76.74212455 -58.05322266 72.24047852 C-56.06958294 70.52745296 -54.34005389 69.17002695 -52 68 C-52.05760498 67.4016333 -52.11520996 66.8032666 -52.17456055 66.18676758 C-53.78467224 46.89321972 -53.78467224 46.89321972 -48.06567383 39.8034668 C-45.81156943 37.38697409 -43.50628978 35.15638568 -41 33 C-36.6027062 33.78224743 -33.05440555 35.17154259 -29 37 C-29.12568359 36.04287109 -29.12568359 36.04287109 -29.25390625 35.06640625 C-29.35574219 34.24011719 -29.45757812 33.41382813 -29.5625 32.5625 C-29.66691406 31.73878906 -29.77132813 30.91507813 -29.87890625 30.06640625 C-29.91886719 29.38449219 -29.95882813 28.70257813 -30 28 C-29.67 27.67 -29.34 27.34 -29 27 C-25.7 27 -22.4 27 -19 27 C-18.67 19.74 -18.34 12.48 -18 5 C-7.09433962 -0.45283019 -7.09433962 -0.45283019 0 0 Z " fill="#040404" transform="translate(316,94)"/>
<path d="M0 0 C5.45852509 -0.09998003 10.91650004 -0.17198513 16.37573242 -0.21972656 C18.22706403 -0.23965928 20.07833421 -0.26681568 21.92944336 -0.30175781 C46.61836511 -0.75562282 46.61836511 -0.75562282 56.75 6.375 C68.49254898 17.82324951 72.96710943 32.61019213 73.28271484 48.59545898 C73.29254395 49.47145752 73.30237305 50.34745605 73.3125 51.25 C73.33006348 52.08926025 73.34762695 52.92852051 73.36572266 53.79321289 C73.35677246 62.85707786 70.00156309 70.50490401 65 78 C64.030625 78.825 63.06125 79.65 62.0625 80.5 C61.381875 81.325 60.70125 82.15 60 83 C60.51767748 86.09971302 61.1768222 88.97623464 62 92 C62.27271729 93.01771484 62.54543457 94.03542969 62.82641602 95.08398438 C63.77724036 98.56309642 64.75842204 102.0322888 65.75 105.5 C66.10126953 106.73363281 66.45253906 107.96726562 66.81445312 109.23828125 C69.03567061 116.93796438 71.41628377 124.5365013 74.27246094 132.02539062 C75.50695165 135.30466891 76 137.41767257 76 141 C65.2531464 142.36467982 54.84587336 143.24917256 44 143 C41.28071892 133.15645263 38.86110683 123.28793674 36.70751953 113.30639648 C36.24033771 111.14275132 35.7669919 108.98051502 35.29296875 106.81835938 C33 96.28464459 33 96.28464459 33 94 C32.01 94 31.02 94 30 94 C30.03029297 94.72888428 30.06058594 95.45776855 30.09179688 96.20874023 C30.66272864 110.14935687 31.12800707 124.04722983 31 138 C20.44 138 9.88 138 -1 138 C-1.02977598 124.93750613 -1.05098483 111.87502319 -1.0625 98.8125 C-1.06335602 97.84830265 -1.06421204 96.8841053 -1.06509399 95.89068985 C-1.09017645 63.91452692 -0.83451064 31.96664034 0 0 Z " fill="#FBFBFB" transform="translate(178,331)"/>
<path d="M0 0 C11.75949763 8.93504555 14.41079968 22.2461156 17.23291016 35.90625 C17.83396423 40.33574328 17.85387325 44.68716467 17.859375 49.15234375 C17.8643676 50.58092209 17.8643676 50.58092209 17.86946106 52.0383606 C17.8745131 54.05388916 17.87686992 56.06942605 17.87670898 58.08496094 C17.87887426 61.11538188 17.89698942 64.14542565 17.91601562 67.17578125 C17.976571 88.01367887 17.28299754 110.2641798 4.37890625 127.72265625 C-4.08257311 135.79057843 -12.8775846 136.75201985 -24.08984375 136.56640625 C-31.96290133 136.21926967 -37.77666665 132.81708335 -43.30859375 127.28515625 C-56.80284664 111.09205278 -57.85986596 88.72502797 -57.68359375 68.66015625 C-57.67927338 67.73272614 -57.674953 66.80529602 -57.67050171 65.84976196 C-57.41641712 19.42444784 -57.41641712 19.42444784 -41.65234375 2.5078125 C-29.98036166 -8.3418254 -13.11270075 -8.00148561 0 0 Z " fill="#FBFBFB" transform="translate(155.30859375,335.71484375)"/>
<path d="M0 0 C9.24 0 18.48 0 28 0 C28 46.53 28 93.06 28 141 C22.06 141.99 22.06 141.99 16 143 C15.34 143.33 14.68 143.66 14 144 C12.29297265 144.06996014 10.58331997 144.08440154 8.875 144.0625 C7.96492188 144.05347656 7.05484375 144.04445313 6.1171875 144.03515625 C5.41851562 144.02355469 4.71984375 144.01195312 4 144 C-3.18046938 122.05419729 -10.33577804 100.1093189 -17 78 C-16.96970703 78.81750732 -16.93941406 79.63501465 -16.90820312 80.47729492 C-16.2006201 100.00250407 -15.90229376 119.45875164 -16 139 C-25.24 139 -34.48 139 -44 139 C-44 95.44 -44 51.88 -44 7 C-22 2 -22 2 -17 2 C-14.00491804 9.11968876 -11.56424256 16.30266253 -9.36328125 23.703125 C-9.03837204 24.78454773 -8.71346283 25.86597046 -8.37870789 26.98016357 C-7.69840775 29.24847939 -7.02036217 31.51747251 -6.34448242 33.78710938 C-5.31076871 37.25580947 -4.26820257 40.72176105 -3.22460938 44.1875 C-2.56197307 46.40088398 -1.89984587 48.61442046 -1.23828125 50.828125 C-0.77268547 52.37515106 -0.77268547 52.37515106 -0.29768372 53.95343018 C1.08651015 58.61827097 2.37411724 63.15929235 3 68 C3.38987412 49.19940349 2.13795794 30.50898627 0.18139648 11.81274414 C-0.07204524 7.8828624 0 3.93804561 0 0 Z " fill="#FCFCFC" transform="translate(364,328)"/>
<path d="M0 0 C0 13.53 0 27.06 0 41 C-7.92 41 -15.84 41 -24 41 C-24 49.25 -24 57.5 -24 66 C-17.4 66 -10.8 66 -4 66 C-4 75.9 -4 85.8 -4 96 C-10.6 96 -17.2 96 -24 96 C-23.835 98.10375 -23.67 100.2075 -23.5 102.375 C-23.07493452 108.2660483 -22.8775694 114.09612452 -23 120 C-22.01 119.98839844 -21.02 119.97679687 -20 119.96484375 C-18.66666858 119.95545409 -17.33333508 119.94635517 -16 119.9375 C-14.0509375 119.92009766 -14.0509375 119.92009766 -12.0625 119.90234375 C-7.91724089 119.86533251 -4.23884793 120.47014401 0 121 C0 134.53 0 148.06 0 162 C-4.08375 161.71125 -8.1675 161.4225 -12.375 161.125 C-13.60009277 161.03879395 -14.82518555 160.95258789 -16.08740234 160.86376953 C-28.72977503 159.96495061 -41.36214883 158.9721424 -54 158 C-54 107.51 -54 57.02 -54 5 C-12 0 -12 0 0 0 Z " fill="#FBFBFB" transform="translate(559,323)"/>
<path d="M0 0 C19.14 0 38.28 0 58 0 C58 12.21 58 24.42 58 37 C49.42 37 40.84 37 32 37 C32 45.91 32 54.82 32 64 C38.6 64 45.2 64 52 64 C52 75.55 52 87.1 52 99 C45.73 99 39.46 99 33 99 C33 119.46 33 139.92 33 161 C8.625 166.80357143 8.625 166.80357143 1 168 C0.08297369 128.3739959 -0.09063526 88.76054081 -0.0625 49.125 C-0.06164398 47.91054451 -0.06078796 46.69608902 -0.05990601 45.44483185 C-0.04844207 30.29653298 -0.02535043 15.14828887 0 0 Z " fill="#FCFCFC" transform="translate(41,321)"/>
<path d="M0 0 C9.44446871 0 18.62336246 0.0803139 28 0.8125 C29.14122314 0.89870605 30.28244629 0.98491211 31.45825195 1.07373047 C42.70352913 1.9712372 53.82912058 3.43465384 65 5 C65 17.21 65 29.42 65 42 C59.39 42 53.78 42 48 42 C48.03029297 43.20269531 48.06058594 44.40539062 48.09179688 45.64453125 C48.85477997 76.43564972 49.12287221 107.20003147 49 138 C38.44 138 27.88 138 17 138 C16.67 104.34 16.34 70.68 16 36 C10.72 35.67 5.44 35.34 0 35 C0 23.45 0 11.9 0 0 Z " fill="#FCFCFC" transform="translate(252,331)"/>
<path d="M0 0 C0 11.55 0 23.1 0 35 C-5.94 35 -11.88 35 -18 35 C-17.96970703 36.75957031 -17.93941406 38.51914062 -17.90820312 40.33203125 C-17.76795815 48.55462054 -17.63233309 56.77727987 -17.5 65 C-17.48812275 65.73778057 -17.4762455 66.47556114 -17.46400833 67.2356987 C-17.07552502 91.49238474 -16.86807161 115.73983514 -17 140 C-26.9 140 -36.8 140 -47 140 C-47 106.34 -47 72.68 -47 38 C-52.94 38 -58.88 38 -65 38 C-65 26.45 -65 14.9 -65 3 C-43.28532443 1.24612236 -21.80117451 -0.43313592 0 0 Z " fill="#FDFDFD" transform="translate(500,338)"/>
<path d="M0 0 C10.89 0 21.78 0 33 0 C33 45.87 33 91.74 33 139 C22.11 139 11.22 139 0 139 C0 93.13 0 47.26 0 0 Z " fill="#F9F9F9" transform="translate(399,335)"/>
<path d="M0 0 C1.875 0.1875 1.875 0.1875 4 1 C7.11283757 6.57034092 7.1235814 13.30117909 7.14526367 19.54272461 C7.15164352 20.79770248 7.15802338 22.05268036 7.16459656 23.34568787 C7.16612542 24.6979061 7.16723928 26.05012485 7.16796875 27.40234375 C7.17118758 28.8080702 7.17455211 30.21379632 7.17805481 31.61952209 C7.18402061 34.55714698 7.18589727 37.49474254 7.18530273 40.43237305 C7.1852011 44.17897437 7.19886621 47.92538626 7.21607494 51.67194271 C7.22724252 54.57260486 7.22922051 57.47322183 7.22869301 60.37390327 C7.22986546 61.75446794 7.23424551 63.13503407 7.24202538 64.51557732 C7.32295031 80.35409938 7.32295031 80.35409938 4 87 C1.625 86.8125 1.625 86.8125 -1 86 C-3.22080899 81.96417463 -3.29092495 78.03172069 -3.2746582 73.53515625 C-3.27976913 72.80118622 -3.28488007 72.06721619 -3.29014587 71.31100464 C-3.30399955 68.89475255 -3.30308858 66.47878698 -3.30078125 64.0625 C-3.30466999 62.37768447 -3.30900503 60.69286993 -3.31376648 59.00805664 C-3.32121921 55.48092466 -3.32094391 51.9538928 -3.31567383 48.42675781 C-3.3098749 43.91071432 -3.32682484 39.39508039 -3.3500185 34.87910461 C-3.36476029 31.40122082 -3.36562704 27.92343563 -3.36250877 24.44552612 C-3.36302158 22.78058052 -3.36825171 21.11562934 -3.37832069 19.45071411 C-3.39067916 17.12182067 -3.38389798 14.79372475 -3.37231445 12.46484375 C-3.38378006 11.43760696 -3.38378006 11.43760696 -3.39547729 10.38961792 C-3.34836044 6.09647044 -2.52175369 3.47243703 0 0 Z " fill="#0E0E0E" transform="translate(134,358)"/>
<path d="M0 0 C4.95520521 2.57289501 8.49116963 5.98233926 11 11 C11.44408691 14.9079648 11.13704844 16.74548146 9.25 20.25 C7.18547572 22.77330745 6.0134177 23.92377939 3 25 C3 24.34 3 23.68 3 23 C0.36 22.34 -2.28 21.68 -5 21 C-5.08114106 22.77007714 -5.13925505 24.54122098 -5.1875 26.3125 C-5.22230469 27.29863281 -5.25710938 28.28476562 -5.29296875 29.30078125 C-4.95291346 32.43382396 -4.2877651 32.99007717 -2 35 C-1.54814784 38.53950857 -1.57890557 40.33326715 -3.5 43.375 C-3.995 43.91125 -4.49 44.4475 -5 45 C-9.875 44.125 -9.875 44.125 -11 43 C-11.16796875 41.00390625 -11.16796875 41.00390625 -11.1875 38.5625 C-11.20167969 37.75941406 -11.21585937 36.95632813 -11.23046875 36.12890625 C-11 34 -11 34 -9 32 C-8.75712511 29.55987051 -8.75712511 29.55987051 -8.875 26.875 C-8.90207031 25.50988281 -8.90207031 25.50988281 -8.9296875 24.1171875 C-8.95289063 23.41851562 -8.97609375 22.71984375 -9 22 C-8.34 22 -7.68 22 -7 22 C-7 21.34 -7 20.68 -7 20 C-8.134375 19.855625 -9.26875 19.71125 -10.4375 19.5625 C-14 19 -14 19 -15 18 C-15.65611182 13.2059102 -16.29119288 8.14542719 -13.71875 3.87109375 C-9.37387391 -0.22691438 -5.80976693 -0.92218523 0 0 Z " fill="#080808" transform="translate(493,254)"/>
<path d="M0 0 C0.99 0.66 1.98 1.32 3 2 C3 3.98 3 5.96 3 8 C10.92 8 18.84 8 27 8 C20.95558713 14.04441287 16.04033069 17.86594865 7.328125 18.09765625 C5.96871551 18.09105717 4.6093229 18.07920246 3.25 18.0625 C2.55261719 18.05798828 1.85523438 18.05347656 1.13671875 18.04882812 C-0.57555803 18.0371002 -2.28779033 18.01916653 -4 18 C-4 15.69 -4 13.38 -4 11 C-9.69041193 13.02326989 -9.69041193 13.02326989 -14 17 C-14.72197162 19.60611077 -14.72197162 19.60611077 -15 22 C-15.66 21.34 -16.32 20.68 -17 20 C-17.66 20.99 -18.32 21.98 -19 23 C-18.505 14.09 -18.505 14.09 -18 5 C-7.09433962 -0.45283019 -7.09433962 -0.45283019 0 0 Z " fill="#0E0E0E" transform="translate(316,94)"/>
<path d="M0 0 C5 0 5 0 7.1875 1.5625 C11.02582055 6.72437935 11.34241581 12.75357825 11.3125 19 C11.32861328 19.67289062 11.34472656 20.34578125 11.36132812 21.0390625 C11.36721752 27.14047925 9.87006736 31.64733461 6.0625 36.4375 C4 38 4 38 0 38 C0 25.46 0 12.92 0 0 Z " fill="#080808" transform="translate(208,363)"/>
<path d="M0 0 C2.76262928 1.39349554 4.63943925 2.94733848 7 5 C6.67 6.32 6.34 7.64 6 9 C2.7 9.33 -0.6 9.66 -4 10 C-3.75443359 11.48693359 -3.75443359 11.48693359 -3.50390625 13.00390625 C-2.93395774 16.99354579 -2.90182495 20.90621941 -2.9375 24.9375 C-2.94201172 25.62134766 -2.94652344 26.30519531 -2.95117188 27.00976562 C-2.9628044 28.67321604 -2.98073306 30.3366205 -3 32 C-3.99 31.34 -4.98 30.68 -6 30 C-6.34057617 28.12060547 -6.34057617 28.12060547 -6.29296875 25.8671875 C-6.28330078 25.06152344 -6.27363281 24.25585938 -6.26367188 23.42578125 C-6.23853516 22.58402344 -6.21339844 21.74226563 -6.1875 20.875 C-6.17396484 20.02550781 -6.16042969 19.17601562 -6.14648438 18.30078125 C-6.11108219 16.20025163 -6.05727401 14.10004707 -6 12 C-10.62 12 -15.24 12 -20 12 C-18.87308642 6.3654321 -18.87308642 6.3654321 -15.5625 3.75 C-14.94503906 3.24984375 -14.32757813 2.7496875 -13.69140625 2.234375 C-9.49277913 -0.82975011 -5.03039173 -0.70470465 0 0 Z " fill="#181818" transform="translate(406,206)"/>
<path d="M0 0 C0.66 0 1.32 0 2 0 C4.1875 2.3125 4.1875 2.3125 6 5 C5.67 5.99 5.34 6.98 5 8 C4.34 8 3.68 8 3 8 C2.67 11.63 2.34 15.26 2 19 C0.35 19.66 -1.3 20.32 -3 21 C-3.66 20.34 -4.32 19.68 -5 19 C-5 17.68 -5 16.36 -5 15 C-5.99 14.67 -6.98 14.34 -8 14 C-7.67 12.68 -7.34 11.36 -7 10 C-8.32 10 -9.64 10 -11 10 C-13 7 -13 7 -13 4 C-12.31292969 3.96261719 -11.62585938 3.92523438 -10.91796875 3.88671875 C-10.01691406 3.82097656 -9.11585938 3.75523437 -8.1875 3.6875 C-7.29417969 3.62949219 -6.40085937 3.57148438 -5.48046875 3.51171875 C-2.65475171 2.92877555 -1.87494434 2.10016288 0 0 Z " fill="#303030" transform="translate(374,165)"/>
<path d="M0 0 C4.70588235 0.70588235 4.70588235 0.70588235 6 2 C6.14115161 4.67058851 6.04247107 7.32432238 6 10 C6.969375 10.144375 7.93875 10.28875 8.9375 10.4375 C12 11 12 11 13 12 C13 14.64 13 17.28 13 20 C6.4 19.34 -0.2 18.68 -7 18 C-7 17.67 -7 17.34 -7 17 C-5.35 17 -3.7 17 -2 17 C-1.93941406 15.85660156 -1.87882812 14.71320313 -1.81640625 13.53515625 C-1.73201572 12.04425695 -1.64736698 10.55337225 -1.5625 9.0625 C-1.52318359 8.30775391 -1.48386719 7.55300781 -1.44335938 6.77539062 C-1.11328125 1.11328125 -1.11328125 1.11328125 0 0 Z " fill="#3B3B3B" transform="translate(380,223)"/>
<path d="M0 0 C6.17687861 0.95028902 6.17687861 0.95028902 8.390625 3.7734375 C11.0605668 8.831285 11.0605668 8.831285 10.89453125 12.03515625 C9.61013008 14.85635183 7.76071746 15.87841771 5.1875 17.5625 C4.31480469 18.14128906 3.44210938 18.72007812 2.54296875 19.31640625 C1.70378906 19.87199219 0.86460937 20.42757813 0 21 C-1.08861328 21.84884766 -1.08861328 21.84884766 -2.19921875 22.71484375 C-4 24 -4 24 -6 24 C-6.33 22.68 -6.66 21.36 -7 20 C-5.68 20.33 -4.36 20.66 -3 21 C-3 20.01 -3 19.02 -3 18 C-2.071875 17.87625 -2.071875 17.87625 -1.125 17.75 C1.18437567 17.18741541 1.18437567 17.18741541 2.25 14.9375 C2.4975 14.298125 2.745 13.65875 3 13 C1.68 12.67 0.36 12.34 -1 12 C-1.5625 10.0625 -1.5625 10.0625 -2 8 C-1.67 7.67 -1.34 7.34 -1 7 C-0.63239269 4.67182036 -0.29758419 2.3381615 0 0 Z " fill="#2B2B2B" transform="translate(139,285)"/>
<path d="M0 0 C0.33 0 0.66 0 1 0 C1.33 2.97 1.66 5.94 2 9 C2.99 9.33 3.98 9.66 5 10 C5 17.92 5 25.84 5 34 C4.34 34 3.68 34 3 34 C-1.34212126 22.50500935 -2.2781792 12.13176729 0 0 Z " fill="#DDDDDD" transform="translate(317,228)"/>
<path d="M0 0 C0.66 0 1.32 0 2 0 C3.10844754 3.74314209 2.96363452 7.01660971 2.7421875 10.87890625 C3.06850068 13.56357381 4.06387135 14.20359198 6 16 C6.45185216 19.53950857 6.42109443 21.33326715 4.5 24.375 C4.005 24.91125 3.51 25.4475 3 26 C-1.875 25.125 -1.875 25.125 -3 24 C-3.16796875 22.00390625 -3.16796875 22.00390625 -3.1875 19.5625 C-3.20167969 18.75941406 -3.21585937 17.95632813 -3.23046875 17.12890625 C-3 15 -3 15 -1 13 C-0.75712511 10.55987051 -0.75712511 10.55987051 -0.875 7.875 C-0.89304687 6.96492188 -0.91109375 6.05484375 -0.9296875 5.1171875 C-0.95289063 4.41851562 -0.97609375 3.71984375 -1 3 C-0.34 3 0.32 3 1 3 C0.67 2.01 0.34 1.02 0 0 Z " fill="#242424" transform="translate(485,273)"/>
<path d="M0 0 C0.99 0.33 1.98 0.66 3 1 C3 1.66 3 2.32 3 3 C4.32 2.67 5.64 2.34 7 2 C6.814375 2.78375 6.62875 3.5675 6.4375 4.375 C5.74037734 6.97089775 5.74037734 6.97089775 7 9 C9.52733235 9.65555119 9.52733235 9.65555119 12 10 C10.68 11.65 9.36 13.3 8 15 C5.75 14.9375 5.75 14.9375 3 14 C-0.12615863 9.88663338 -1.08025896 8.26407869 -0.75 3.0625 C-0.5025 2.051875 -0.255 1.04125 0 0 Z " fill="#232323" transform="translate(132,288)"/>
<path d="M0 0 C0.66 0 1.32 0 2 0 C0.56015622 3.58412725 -1.12421841 5.03751147 -4.375 7.0625 C-6.71696375 8.53895541 -8.97781473 9.98274034 -11.1640625 11.68359375 C-13 13 -13 13 -15 13 C-15.33 11.68 -15.66 10.36 -16 9 C-14.68 9.33 -13.36 9.66 -12 10 C-12 9.01 -12 8.02 -12 7 C-11.13375 6.87625 -11.13375 6.87625 -10.25 6.75 C-7.82092075 6.13235669 -7.82092075 6.13235669 -6 3.9375 C-4 2 -4 2 0 2 C0 1.34 0 0.68 0 0 Z " fill="#CACACA" transform="translate(148,296)"/>
<path d="M0 0 C0.99 0 1.98 0 3 0 C2.45658377 3.91259689 1.33420118 5.88773176 -1 9 C-1.71433121 11.64934822 -1.71433121 11.64934822 -2 14 C-2.66 12.68 -3.32 11.36 -4 10 C-4.99 10 -5.98 10 -7 10 C-5.90833564 8.3251177 -4.80126363 6.66026877 -3.6875 5 C-3.07261719 4.071875 -2.45773438 3.14375 -1.82421875 2.1875 C-0.92123047 1.1046875 -0.92123047 1.1046875 0 0 Z " fill="#212121" transform="translate(191,236)"/>
<path d="M0 0 C0.66 0.66 1.32 1.32 2 2 C1.625 5.125 1.625 5.125 1 8 C-0.32 7.67 -1.64 7.34 -3 7 C-3.33 7.99 -3.66 8.98 -4 10 C-7 5.25 -7 5.25 -7 3 C-3.535 2.505 -3.535 2.505 0 2 C0 1.34 0 0.68 0 0 Z " fill="#A1A1A1" transform="translate(131,286)"/>
<path d="M0 0 C1.65 0.33 3.3 0.66 5 1 C5.33 3.31 5.66 5.62 6 8 C4.68 8.33 3.36 8.66 2 9 C2 8.34 2 7.68 2 7 C0.68 6.67 -0.64 6.34 -2 6 C-1.67 5.34 -1.34 4.68 -1 4 C-0.34 4.33 0.32 4.66 1 5 C0.67 3.35 0.34 1.7 0 0 Z " fill="#696969" transform="translate(465,238)"/>
<path d="M0 0 C3.63 0 7.26 0 11 0 C11 0.66 11 1.32 11 2 C10.01 2 9.02 2 8 2 C8 2.66 8 3.32 8 4 C6.02 4 4.04 4 2 4 C1.34 2.68 0.68 1.36 0 0 Z " fill="#E4E4E4" transform="translate(361,170)"/>
<path d="M0 0 C0.66 0 1.32 0 2 0 C3.0589856 3.28361721 2.94917046 5.6855999 2.3125 9.0625 C2.09013672 10.34833984 2.09013672 10.34833984 1.86328125 11.66015625 C0.81328509 14.50607344 -0.46174014 15.42328053 -3 17 C-2.67257812 16.44828125 -2.34515625 15.8965625 -2.0078125 15.328125 C-0.83212285 12.61219077 -0.79751362 10.69448241 -0.875 7.75 C-0.89304687 6.85796875 -0.91109375 5.9659375 -0.9296875 5.046875 C-0.95289063 4.37140625 -0.97609375 3.6959375 -1 3 C-0.34 3 0.32 3 1 3 C0.67 2.01 0.34 1.02 0 0 Z " fill="#494949" transform="translate(485,273)"/>
<path d="M0 0 C0.66 0 1.32 0 2 0 C1.34 3.63 0.68 7.26 0 11 C-0.99 11 -1.98 11 -3 11 C-3.3227506 6.37390802 -2.84450614 3.71973879 0 0 Z " fill="#D7D7D7" transform="translate(373,174)"/>
<path d="M0 0 C0.99 0.33 1.98 0.66 3 1 C4.1875 3.5625 4.1875 3.5625 5 6 C3.35 6.33 1.7 6.66 0 7 C-0.66 5.35 -1.32 3.7 -2 2 C-1.34 1.34 -0.68 0.68 0 0 Z " fill="#E0E0E0" transform="translate(139,291)"/>
<path d="M0 0 C0.33 0 0.66 0 1 0 C1.33 2.97 1.66 5.94 2 9 C4.31 9.66 6.62 10.32 9 11 C9 11.66 9 12.32 9 13 C6.36 12.67 3.72 12.34 1 12 C-0.80619523 7.53763531 -1.11658501 4.68965706 0 0 Z " fill="#B0B0B0" transform="translate(477,263)"/>
<path d="M0 0 C1 2 1 2 0.22265625 4.3828125 C-0.16019531 5.28773438 -0.54304688 6.19265625 -0.9375 7.125 C-1.31777344 8.03507812 -1.69804687 8.94515625 -2.08984375 9.8828125 C-2.39019531 10.58148438 -2.69054687 11.28015625 -3 12 C-3.33 11.34 -3.66 10.68 -4 10 C-4.66 9.67 -5.32 9.34 -6 9 C-4.02 6.03 -2.04 3.06 0 0 Z " fill="#3E3E3E" transform="translate(442,267)"/>
<path d="M0 0 C0.66 0.33 1.32 0.66 2 1 C1.38722388 3.96175123 0.74627478 5.38058783 -1 8 C-1.66 8 -2.32 8 -3 8 C-2.45276317 4.62537285 -1.9451 2.91765 0 0 Z " fill="#242424" transform="translate(177,256)"/>
<path d="M0 0 C2.31 0 4.62 0 7 0 C7 0.99 7 1.98 7 3 C5.68 3 4.36 3 3 3 C2.67 3.66 2.34 4.32 2 5 C1.34 3.35 0.68 1.7 0 0 Z " fill="#E6E6E6" transform="translate(124,289)"/>
<path d="M0 0 C0.33 0 0.66 0 1 0 C1 1.65 1 3.3 1 5 C1.66 5 2.32 5 3 5 C2.67 7.31 2.34 9.62 2 12 C2.66 12 3.32 12 4 12 C3.67 12.99 3.34 13.98 3 15 C3 14.34 3 13.68 3 13 C2.34 13 1.68 13 1 13 C0.67 8.71 0.34 4.42 0 0 Z " fill="#656565" transform="translate(102,252)"/>
<path d="M0 0 C0.66 0 1.32 0 2 0 C1.67 2.97 1.34 5.94 1 9 C0.34 8.67 -0.32 8.34 -1 8 C-1.04241723 5.66705225 -1.04092937 3.33297433 -1 1 C-0.67 0.67 -0.34 0.34 0 0 Z " fill="#D7D7D7" transform="translate(346,189)"/>
<path d="M0 0 C1.32 0 2.64 0 4 0 C4 1.65 4 3.3 4 5 C3.01 5.33 2.02 5.66 1 6 C0.67 4.02 0.34 2.04 0 0 Z " fill="#3B3B3B" transform="translate(341,191)"/>
<path d="M0 0 C0.99 0.33 1.98 0.66 3 1 C2.34 1 1.68 1 1 1 C1.33 1.99 1.66 2.98 2 4 C0.35 4.66 -1.3 5.32 -3 6 C-3.33 4.68 -3.66 3.36 -4 2 C-2.68 2.33 -1.36 2.66 0 3 C0 2.01 0 1.02 0 0 Z " fill="#AAAAAA" transform="translate(136,303)"/>
<path d="M0 0 C0.66 0.33 1.32 0.66 2 1 C2 2.98 2 4.96 2 7 C1.01 7.33 0.02 7.66 -1 8 C-0.67 5.36 -0.34 2.72 0 0 Z " fill="#212121" transform="translate(374,177)"/>
</svg>
