<?xml version="1.0" encoding="UTF-8"?>
<svg version="1.1" xmlns="http://www.w3.org/2000/svg" width="2048" height="2048">
<path d="M0 0 C0.70791687 0.23267578 1.41583374 0.46535156 2.14520264 0.70507812 C70.14033708 23.06593401 135.46981515 53.52248825 197 90 C197.8967041 90.52722656 198.7934082 91.05445313 199.71728516 91.59765625 C212.88556649 99.35428183 225.66073727 107.65177662 238.375 116.125 C239.12487183 116.62424988 239.87474365 117.12349976 240.64733887 117.63787842 C254.88205143 127.12911747 268.93016185 136.88941327 282.6875 147.0625 C283.47874268 147.64700928 284.26998535 148.23151855 285.08520508 148.83374023 C292.16684782 154.08679986 299.12758736 159.47664462 306 165 C306.6403418 165.5141748 307.28068359 166.02834961 307.94042969 166.55810547 C315.51529312 172.65204466 323.0267922 178.81350602 330.42260742 185.1237793 C333.69517927 187.91295496 337.01704384 190.62712416 340.375 193.3125 C345.64826087 197.597507 350.59381939 202.19304013 355.52294922 206.86450195 C359.28340028 210.42566644 363.11967032 213.87307783 367.02807617 217.27099609 C378.51973443 227.34700498 389.31176044 238.20883014 400.125 249 C400.71149323 249.58390503 401.29798645 250.16781006 401.9022522 250.76940918 C413.42591654 262.25293403 413.42591654 262.25293403 418.57958984 268.36523438 C420.14261292 270.16413478 421.79888523 271.83180843 423.5 273.5 C426.53594925 276.48872337 429.34508659 279.61706479 432.125 282.84375 C434.17359094 285.19962958 436.27203002 287.5050746 438.375 289.8125 C442.24594954 294.10122488 445.91371894 298.52108705 449.546875 303.01171875 C452.33452876 306.40750716 455.19222322 309.73661662 458.0625 313.0625 C462.83843142 318.61152186 467.48756222 324.23323074 472 330 C472.72993164 330.9269165 472.72993164 330.9269165 473.47460938 331.87255859 C482.55590593 343.40862617 491.38561766 355.11132605 500 367 C500.48082031 367.66193359 500.96164062 368.32386719 501.45703125 369.00585938 C528.83653597 406.83585111 553.12076348 446.768768 575 488 C575.57153809 489.06927734 576.14307617 490.13855469 576.73193359 491.24023438 C599.30854652 533.58144863 618.17216477 577.71449104 634 623 C634.23485107 623.67061462 634.46970215 624.34122925 634.71166992 625.03216553 C661.88227334 702.78192728 678.99535254 783.32586678 686.74285889 865.29797363 C686.98821561 867.87617025 687.24361821 870.4532027 687.50048828 873.03027344 C693.00869898 929.53110888 692.88323959 988.96681892 687.25323486 1045.45031738 C686.98735829 1048.12728244 686.73310759 1050.8051995 686.47998047 1053.48339844 C677.7305521 1144.94344269 656.96071503 1234.92350348 514 1529 C513.52884766 1529.67305176 513.05769531 1530.34610352 512.57226562 1531.03955078 C509.06983521 1536.04185377 505.54225863 1541.0258349 502 1546 C501.46584473 1546.75104004 500.93168945 1547.50208008 500.38134766 1548.27587891 C490.08827123 1562.72289226 479.20349495 1576.5794716 467.9921875 1590.3203125 C465.61561948 1593.23586542 463.26954854 1596.17365227 460.9375 1599.125 C453.62838693 1608.28452145 445.88351359 1617.09609094 438.01171875 1625.7734375 C436.15265331 1627.83104391 434.32071642 1629.90846763 432.5 1632 C428.38398489 1636.71335064 424.22660599 1641.38543053 420 1646 C419.49484863 1646.55171875 418.98969727 1647.1034375 418.46923828 1647.671875 C409.21989625 1657.72728967 399.64945098 1667.45583632 390 1677.125 C389.4159137 1677.7116745 388.83182739 1678.298349 388.2300415 1678.90280151 C382.56635419 1684.58628636 376.91989207 1690.22419804 370.81103516 1695.43408203 C367.49719554 1698.2994052 364.36031468 1701.3556013 361.1875 1704.375 C355.810985 1709.45735538 350.3612441 1714.28394154 344.57421875 1718.89453125 C341.78969652 1721.17200846 339.14586197 1723.56312008 336.5 1726 C331.17026384 1730.89373517 325.63238471 1735.46121283 320 1740 C318.72315877 1741.04459635 317.44716943 1742.09023455 316.171875 1743.13671875 C308.81601095 1749.16446521 301.4118806 1755.08456578 293.74511719 1760.71582031 C291.70310122 1762.21847896 289.66805496 1763.73036788 287.6328125 1765.2421875 C259.99323865 1785.74198885 231.56482715 1805.36483995 202 1823 C201.06994141 1823.55558594 200.13988281 1824.11117188 199.18164062 1824.68359375 C184.33354101 1833.51963978 169.27009223 1841.91695493 154 1850 C152.92878906 1850.5671875 151.85757812 1851.134375 150.75390625 1851.71875 C103.10876372 1876.86012085 53.97443454 1897.67593748 3 1915 C2.35562988 1915.21958374 1.71125977 1915.43916748 1.04736328 1915.66540527 C-83.1868857 1944.32291715 -171.89040768 1960.63936232 -729 1880 C-729.93811523 1879.58169922 -730.87623047 1879.16339844 -731.84277344 1878.73242188 C-760.16744701 1866.06607335 -788.36282642 1852.43823067 -815.11474609 1836.69287109 C-817.79673456 1835.11926236 -820.48842293 1833.5634428 -823.18395996 1832.01318359 C-838.13771115 1823.40908335 -852.80047292 1814.48450196 -867.15234375 1804.89892578 C-870.1357937 1802.90944758 -873.12952915 1800.93616954 -876.125 1798.96484375 C-887.53315804 1791.43758005 -898.77740488 1783.73942962 -909.78173828 1775.6328125 C-912.12952698 1773.90465811 -914.48429452 1772.18630868 -916.83984375 1770.46875 C-936.34097249 1756.21814862 -955.02811955 1741.03458195 -973.40087891 1725.36083984 C-975.05849996 1723.95021698 -976.72229828 1722.54712211 -978.38671875 1721.14453125 C-985.26425612 1715.32671284 -991.95233488 1709.34705008 -998.49951172 1703.15893555 C-1001.82145888 1700.01977496 -1005.18420799 1696.94033212 -1008.60180664 1693.90527344 C-1013.9486586 1689.09803358 -1019.05935379 1684.0853131 -1024.13671875 1678.99609375 C-1025.06039749 1678.07337173 -1025.98407623 1677.15064972 -1026.93574524 1676.19996643 C-1028.87260576 1674.26456483 -1030.8076859 1672.3274062 -1032.74145508 1670.38891602 C-1035.19875809 1667.92590071 -1037.66054759 1665.4674263 -1040.12369061 1663.01025295 C-1042.5054811 1660.63297682 -1044.8834202 1658.25186337 -1047.26171875 1655.87109375 C-1048.13479172 1655.00004501 -1049.00786469 1654.12899628 -1049.90739441 1653.23155212 C-1054.27014023 1648.85219925 -1058.49877749 1644.41628926 -1062.51890564 1639.71920776 C-1064.89010803 1636.96679059 -1067.39001795 1634.33675421 -1069.875 1631.6875 C-1074.31465293 1626.91589105 -1078.51659141 1622.0183201 -1082.59765625 1616.93359375 C-1085.4496097 1613.45096441 -1088.40827123 1610.0722482 -1091.375 1606.6875 C-1096.53952821 1600.77470633 -1101.45972409 1594.7178596 -1106.265625 1588.51171875 C-1108.57944714 1585.52455772 -1110.94560472 1582.58364945 -1113.32568359 1579.64916992 C-1120.26579131 1571.07602865 -1126.8204483 1562.24296217 -1133.3046875 1553.32177734 C-1134.84613052 1551.21072851 -1136.40370036 1549.11310068 -1137.96875 1547.01953125 C-1165.94438225 1509.31627252 -1190.03085932 1468.42058462 -1212 1427 C-1212.58749023 1425.89881836 -1213.17498047 1424.79763672 -1213.78027344 1423.66308594 C-1223.99861186 1404.45956317 -1233.25535388 1384.91495922 -1242 1365 C-1242.29948547 1364.31981812 -1242.59897095 1363.63963623 -1242.90753174 1362.93884277 C-1255.16294092 1335.08269845 -1265.72338755 1306.68444929 -1275.6875 1277.9375 C-1275.94420471 1277.20210999 -1276.20090942 1276.46671997 -1276.46539307 1275.70904541 C-1279.18350458 1267.90066435 -1281.73603542 1260.20284704 -1283 1252 C-1283.66 1252 -1284.32 1252 -1285 1252 C-1313.59064633 1167.66557954 -1322.62867568 1077.71596848 -1326.02996826 925.69946289 C-1326.00145476 923.13104072 -1325.97878526 920.56263154 -1325.95751953 917.99414062 C-1325.32576003 849.64893191 -1314.40531661 781.23882631 -1298 715 C-1297.80577454 714.21320862 -1297.61154907 713.42641724 -1297.41143799 712.61578369 C-1291.25968885 687.75641097 -1284.03574731 663.31301442 -1276 639 C-1275.76261108 638.28030029 -1275.52522217 637.56060059 -1275.28063965 636.8190918 C-1262.87096016 599.25384631 -1247.86584709 562.7800012 -1231 527 C-1230.50886719 525.95457031 -1230.01773437 524.90914062 -1229.51171875 523.83203125 C-1210.48999334 483.42968573 -1188.7544258 444.19133587 -1164 407 C-1163.16638515 405.73716496 -1162.33305371 404.47414278 -1161.5 403.2109375 C-1141.87214675 373.52979356 -1120.74231637 345.09707397 -1098.14453125 317.61328125 C-1096.67671618 315.82463228 -1095.2161071 314.03005224 -1093.76171875 312.23046875 C-1089.3564172 306.79041589 -1084.82915904 301.50867818 -1080.1171875 296.33203125 C-1078.21948831 294.24176111 -1076.35266585 292.13013885 -1074.5 290 C-1070.38762531 285.28397398 -1066.19848095 280.63935536 -1062 276 C-1061.21238281 275.11828125 -1060.42476562 274.2365625 -1059.61328125 273.328125 C-1053.13025892 266.14021051 -1046.35713461 259.28305546 -1039.45727539 252.49414062 C-1035.30609278 248.39082997 -1031.34261738 244.21575516 -1027.57763672 239.75366211 C-1025.95049404 237.9449704 -1024.23098836 236.38295169 -1022.375 234.8125 C-1018.54095095 231.56773087 -1015.02615917 228.0704817 -1011.5 224.5 C-1007.47990034 220.43879153 -1003.43772475 216.4970395 -999.078125 212.796875 C-996.91887606 210.92985524 -994.82403312 209.00052094 -992.73217773 207.05859375 C-987.51966087 202.22092992 -982.18029188 197.6320394 -976.63671875 193.171875 C-974.07579972 191.06243651 -971.62876545 188.87112352 -969.1875 186.625 C-964.81762681 182.64738315 -960.26390464 178.99123406 -955.59887695 175.37207031 C-950.96606507 171.77534061 -946.412485 168.09102512 -941.875 164.375 C-935.37522761 159.0721482 -928.77654998 153.94704556 -922 149 C-921.35901367 148.53158691 -920.71802734 148.06317383 -920.05761719 147.58056641 C-914.72625101 143.69068046 -909.36978141 139.8366478 -904 136 C-903.2265625 135.44683105 -902.453125 134.89366211 -901.65625 134.32373047 C-864.4515251 107.79211103 -825.36671479 84.37133975 -785 63 C-783.97052246 62.45102051 -782.94104492 61.90204102 -781.88037109 61.33642578 C-745.2678172 41.8286456 -706.95744174 25.24939311 -668 11 C-667.32396729 10.75117065 -666.64793457 10.50234131 -665.95141602 10.24597168 C-581.91829156 -20.67151894 -493.57146562 -40.27930357 0 0 Z " fill="#0E345F" transform="translate(1341,66)"/>
<path d="M0 0 C1.70305354 1.41778192 3.42060659 2.81539734 5.14306641 4.20947266 C13.07788821 10.7222962 20.38216016 17.86346292 27.65478516 25.09619141 C28.14310822 25.57924744 28.63143127 26.06230347 29.134552 26.55999756 C35.09478536 32.47043583 40.68416741 38.55898778 45.90673828 45.13891602 C47.7023867 47.3606006 49.57303293 49.45405001 51.52978516 51.53369141 C67.57001495 69.42717484 80.18308918 90.62439588 91.84228516 111.53369141 C92.29071777 112.33194336 92.73915039 113.13019531 93.20117188 113.95263672 C121.12245346 164.04403926 137.66143888 223.32053552 138.08056641 280.74462891 C138.09031494 281.86347977 138.10006348 282.98233063 138.11010742 284.13508606 C138.26646505 306.7063842 138.39987997 328.88144238 134.44091797 351.16113281 C133.81654081 354.67872911 133.25969847 358.20300726 132.70947266 361.73291016 C127.53077863 393.90530169 117.29315644 424.89687927 103.84228516 454.53369141 C103.4869873 455.32791504 103.13168945 456.12213867 102.765625 456.94042969 C87.76240558 490.35637929 66.99641692 521.0582534 42.84228516 548.53369141 C42.04177734 549.44634766 41.24126953 550.35900391 40.41650391 551.29931641 C28.95863838 564.05799715 16.96136976 577.02519559 3.38525391 587.54931641 C0.96135538 589.44077639 -1.35702993 591.42584777 -3.67260742 593.44750977 C-11.72729694 600.44452512 -20.32574896 606.56099505 -29.15771484 612.53369141 C-29.84349609 612.99775391 -30.52927734 613.46181641 -31.23583984 613.93994141 C-57.54381444 631.61247396 -85.6313613 646.0613007 -115.53320312 656.60205078 C-117.90679854 657.44462195 -120.26599867 658.31670263 -122.62255859 659.20556641 C-150.28391463 669.53134345 -179.86972335 674.58895425 -209.15771484 677.53369141 C-210.15810791 677.63520508 -211.15850098 677.73671875 -212.18920898 677.84130859 C-218.0928874 678.37195597 -223.86762508 678.54899597 -229.79443359 678.39306641 C-246.31253595 678.06396389 -257.53781215 678.94457401 -270.12890625 690.7109375 C-273.59305487 693.82325201 -277.41435054 696.42276426 -281.22021484 699.09619141 C-282.72270604 700.17917901 -284.22401788 701.26380475 -285.72412109 702.35009766 C-290.70994594 705.93914951 -295.73193943 709.4759845 -300.75683594 713.01000977 C-306.75094669 717.2317132 -312.69681127 721.51813842 -318.63598633 725.81665039 C-327.47434475 732.2133991 -336.34775338 738.55855379 -345.26855469 744.83984375 C-354.95472243 751.66062154 -364.565345 758.58180186 -374.15771484 765.53369141 C-383.65453898 772.41633599 -393.16927994 779.2679108 -402.76342773 786.0144043 C-407.92361679 789.64829827 -413.04709633 793.33047214 -418.15771484 797.03369141 C-423.96338044 801.24055064 -429.79293203 805.40964413 -435.65771484 809.53369141 C-444.54848057 815.78802017 -453.35604486 822.15484671 -462.15771484 828.53369141 C-471.65453898 835.41633599 -481.16927994 842.2679108 -490.76342773 849.0144043 C-495.92361679 852.64829827 -501.04709633 856.33047214 -506.15771484 860.03369141 C-512.65829968 864.74409797 -519.19635365 869.39666748 -525.76318359 874.01416016 C-530.92338205 877.64823707 -536.04700424 881.33040541 -541.15771484 885.03369141 C-547.65829968 889.74409797 -554.19635365 894.39666748 -560.76318359 899.01416016 C-565.92338283 902.64823763 -571.04696947 906.33045225 -576.15771484 910.03369141 C-582.27727426 914.46721568 -588.42065372 918.86454828 -594.59521484 923.22119141 C-595.31128906 923.72650391 -596.02736328 924.23181641 -596.76513672 924.75244141 C-599.54510046 926.71001044 -602.32838122 928.64746899 -605.15771484 930.53369141 C-605.50848592 933.07553037 -605.66874521 935.40014495 -605.71240234 937.95166016 C-605.76688986 939.51711109 -605.82201202 941.08254002 -605.87768555 942.64794922 C-605.91449936 943.88865173 -605.91449936 943.88865173 -605.95205688 945.15441895 C-606.72864543 969.86774063 -609.80949332 993.84466958 -617.15771484 1017.53369141 C-617.66529042 1019.49007493 -618.16621334 1021.44820787 -618.65771484 1023.40869141 C-620.28832279 1029.35772259 -622.70347976 1034.8846665 -625.15771484 1040.53369141 C-625.81727098 1042.12009928 -626.47465505 1043.70741119 -627.13037109 1045.29541016 C-637.4416084 1070.09723659 -650.50224121 1092.45885496 -667.15771484 1113.53369141 C-667.60099121 1114.09556152 -668.04426758 1114.65743164 -668.50097656 1115.23632812 C-681.40345021 1131.37284216 -696.70348434 1147.23640245 -713.49365234 1159.32714844 C-715.28838709 1160.62843645 -717.05145064 1161.9664701 -718.81396484 1163.31103516 C-738.96697597 1178.57553521 -761.67490311 1190.4369064 -785.14453125 1199.73144531 C-786.92191576 1200.43972636 -788.68734816 1201.17784304 -790.45068359 1201.92041016 C-807.03078304 1208.71975236 -824.66815381 1212.41169879 -842.32373047 1215.09570312 C-845.03988631 1215.51548117 -847.74616594 1215.97717313 -850.45458984 1216.44384766 C-876.23361644 1220.61894195 -903.46396799 1219.84524 -929.15771484 1215.53369141 C-930.15174316 1215.37271973 -931.14577148 1215.21174805 -932.16992188 1215.04589844 C-978.75409564 1207.29304074 -1023.53537165 1187.43240128 -1060.15771484 1157.53369141 C-1060.67849609 1157.10910645 -1061.19927734 1156.68452148 -1061.73583984 1156.24707031 C-1073.24174508 1146.81823231 -1084.64005854 1137.00000579 -1094.15771484 1125.53369141 C-1095.02396484 1124.55529297 -1095.89021484 1123.57689453 -1096.78271484 1122.56884766 C-1123.35948923 1092.50920312 -1142.041676 1057.00022178 -1153.65771484 1018.67822266 C-1153.91141846 1017.87698975 -1154.16512207 1017.07575684 -1154.42651367 1016.25024414 C-1155.15771484 1013.53369141 -1155.15771484 1013.53369141 -1155.67602539 1010.05737305 C-1156.70928504 1004.46132177 -1157.51782229 1000.74538834 -1162.22265625 997.26904297 C-1166.31582689 995.15894276 -1170.63149034 993.67544066 -1174.97021484 992.15869141 C-1176.59060983 991.54569131 -1178.20882688 990.92690688 -1179.82495117 990.30273438 C-1183.2155613 988.99915613 -1186.61451951 987.7222446 -1190.02197266 986.46337891 C-1197.40460735 983.71609285 -1204.66613385 980.67915775 -1211.9390564 977.65618896 C-1215.18690762 976.30975907 -1218.44090205 974.9785467 -1221.6950531 973.64743042 C-1233.55876026 968.79443154 -1245.3968931 963.88017366 -1257.23431396 958.96350098 C-1269.79948473 953.74540977 -1282.37893534 948.563443 -1294.97021484 943.40869141 C-1308.12825572 938.02178947 -1321.26417682 932.58468985 -1334.38336182 927.10388184 C-1346.01913693 922.24403395 -1357.67550496 917.43644668 -1369.34521484 912.65869141 C-1382.65008133 907.21106997 -1395.94195746 901.7333634 -1409.22021484 896.22119141 C-1435.91355083 885.14145199 -1462.60792884 874.06226652 -1489.35440063 863.11125183 C-1493.4665397 861.42717989 -1497.57262205 859.73120389 -1501.66650391 858.00317383 C-1508.79386107 855.01134726 -1515.83386717 852.23024723 -1523.26318359 850.08056641 C-1539.69439818 845.08363241 -1539.69439818 845.08363241 -1544.01953125 838.85058594 C-1547.33285433 832.02244664 -1548.91786902 824.85879256 -1550.36572266 817.44433594 C-1551.14914823 813.57599106 -1552.10919984 809.80505528 -1553.14990234 805.99853516 C-1576.89109672 718.49096352 -1583.38498946 625.85831752 -1582.15771484 482.53369141 C-1578.0923582 481.17857253 -1575.70479603 482.6676208 -1571.95068359 484.26806641 C-1571.21514755 484.57262253 -1570.47961151 484.87717865 -1569.7217865 485.19096375 C-1567.25915491 486.21305057 -1564.80234712 487.24846144 -1562.34521484 488.28369141 C-1560.59870259 489.0112849 -1558.85178628 489.73790914 -1557.10449219 490.46362305 C-1553.37963881 492.01199421 -1549.65691168 493.5653341 -1545.93554688 495.12207031 C-1540.2236062 497.50933549 -1534.50261965 499.87426993 -1528.77880859 502.23291016 C-1527.83509399 502.62184952 -1526.89137939 503.01078888 -1525.91906738 503.41151428 C-1524.00389769 504.20079356 -1522.08871618 504.99004418 -1520.17352295 505.77926636 C-1505.36228797 511.88616842 -1490.5633329 518.02272386 -1475.76647949 524.16436768 C-1455.25363412 532.67819666 -1434.7107842 541.11750122 -1414.15771484 549.53369141 C-1407.69894703 552.17846515 -1401.24046744 554.82393965 -1394.78271484 557.47119141 C-1393.58071442 557.96391037 -1393.58071442 557.96391037 -1392.35443115 558.46658325 C-1378.91170672 563.97860978 -1365.48818089 569.53618732 -1352.07022095 575.10818481 C-1338.91963834 580.56850068 -1325.75429787 585.99161903 -1312.57763672 591.38867188 C-1298.1124822 597.31397989 -1283.66303709 603.27680488 -1269.21734619 609.24938965 C-1255.9352712 614.74037125 -1242.64515923 620.21114275 -1229.34521484 625.65869141 C-1215.23701124 631.43743466 -1201.14831275 637.2619447 -1187.06829834 643.10900879 C-1173.91668596 648.56973773 -1160.75038275 653.9934398 -1147.57260132 659.39068604 C-1137.09649436 663.68172619 -1126.62585666 667.98559519 -1116.16511536 672.3139801 C-1111.34822069 674.30705762 -1106.52982104 676.29626488 -1101.70727539 678.27563477 C-1092.72366841 681.96674247 -1083.75783783 685.68794851 -1074.84288025 689.54248047 C-1070.80007882 691.28677315 -1066.7475725 693.0077683 -1062.69369507 694.72613525 C-1060.76876583 695.54944727 -1058.84855381 696.38388601 -1056.9335022 697.22991943 C-1054.28248156 698.4000868 -1051.61771521 699.53098642 -1048.94677734 700.65478516 C-1048.17175369 701.00879898 -1047.39673004 701.36281281 -1046.59822083 701.72755432 C-1043.4153801 703.02949545 -1041.30179037 703.87178227 -1037.92921448 702.87513733 C-1035.89424176 701.87702212 -1034.03924902 700.79440009 -1032.15771484 699.53369141 C-1031.27470703 698.97810547 -1030.39169922 698.42251953 -1029.48193359 697.85009766 C-1028.61181641 697.27130859 -1027.74169922 696.69251953 -1026.84521484 696.09619141 C-1002.28554606 680.85324152 -975.15414785 671.12936749 -947.15771484 664.53369141 C-946.3157959 664.33259766 -945.47387695 664.13150391 -944.60644531 663.92431641 C-930.83586021 660.67837319 -917.02381576 658.30772457 -902.83590698 658.63554382 C-899.70977596 658.70395986 -896.58379262 658.7227441 -893.45703125 658.7437439 C-891.89890647 658.77009785 -890.34097648 658.82231385 -888.78466797 658.90200806 C-880.21689893 659.50690482 -880.21689893 659.50690482 -872.57327271 656.27459717 C-869.54852236 652.98653136 -867.33867148 649.24936137 -865.18527222 645.35375977 C-863.71845108 642.75564231 -862.00852613 640.3507905 -860.28662109 637.91650391 C-859.09632377 636.1649149 -857.90752825 634.41230443 -856.72021484 632.65869141 C-855.41834649 630.7431807 -854.11626197 628.82781688 -852.81396484 626.91259766 C-852.18876953 625.99236816 -851.56357422 625.07213867 -850.91943359 624.12402344 C-844.15049681 614.17136001 -837.2899946 604.28319534 -830.40771484 594.40869141 C-823.14083817 583.98057663 -815.97144876 573.4883304 -808.82275391 562.97900391 C-802.08108137 553.07803732 -795.25680019 543.23556893 -788.40771484 533.40869141 C-781.7504988 523.85545195 -775.17109951 514.25149091 -768.62255859 504.62353516 C-764.25430685 498.20132929 -759.85218771 491.80265595 -755.44628906 485.40625 C-754.1619775 483.53988591 -752.88016134 481.67183336 -751.59912109 479.80322266 C-746.23480828 471.98194198 -740.83140373 464.1889244 -735.40771484 456.40869141 C-728.14073331 445.98065064 -720.97144786 435.48832908 -713.82275391 424.97900391 C-707.08108137 415.07803732 -700.25680019 405.23556893 -693.40771484 395.40869141 C-686.14083817 384.98057663 -678.97144876 374.4883304 -671.82275391 363.97900391 C-665.75339104 355.06540589 -659.6301298 346.18959425 -653.45263672 337.35058594 C-652.08328768 335.38059359 -650.72396667 333.40359473 -649.37451172 331.41992188 C-646.04459556 326.54488017 -642.66029191 321.86422025 -638.83349609 317.36572266 C-627.10876164 303.06769955 -626.77362172 290.88760007 -627.13774109 273.28063965 C-627.26519216 265.10648953 -626.49915138 257.08029872 -625.53271484 248.97119141 C-625.44740509 248.2484906 -625.36209534 247.52578979 -625.27420044 246.78118896 C-622.20848441 221.42195926 -616.40311499 196.70847105 -608.15771484 172.53369141 C-607.80402832 171.47617676 -607.4503418 170.41866211 -607.0859375 169.32910156 C-594.95052878 133.40937286 -576.91166968 98.86953579 -554.15771484 68.53369141 C-553.73329102 67.96054199 -553.30886719 67.38739258 -552.87158203 66.796875 C-546.37090431 58.03388036 -539.3761678 49.71058038 -532.15771484 41.53369141 C-531.17158203 40.41401978 -531.17158203 40.41401978 -530.16552734 39.27172852 C-524.40671831 32.79754345 -518.40673317 26.59948032 -512.28271484 20.47119141 C-510.90792969 19.07803711 -510.90792969 19.07803711 -509.50537109 17.65673828 C-504.11209929 12.25208827 -498.55897791 7.25182668 -492.59570312 2.48364258 C-490.63619119 0.91638624 -488.7231923 -0.67563933 -486.83740234 -2.32958984 C-469.43327605 -17.52790069 -449.62168705 -30.31121419 -429.32128906 -41.29199219 C-427.83716472 -42.09752571 -426.35720645 -42.91076843 -424.88085938 -43.73046875 C-383.96834754 -66.42787254 -336.65065276 -82.12373456 -289.90185547 -86.22216797 C-287.09202354 -86.47215302 -284.29030398 -86.77172327 -281.48583984 -87.07568359 C-182.50026895 -97.10567381 -80.6969412 -66.51900274 0 0 Z " fill="#FEFEFE" transform="translate(1598.15771484375,476.46630859375)"/>
<path d="M0 0 C0.7415332 0.37350586 1.48306641 0.74701172 2.24707031 1.13183594 C26.20640472 13.39223671 47.27403184 30.98250053 64 52 C64.78375 52.94359375 65.5675 53.8871875 66.375 54.859375 C82.60167043 74.9346788 93.60999157 99.09200797 100 124 C100.27602051 125.02722168 100.27602051 125.02722168 100.55761719 126.07519531 C109.81882627 160.64714335 108.8899482 200.40161043 96 234 C95.72317383 234.7518457 95.44634766 235.50369141 95.16113281 236.27832031 C85.54265972 262.34698198 71.83143732 284.59430699 53 305 C52.53239258 305.50756836 52.06478516 306.01513672 51.58300781 306.53808594 C44.39657752 314.24189782 36.47578023 320.79038539 28 327 C27.43361816 327.41604492 26.86723633 327.83208984 26.28369141 328.26074219 C-14.47960624 357.76003534 -65.96303051 369.56315541 -115.62866211 362.54858398 C-154.98856872 356.16014422 -189.51013481 337.57975573 -218.75 310.9375 C-219.26908936 310.46707275 -219.78817871 309.99664551 -220.32299805 309.51196289 C-245.31546645 286.37814302 -261.26267891 255.18907114 -271 223 C-271.48919922 221.45119141 -271.48919922 221.45119141 -271.98828125 219.87109375 C-276.64330153 204.23499999 -277.54566901 188.45378784 -277.4375 172.25 C-277.43445862 171.28199463 -277.43141724 170.31398926 -277.42828369 169.31665039 C-277.36268684 155.20020886 -276.81340568 141.67042951 -273 128 C-272.77505859 127.15195801 -272.55011719 126.30391602 -272.31835938 125.43017578 C-260.65974462 81.93519224 -235.20727269 42.03608186 -198 16 C-197.42604492 15.59233398 -196.85208984 15.18466797 -196.26074219 14.76464844 C-139.02422128 -25.70154079 -62.72353186 -31.72125431 0 0 Z " fill="#FEFEFE" transform="translate(1440,599)"/>
<path d="M0 0 C1.32402832 0.22478027 1.32402832 0.22478027 2.67480469 0.45410156 C14.09343353 2.42774347 25.05842392 5.20349828 36 9 C37.24885986 9.42539062 37.24885986 9.42539062 38.52294922 9.859375 C68.54232221 20.1399076 94.93669581 34.89717165 119.625 54.8125 C120.26381104 55.32723877 120.90262207 55.84197754 121.56079102 56.37231445 C125.39074239 59.51811169 128.93674569 62.840308 132.38623047 66.39941406 C134.01857116 68.01841944 135.72157067 69.48189739 137.5 70.9375 C140.63034834 73.58413005 143.29038338 76.44068149 145.9375 79.56640625 C147.49979342 81.40979413 149.0809191 83.2232966 150.6875 85.02734375 C166.89570541 103.35866013 179.5846783 123.9045604 190 146 C190.3000293 146.63196289 190.60005859 147.26392578 190.90917969 147.91503906 C200.07510862 167.41637751 205.82874496 187.89990736 210 209 C210.18079102 209.90814453 210.36158203 210.81628906 210.54785156 211.75195312 C220.42190832 264.16493828 209.8218649 322.36393296 184.98681641 369.12792969 C184.00333174 370.99367942 183.05180144 372.87298831 182.10546875 374.7578125 C177.19892124 384.40995466 171.36460896 393.2503566 165 402 C164.36143066 402.87833496 164.36143066 402.87833496 163.70996094 403.77441406 C158.39045147 411.02375339 152.66206895 417.75173672 146.51171875 424.30078125 C144.47639148 426.48804586 142.53878948 428.70817803 140.625 431 C124.49538521 449.50499749 103.14561345 463.9047931 82 476 C81.35611328 476.37125 80.71222656 476.7425 80.04882812 477.125 C67.88079093 484.07127297 55.16587533 489.2538269 42 494 C40.64430908 494.49161621 40.64430908 494.49161621 39.26123047 494.99316406 C24.17130616 500.3715871 8.82282882 503.59750412 -7 506 C-8.22130615 506.18691406 -9.4426123 506.37382813 -10.70092773 506.56640625 C-21.25126111 508.04114864 -31.66722905 508.39904863 -42.3125 508.375 C-43.18340271 508.37478851 -44.05430542 508.37457703 -44.95159912 508.37435913 C-60.28431035 508.3374217 -74.94239385 507.05033462 -90 504 C-90.96486328 503.81276367 -91.92972656 503.62552734 -92.92382812 503.43261719 C-131.26598604 495.88669284 -167.19113738 478.95766101 -198 455 C-198.82886719 454.36578125 -199.65773438 453.7315625 -200.51171875 453.078125 C-215.7557908 441.1970769 -230.22773399 427.33533263 -242 412 C-242.51288574 411.34177246 -243.02577148 410.68354492 -243.55419922 410.00537109 C-252.90500529 397.9505224 -260.80238422 385.44332382 -268 372 C-268.57572754 370.93918213 -268.57572754 370.93918213 -269.16308594 369.85693359 C-283.79207934 342.72379153 -292.37187027 312.4968518 -296 282 C-296.10094971 281.24654297 -296.20189941 280.49308594 -296.3059082 279.71679688 C-297.39143998 270.73657706 -297.2875601 261.65743596 -297.3125 252.625 C-297.31511841 251.71837616 -297.31773682 250.81175232 -297.32043457 249.87765503 C-297.32534992 233.92962229 -296.01679612 218.68951214 -293 203 C-292.85578613 202.18241211 -292.71157227 201.36482422 -292.56298828 200.52246094 C-282.5286093 143.72179445 -247.88589687 89.63510245 -203 54 C-202.24589844 53.36707031 -201.49179688 52.73414063 -200.71484375 52.08203125 C-187.36359837 40.97507755 -172.36346853 32.01092758 -157 24 C-156.2889209 23.62278809 -155.5778418 23.24557617 -154.84521484 22.85693359 C-135.28319767 12.58854369 -112.77566832 4.83230422 -91 1 C-89.56092285 0.73364746 -89.56092285 0.73364746 -88.09277344 0.46191406 C-59.15729286 -4.73298148 -28.97987347 -5.10901236 0 0 Z M-117 75 C-117.67836914 75.28568848 -118.35673828 75.57137695 -119.05566406 75.86572266 C-130.47830457 80.76227374 -140.80804806 86.91096594 -151 94 C-151.56589844 94.3933252 -152.13179687 94.78665039 -152.71484375 95.19189453 C-160.72744546 100.8315711 -167.9457809 107.23131409 -175 114 C-175.53802246 114.51079102 -176.07604492 115.02158203 -176.63037109 115.54785156 C-207.0708312 144.56686287 -224.9818235 182.836587 -232 224 C-232.1750708 224.88171875 -232.3501416 225.7634375 -232.53051758 226.671875 C-233.13265444 230.94037716 -233.20038609 235.13151721 -233.23828125 239.4375 C-233.24812042 240.34643509 -233.25795959 241.25537018 -233.26809692 242.19184875 C-233.68621211 269.36148998 -233.68621211 269.36148998 -229 296 C-228.75330566 296.92925293 -228.50661133 297.85850586 -228.25244141 298.81591797 C-224.68558903 312.09581955 -220.07733253 324.67089299 -214 337 C-213.47019531 338.08619629 -213.47019531 338.08619629 -212.9296875 339.19433594 C-202.18708927 360.99833252 -186.73279559 381.45144091 -168 397 C-167.15308594 397.74636719 -166.30617188 398.49273438 -165.43359375 399.26171875 C-125.73595176 433.66634181 -74.68009066 447.34071472 -22.92626953 443.7890625 C26.34406835 439.24817606 73.69550582 413.58995007 105.4375 375.875 C106.97640309 373.93083418 108.49566076 371.97103194 110 370 C110.44956055 369.41573242 110.89912109 368.83146484 111.36230469 368.22949219 C128.4126812 345.84582255 140.76155125 319.69378184 146 292 C146.18046875 291.09862305 146.3609375 290.19724609 146.546875 289.26855469 C156.32708459 239.65711989 146.31951515 187.91638152 118.22607422 145.80322266 C106.70682595 128.86153255 93.15514943 113.60591205 77 101 C76.44957031 100.5678418 75.89914062 100.13568359 75.33203125 99.69042969 C20.84835614 57.23601543 -53.55574053 48.18023653 -117 75 Z " fill="#0A1D47" transform="translate(1396,519)"/>
<path d="M0 0 C1.13973267 0.00382187 1.13973267 0.00382187 2.30249023 0.00772095 C55.44219422 0.31438455 106.80809513 18.98501493 146.1015625 55.2265625 C148.2139424 57.1647255 150.37498072 59.02273271 152.5625 60.875 C156.56998973 64.3785539 159.96660432 68.23360025 163.375 72.3125 C164.53515625 73.65828125 164.53515625 73.65828125 165.71875 75.03125 C202.88426365 118.62043268 220.53423093 174.36228394 217.375 231.3125 C216.55299737 240.40274365 215.0568883 249.34751645 213.375 258.3125 C213.10650265 259.88797515 212.83824816 261.46349173 212.5703125 263.0390625 C208.9719899 282.6269902 200.95698046 301.92081596 191.375 319.3125 C191.05853516 319.90240723 190.74207031 320.49231445 190.41601562 321.10009766 C162.26103519 373.56944507 113.5489037 408.0817677 57.375 425.3125 C6.0015974 440.79675972 -52.6964449 432.37457457 -99.625 407.3125 C-114.8611462 398.98376431 -128.63405078 388.79306057 -141.625 377.3125 C-142.41052246 376.62172363 -142.41052246 376.62172363 -143.21191406 375.91699219 C-160.97069915 360.22548363 -174.62727897 341.98076622 -186.37939453 321.48339844 C-187.19359118 320.06437912 -188.01713204 318.65066982 -188.85107422 317.24316406 C-191.625 312.53198981 -191.625 312.53198981 -191.625 310.3125 C-186.71794996 311.01123257 -182.44858398 312.92643213 -177.92578125 314.85546875 C-176.64371796 315.3954248 -176.64371796 315.3954248 -175.33575439 315.94628906 C-173.49521427 316.72197752 -171.65555141 317.49975017 -169.81668091 318.27938843 C-164.92853275 320.35168968 -160.03403244 322.40890657 -155.140625 324.46875 C-154.15618912 324.8836821 -153.17175323 325.2986142 -152.15748596 325.72612 C-143.52000373 329.36453742 -134.85943964 332.94464243 -126.1875 336.5 C-117.53265109 340.049446 -108.88485919 343.61387045 -100.2578125 347.23046875 C-69.18301694 361.0148221 -69.18301694 361.0148221 -36.625 370.3125 C-35.70855713 370.48765137 -34.79211426 370.66280273 -33.84790039 370.84326172 C-24.90803911 372.39351069 -16.10528343 372.70903134 -7.0625 372.6875 C-6.31853973 372.68795319 -5.57457947 372.68840637 -4.80807495 372.68887329 C7.33068673 372.66721757 18.62772595 371.51294812 30.375 368.3125 C31.90060547 367.95478516 31.90060547 367.95478516 33.45703125 367.58984375 C71.27255198 358.34358905 106.14371526 333.41344903 126.61230469 300.31152344 C129.36332067 295.72942419 131.91690947 291.05730273 134.375 286.3125 C134.91769531 285.26964844 135.46039062 284.22679687 136.01953125 283.15234375 C151.07016153 252.37598895 156.21834681 215.79530391 148.375 182.3125 C148.0818789 180.96878322 147.78891132 179.62503295 147.49609375 178.28125 C141.0176562 149.62915539 126.68643893 124.35773369 106.375 103.3125 C105.58609375 102.46042969 104.7971875 101.60835937 103.984375 100.73046875 C88.34149585 84.28472659 68.00509925 73.32441492 47.1875 64.875 C45.5477026 64.1981699 43.9083942 63.52015408 42.26953125 62.84106445 C38.7849179 61.39968746 35.29732909 59.9658806 31.80712891 58.53808594 C26.29607283 56.28281098 20.79390518 54.00638902 15.29296875 51.7265625 C0.45104089 45.57922396 -14.40169574 39.45819686 -29.26055908 33.35191345 C-33.48987895 31.6133009 -37.71826774 29.87243112 -41.9465332 28.1312561 C-44.93152219 26.90317311 -47.91788593 25.67847755 -50.90429688 24.45385742 C-52.73575155 23.69988789 -54.56713552 22.94574658 -56.3984375 22.19140625 C-57.21722382 21.85680389 -58.03601013 21.52220154 -58.87960815 21.17745972 C-63.91617289 19.09747157 -68.77692153 16.80153986 -73.625 14.3125 C-70.81344922 11.50094922 -67.48260174 10.92279722 -63.75 9.875 C-62.97406494 9.65400635 -62.19812988 9.4330127 -61.39868164 9.20532227 C-59.84156202 8.76492643 -58.28338416 8.32825338 -56.72412109 7.89550781 C-55.03852222 7.42735125 -53.35652436 6.94623816 -51.67578125 6.4609375 C-48.67458344 5.64446814 -45.66626784 4.96588423 -42.625 4.3125 C-41.50182373 4.05871582 -41.50182373 4.05871582 -40.35595703 3.79980469 C-26.88224813 0.84133986 -13.74469535 -0.05181672 0 0 Z " fill="#144679" transform="translate(710.625,1198.6875)"/>
</svg>
