<?xml version="1.0" encoding="UTF-8"?>
<svg version="1.1" xmlns="http://www.w3.org/2000/svg" width="512" height="512">
<path d="M0 0 C0.68718821 -0.00320648 1.37437642 -0.00641296 2.08238852 -0.0097166 C4.40808159 -0.01808389 6.73352161 -0.01206907 9.05921936 -0.00622082 C10.73419077 -0.00923844 12.40916081 -0.01312595 14.08412838 -0.01781338 C18.70481094 -0.02815228 23.32541642 -0.02589668 27.94610548 -0.02163279 C32.9223055 -0.01917621 37.89848643 -0.02816634 42.87467957 -0.03567028 C52.63014595 -0.04844885 62.38558486 -0.05020708 72.14105821 -0.04787002 C80.0662455 -0.04609034 87.99142442 -0.04782895 95.91661072 -0.05209446 C97.04255896 -0.05268965 98.16850719 -0.05328484 99.32857507 -0.05389806 C101.61558255 -0.05510975 103.90259002 -0.05632389 106.18959749 -0.05754044 C127.65844111 -0.068428 149.12726905 -0.06624765 170.59611356 -0.06015559 C190.259362 -0.05498445 209.92256093 -0.06624492 229.58579957 -0.08525381 C249.75207855 -0.10460033 269.91833406 -0.11289388 290.08462238 -0.10913056 C301.41608623 -0.10721378 312.74750792 -0.10975238 324.07896423 -0.1238451 C333.72459769 -0.1357193 343.37016305 -0.1372085 353.01579738 -0.12505493 C357.94155148 -0.11913846 362.86718077 -0.11814265 367.79292679 -0.13005733 C372.29572789 -0.14082286 376.79829856 -0.13792546 381.30108845 -0.12379565 C382.93631574 -0.12112275 384.57156056 -0.12359537 386.20677078 -0.13153151 C388.4173574 -0.14152149 390.62712473 -0.13331709 392.837677 -0.12025452 C394.06916505 -0.12030953 395.3006531 -0.12036455 396.56945896 -0.12042123 C397.50975421 0.00329472 398.45004946 0.12701067 399.4188385 0.25447559 C401.84705703 3.89680339 401.66937006 5.585175 401.67052078 9.92465687 C401.67342766 10.60932258 401.67633455 11.29398829 401.67932951 11.99940145 C401.68667104 14.31050689 401.67966699 16.62135028 401.67280579 18.93245411 C401.67510858 20.59932593 401.67828388 22.26619674 401.68226027 23.93306541 C401.69064185 28.52675876 401.68646781 33.12036945 401.68028784 37.71406317 C401.67577805 42.66299512 401.68273976 47.61191247 401.68824768 52.56084156 C401.69715912 62.26102983 401.69521189 71.96118722 401.6894224 81.66137671 C401.68491279 89.54219457 401.68428996 97.42300374 401.68647003 105.30382252 C401.6867765 106.42379582 401.68708296 107.54376912 401.68739872 108.69768101 C401.68803814 110.97260722 401.68868657 113.24753342 401.6893439 115.52245963 C401.69505232 136.87402401 401.68848128 158.22557125 401.67774317 179.57713282 C401.66880719 197.9132739 401.67035909 216.24938966 401.67958069 234.58553028 C401.69027428 255.85866017 401.69450295 277.13177502 401.68835616 298.40490723 C401.68771904 300.67164771 401.6870903 302.93838819 401.68647003 305.20512867 C401.68616148 306.32052212 401.68585293 307.43591557 401.68553503 308.58510882 C401.68380535 316.460019 401.68672905 324.33491967 401.69142914 332.20982838 C401.69702787 341.80159999 401.69554282 351.39333886 401.68486765 360.98510671 C401.67959732 365.88261198 401.67757726 370.78006257 401.68416595 375.67756748 C401.69009947 380.15566661 401.68689355 384.63366007 401.67621085 389.11174953 C401.67396574 390.73686966 401.67513778 392.3619986 401.67996243 393.98711312 C401.68599354 396.18630269 401.67985779 398.38512437 401.67052078 400.58429432 C401.67019608 401.80878505 401.66987137 403.03327578 401.66953683 404.29487228 C401.4188385 407.25447559 401.4188385 407.25447559 399.4188385 410.25447559 C396.56945896 410.62937242 396.56945896 410.62937242 392.837677 410.6292057 C392.15048879 410.63326643 391.46330058 410.63732716 390.75528848 410.64151093 C388.42947659 410.65153613 386.10425695 410.63998517 383.77845764 410.6286974 C382.1034854 410.63143526 380.42851486 410.63548499 378.75354862 410.64074105 C374.13282282 410.65137683 369.51228908 410.64316742 364.89157152 410.63199055 C359.91537138 410.62318099 354.93919726 410.63158262 349.96299744 410.63785267 C340.20751149 410.64736173 330.45209929 410.64072244 320.6966188 410.62858973 C309.34710181 410.61499807 297.99760257 410.61660507 286.64807951 410.61872306 C266.40400743 410.62191602 246.15997048 410.61022762 225.91590881 410.59065723 C206.25118438 410.57165177 186.58650114 410.56456931 166.92176819 410.57014942 C145.53219045 410.57620099 124.14263085 410.57604158 102.75305462 410.56466359 C100.47423999 410.56345624 98.19542535 410.56225025 95.91661072 410.56104565 C94.79525335 410.56044211 93.67389598 410.55983857 92.51855808 410.55921674 C84.59860757 410.55532994 76.67866378 410.55573416 68.75871277 410.55763149 C59.11308626 410.559749 49.46749592 410.55456323 39.82187963 410.54001794 C34.89615372 410.53275157 29.97048061 410.52871592 25.04475021 410.5332613 C20.54198766 410.53731544 16.03933445 410.53223626 11.53658855 410.51963522 C9.90136367 410.51668921 8.26612859 410.51716633 6.63090622 410.5212783 C4.42047099 410.52633509 2.21040881 410.51926514 0 410.50895119 C-1.23148805 410.50808441 -2.46297609 410.50721763 -3.73178196 410.50632459 C-6.5811615 410.25447559 -6.5811615 410.25447559 -8.5811615 408.25447559 C-8.83185983 405.40509605 -8.83185983 405.40509605 -8.83284378 401.67331409 C-8.8372041 400.64253178 -8.8372041 400.64253178 -8.84165251 399.59092557 C-8.84900931 397.26522841 -8.84198299 394.93979041 -8.83512878 392.61409473 C-8.83743098 390.93912368 -8.84060587 389.26415363 -8.84458327 387.58918571 C-8.85297311 382.96849946 -8.84878711 378.34789526 -8.84261084 373.72720861 C-8.83810438 368.75101144 -8.84506108 363.77482885 -8.85057068 358.79863453 C-8.85948573 349.04316516 -8.8575333 339.28772648 -8.8517454 329.53225589 C-8.84723719 321.60706915 -8.84661235 313.68189103 -8.84879303 305.75670338 C-8.8490995 304.63075514 -8.84940596 303.5048069 -8.84972171 302.34473902 C-8.85036114 300.05773155 -8.85100956 297.77072408 -8.8516669 295.48371661 C-8.85737638 274.0148713 -8.85080263 252.54604304 -8.84006616 231.07720053 C-8.8311301 212.63726024 -8.83268196 194.19734512 -8.84190369 175.75740528 C-8.85259543 154.36782987 -8.856827 132.97826942 -8.85067916 111.58869171 C-8.85004203 109.30987708 -8.84941329 107.03106245 -8.84879303 104.75224781 C-8.84848448 103.63089044 -8.84817593 102.50953307 -8.84785803 101.35419518 C-8.84612779 93.4342431 -8.84905324 85.51430048 -8.85375214 77.59434986 C-8.85934881 67.94872671 -8.85787018 58.30313612 -8.84719065 48.65751672 C-8.84191752 43.73178867 -8.83990494 38.80611501 -8.84648895 33.88038731 C-8.85241678 29.37762848 -8.84922614 24.87497483 -8.83853385 20.37222564 C-8.83628628 18.73699927 -8.83746616 17.10176414 -8.84228542 15.46654332 C-8.84830385 13.25611209 -8.84219406 11.04604859 -8.83284378 8.83563709 C-8.83251908 7.60414905 -8.83219437 6.372661 -8.83185983 5.10385513 C-8.32493654 -0.65771832 -4.92651911 0.00346751 0 0 Z M2.4188385 11.25447559 C2.4188385 139.29447559 2.4188385 267.33447559 2.4188385 399.25447559 C130.4588385 399.25447559 258.4988385 399.25447559 390.4188385 399.25447559 C390.4188385 271.21447559 390.4188385 143.17447559 390.4188385 11.25447559 C262.3788385 11.25447559 134.3388385 11.25447559 2.4188385 11.25447559 Z " fill="#000000" transform="translate(59.58116149902344,50.745524406433105)"/>
<path d="M0 0 C0.98132157 2.9439647 1.12618105 4.83534438 1.12863445 7.90262508 C1.1318589 8.91979955 1.13508335 9.93697401 1.1384055 10.98497194 C1.1360826 12.66617037 1.1360826 12.66617037 1.13371277 14.3813324 C1.13597833 15.56938715 1.13824388 16.75744189 1.14057809 17.9814983 C1.14582501 21.28487375 1.14656098 24.5881949 1.14538372 27.89157069 C1.14518004 31.45195891 1.15069529 35.01233895 1.15544128 38.57272339 C1.1637553 45.55005619 1.16649646 52.52738054 1.16705366 59.50471788 C1.16752843 65.17442702 1.16958122 70.84413337 1.17275429 76.51384163 C1.18156263 92.57907671 1.18617334 108.64430511 1.18542381 124.70954262 C1.18538386 125.57601123 1.1853439 126.44247984 1.18530273 127.33520508 C1.18526185 128.20272823 1.18522097 129.07025138 1.18517885 129.96406312 C1.18477225 144.02910993 1.19434493 158.09412999 1.2084411 172.15916907 C1.22279187 186.59180365 1.22971201 201.02442517 1.22884732 215.45706707 C1.22851492 223.56364354 1.23128092 231.67019196 1.24202538 239.77676201 C1.25111327 246.67783491 1.25331974 253.57886704 1.24651595 260.47994333 C1.24324216 264.00242676 1.24322487 267.5248319 1.2518692 271.04730797 C1.26113491 274.86213661 1.25498066 278.67684982 1.24723816 282.49168396 C1.25238172 283.61025219 1.25752529 284.72882042 1.26282471 285.88128465 C1.25592652 287.41095797 1.25592652 287.41095797 1.24888897 288.97153378 C1.24910634 289.8523776 1.24932371 290.73322143 1.24954766 291.6407575 C0.97676958 294.21962218 0.39964642 295.82511996 -1 298 C-3.25 299 -3.25 299 -6 299 C-10.74890816 296.17504322 -14.80584038 292.71163003 -18.9375 289.0625 C-20.26815996 287.89835838 -21.59889114 286.73429818 -22.9296875 285.5703125 C-23.60483398 284.97766602 -24.27998047 284.38501953 -24.97558594 283.77441406 C-28.16037757 280.98292039 -31.36124445 278.21007951 -34.5625 275.4375 C-35.18310303 274.89939697 -35.80370605 274.36129395 -36.44311523 273.80688477 C-40.61662584 270.1903499 -44.80412613 266.59055197 -49 263 C-55.72808101 257.24255226 -62.42153612 251.44578188 -69.10888672 245.64111328 C-71.61477137 243.46649972 -74.12208616 241.29353958 -76.62963867 239.12084961 C-77.87094445 238.04513768 -79.11199504 236.9691312 -80.3527832 235.89282227 C-83.59730337 233.07885858 -86.84614457 230.27010255 -90.1015625 227.46875 C-91.11186523 226.59766602 -91.11186523 226.59766602 -92.14257812 225.70898438 C-93.42375451 224.60452197 -94.70621912 223.50155135 -95.99023438 222.40039062 C-103.0407808 216.31588592 -103.0407808 216.31588592 -106 213 C-106.0625 209.8125 -106.0625 209.8125 -105 207 C-101.24961778 204.10771494 -96.57718771 204.7488969 -92.078125 204.8046875 C-90.78814606 204.80893234 -90.78814606 204.80893234 -89.47210693 204.81326294 C-86.73126179 204.8244385 -83.99074602 204.84953821 -81.25 204.875 C-79.38932764 204.8850332 -77.52865015 204.89415845 -75.66796875 204.90234375 C-71.11185268 204.92436924 -66.55598214 204.95888103 -62 205 C-62.00460896 204.12332074 -62.00921793 203.24664148 -62.01396656 202.34339619 C-62.12434992 181.01971177 -62.20710995 159.69607654 -62.25906086 138.37216663 C-62.28485121 128.06009987 -62.32001769 117.74822372 -62.37719727 107.4362793 C-62.4270067 98.44921085 -62.45928496 89.46228045 -62.47044247 80.47507781 C-62.4769654 75.71559577 -62.49231336 70.95650865 -62.52865028 66.19715309 C-62.56257094 61.71801661 -62.57306096 57.23943797 -62.56553841 52.76018524 C-62.56691472 51.11583361 -62.57687091 49.47146345 -62.59602737 47.82722282 C-62.62090594 45.58182738 -62.61492668 43.338538 -62.60127258 41.09309387 C-62.60588155 39.83669003 -62.61049051 38.5802862 -62.61523914 37.28580952 C-61.69519753 32.37214057 -58.82599985 30.27903559 -54.86621094 27.50537109 C-54.16270508 27.09883301 -53.45919922 26.69229492 -52.734375 26.2734375 C-51.93507568 25.80446045 -51.13577637 25.3354834 -50.31225586 24.85229492 C-49.04393921 24.12103394 -49.04393921 24.12103394 -47.75 23.375 C-41.05649247 19.44091926 -34.43910905 15.43199699 -27.9375 11.1875 C-27.24350098 10.73503906 -26.54950195 10.28257813 -25.83447266 9.81640625 C-24.50710964 8.94955693 -23.18026253 8.08191697 -21.85400391 7.21337891 C-19.11802296 5.42277773 -16.37471273 3.64447438 -13.625 1.875 C-12.37589844 1.06675781 -12.37589844 1.06675781 -11.1015625 0.2421875 C-6.75216329 -2.32864697 -4.55162203 -1.9789661 0 0 Z M-16.68359375 17.203125 C-17.44865234 17.69039062 -18.21371094 18.17765625 -19.00195312 18.6796875 C-19.80568359 19.19789062 -20.60941406 19.71609375 -21.4375 20.25 C-22.9776912 21.23464625 -24.51806659 22.21900445 -26.05859375 23.203125 C-27.30141869 24.07323463 -27.30141869 24.07323463 -28.5693512 24.96092224 C-31.39940943 26.64302645 -33.60020482 27.58724042 -36.66477966 28.61000061 C-42.6169282 30.92845532 -47.36753155 33.6133702 -51 39 C-54.46283356 50.64704554 -53.37984506 63.50670419 -53.09548235 75.52138686 C-53.00063619 80.39076669 -53.01499569 85.25983189 -53.01766968 90.12995911 C-53.00649244 99.33817254 -52.89969796 108.54262306 -52.75720251 117.74964076 C-52.58372504 129.26305978 -52.53395785 140.77651552 -52.484375 152.29101562 C-52.43045704 164.03216862 -52.36471814 175.77253938 -52.22158813 187.51298523 C-52.21108925 188.41280298 -52.20059036 189.31262073 -52.18977332 190.23970568 C-52.14039355 194.46097336 -52.08636158 198.68206864 -52.0231781 202.90315247 C-52.00511627 204.37437178 -51.98725571 205.84559358 -51.96963501 207.31681824 C-51.95141001 208.5908208 -51.93318501 209.86482336 -51.91440773 211.17743206 C-52 214 -52 214 -53 215 C-55.37338639 215.15971977 -57.72118272 215.2592433 -60.09765625 215.31640625 C-61.16094398 215.3475779 -61.16094398 215.3475779 -62.24571228 215.37937927 C-64.51787305 215.44494598 -66.79015264 215.5037923 -69.0625 215.5625 C-70.59962183 215.60567849 -72.1367315 215.64929255 -73.67382812 215.69335938 C-77.4490959 215.80063449 -81.2244836 215.90188137 -85 216 C-78.17420554 222.85281886 -71.09527539 229.36549437 -63.5625 235.4375 C-59.02763839 239.09506264 -54.74463817 242.94617027 -50.48291016 246.91162109 C-46.37220724 250.71398807 -42.07724416 254.24270592 -37.71484375 257.75390625 C-34.89326505 260.0883059 -32.19409288 262.51990598 -29.5 265 C-20.86707124 273.36880259 -20.86707124 273.36880259 -11 280 C-11 192.55 -11 105.1 -11 15 C-13.55927401 15 -14.53436349 15.82432435 -16.68359375 17.203125 Z " fill="#000000" transform="translate(406,108)"/>
<path d="M0 0 C2.80135832 1.51254277 5.49221881 3.18202281 8.1875 4.875 C8.96706055 5.3582373 9.74662109 5.84147461 10.54980469 6.33935547 C13.0379783 7.88540027 15.5196712 9.44140523 18 11 C18.81355957 11.50982422 19.62711914 12.01964844 20.46533203 12.54492188 C25.24284698 15.54100674 30.00873553 18.55485167 34.76660156 21.58203125 C36.93173934 22.95666179 39.10198359 24.32287535 41.2734375 25.6875 C42.5574555 26.49974106 43.84131944 27.31222575 45.125 28.125 C46.24132812 28.82882813 47.35765625 29.53265625 48.5078125 30.2578125 C51 32 51 32 52 34 C52.0946051 36.24247338 52.12189761 38.48786284 52.12025452 40.73233032 C52.12110894 41.43232663 52.12196337 42.13232293 52.12284368 42.85353124 C52.12449717 45.21048527 52.11897926 47.56736888 52.11352539 49.92431641 C52.11324346 51.60931903 52.11340136 53.29432178 52.1139679 54.97932434 C52.11425566 59.56378113 52.10836233 64.14821194 52.10139394 68.73266268 C52.0951569 73.51996512 52.09455632 78.3072681 52.09336853 83.09457397 C52.09025625 92.16454236 52.08204425 101.23449874 52.07201904 110.30446184 C52.0608547 120.62837304 52.05534664 130.9522848 52.05032361 141.27620053 C52.03986156 162.51747373 52.02226411 183.75873611 52 205 C53.74071777 204.98428955 53.74071777 204.98428955 55.51660156 204.96826172 C59.82532665 204.93204017 64.13403829 204.90909164 68.44287109 204.89013672 C70.30715194 204.88008407 72.17141703 204.86643995 74.03564453 204.84912109 C76.71651091 204.82484047 79.39716866 204.81350953 82.078125 204.8046875 C82.91055725 204.79436493 83.7429895 204.78404236 84.60064697 204.77340698 C92.12690266 204.77195033 92.12690266 204.77195033 95 207 C95.984375 209.85546875 95.984375 209.85546875 96 213 C94.515625 215.23828125 94.515625 215.23828125 92.25 217.3125 C91.41726562 218.08335937 90.58453125 218.85421875 89.7265625 219.6484375 C86.14854337 222.73435085 82.50825763 225.7301558 78.8203125 228.68359375 C75.95614967 231.03601558 73.22514219 233.4883661 70.5 236 C66.05272888 240.09351091 61.45282537 243.92442499 56.75 247.71875 C53.91900422 250.06718968 51.20616402 252.50909902 48.5 255 C44.05272888 259.09351091 39.45282537 262.92442499 34.75 266.71875 C31.91900422 269.06718968 29.20616402 271.50909902 26.5 274 C22.0378925 278.10666224 17.43087168 281.96210731 12.703125 285.7578125 C9.11526129 288.73387286 5.74424795 291.92022311 2.38671875 295.15234375 C-0.33711165 297.26097186 -2.66704095 298.17817448 -6 299 C-8.3125 298.3125 -8.3125 298.3125 -10 297 C-10.98299042 294.05102874 -11.12618624 292.15219714 -11.12863445 289.07896423 C-11.1318589 288.05768968 -11.13508335 287.03641512 -11.1384055 285.98419285 C-11.1368569 284.85882083 -11.1353083 283.73344881 -11.13371277 282.57397461 C-11.13597833 281.38113074 -11.13824388 280.18828688 -11.14057809 278.95929623 C-11.14582505 275.64258866 -11.14656098 272.32593517 -11.14538372 269.00922728 C-11.14518004 265.43454313 -11.15069523 261.85986714 -11.15544128 258.28518677 C-11.16375513 251.2801155 -11.16649644 244.27505264 -11.16705366 237.26997685 C-11.1675284 231.5783293 -11.16958104 225.88668452 -11.17275429 220.19503784 C-11.18156226 204.06939957 -11.18617335 187.94376797 -11.18542381 171.81812727 C-11.18538386 170.94840895 -11.1853439 170.07869062 -11.18530273 169.18261719 C-11.18526185 168.31184111 -11.18522097 167.44106503 -11.18517885 166.5439018 C-11.18477217 152.42321399 -11.19434697 138.30255282 -11.2084411 124.18187273 C-11.22278816 109.69387237 -11.22971223 95.20588503 -11.22884732 80.71787739 C-11.22851481 72.57947477 -11.23128561 64.44110009 -11.24202538 56.30270386 C-11.25110836 49.37525199 -11.25332378 42.44784073 -11.24651595 35.5203855 C-11.24323977 31.98384922 -11.24323339 28.44739094 -11.2518692 24.91086197 C-11.26112169 21.0825465 -11.254987 17.25434633 -11.24723816 13.42602539 C-11.25238172 12.30065337 -11.25752529 11.17528135 -11.26282471 10.01580715 C-11.25822592 8.99453259 -11.25362712 7.97325804 -11.24888897 6.92103577 C-11.24910634 6.03677445 -11.24932371 5.15251314 -11.24954766 4.24145603 C-11 2 -11 2 -9 -1 C-5.07941412 -2.30686196 -3.80571649 -1.5652183 0 0 Z M1 15 C1 102.45 1 189.9 1 280 C5.78881051 276.40839211 10.02818512 273.20529452 14.3125 269.1875 C17.95203013 265.8290922 21.64425766 262.60769533 25.5 259.5 C29.28460334 256.44651321 32.92207537 253.29331699 36.5 250 C40.94727112 245.90648909 45.54717463 242.07557501 50.25 238.28125 C54.0234996 235.15096056 57.60339463 231.82674002 61.20703125 228.50390625 C65.01535446 225.08973118 68.97812124 221.89992869 72.98046875 218.71484375 C73.64691406 218.14894531 74.31335938 217.58304688 75 217 C75 216.67 75 216.34 75 216 C73.55379272 215.96241577 73.55379272 215.96241577 72.07836914 215.92407227 C68.51312158 215.83014694 64.94807567 215.72989061 61.38305664 215.62768555 C59.83785711 215.58428015 58.29260786 215.54260929 56.74731445 215.50268555 C54.53060904 215.44511801 52.3141552 215.38138576 50.09765625 215.31640625 C49.4028566 215.29969376 48.70805695 215.28298126 47.99220276 215.26576233 C43.11387171 215.11387171 43.11387171 215.11387171 42 214 C41.93247617 211.77327332 41.93776961 209.54434057 41.96963501 207.31681824 C41.97810278 206.60980894 41.98657056 205.90279964 41.99529493 205.17436582 C42.01441745 203.61674809 42.03581148 202.05915708 42.0591259 200.50159645 C42.1235945 196.17218805 42.17107137 191.84257485 42.22158813 187.51298523 C42.2328694 186.58762321 42.24415066 185.66226119 42.25577378 184.70885789 C42.3967849 172.87339605 42.44671209 161.03737906 42.49767995 149.2012409 C42.54755757 137.67246816 42.6272538 126.14597916 42.80566406 114.6184082 C42.94712051 105.46827918 43.02106861 96.32042046 43.01604402 87.16915876 C43.01582491 82.32634474 43.04891177 77.48905256 43.16350174 72.64748192 C44.52087638 53.70664564 44.52087638 53.70664564 39.13259315 36.23080063 C34.75719872 32.03667547 29.93287875 29.70068425 24.22936058 27.7972126 C21.19007077 26.71037176 18.69191733 25.04673157 16.05859375 23.203125 C15.27162109 22.70039063 14.48464844 22.19765625 13.67382812 21.6796875 C12.11452677 20.6828241 10.55739852 19.68255686 9.00195312 18.6796875 C8.23689453 18.19242188 7.47183594 17.70515625 6.68359375 17.203125 C6.01900146 16.77676758 5.35440918 16.35041016 4.66967773 15.91113281 C3.02441435 14.84032867 3.02441435 14.84032867 1 15 Z " fill="#000000" transform="translate(116,108)"/>
<path d="M0 0 C0.67851517 -0.00540298 1.35703033 -0.01080597 2.05610657 -0.01637268 C4.29297864 -0.02885346 6.52856202 -0.01237696 8.76538086 0.00561523 C10.32189501 0.00546025 11.87840956 0.00397131 13.43492126 0.00120544 C16.69409279 -0.00017818 19.95282404 0.01237426 23.21191406 0.03515625 C27.39082774 0.06356484 31.56901125 0.06079691 35.74797916 0.04806614 C38.96075181 0.0411143 42.17335543 0.04889208 45.38610649 0.06132317 C46.92709137 0.06584086 48.46809436 0.06617169 50.00908089 0.06225777 C52.16138096 0.05934967 54.31267125 0.07583044 56.46484375 0.09765625 C57.68965958 0.10305923 58.9144754 0.10846222 60.17640686 0.11402893 C63.16772461 0.50170898 63.16772461 0.50170898 65.02415466 1.90196228 C67.86111754 5.87060629 67.35370964 9.93627677 67.39233398 14.63867188 C67.4094191 16.06118507 67.4094191 16.06118507 67.42684937 17.51243591 C67.53801413 27.48899599 67.58503985 37.46630988 67.62768555 47.44335938 C67.64985592 52.16411241 67.69146333 56.88406186 67.75073242 61.60449219 C67.82234021 67.31926001 67.85859638 73.03327879 67.87080383 78.74847221 C67.8811253 80.91435284 67.90335747 83.08021454 67.93840027 85.24583626 C68.14129285 98.48158945 67.03795922 108.89409568 61.02695465 120.78687477 C59.8647324 123.10641481 58.86533142 125.48548915 57.86352539 127.87792969 C57.19870292 129.39533076 56.53189325 130.91186284 55.86303711 132.42749023 C55.494758 133.2660405 55.12647888 134.10459076 54.74703979 134.96855164 C53.98015569 136.71365476 53.21234857 138.45835257 52.44360352 140.20263672 C51.29866985 142.80071805 50.15678 145.40012008 49.01538086 147.99975586 C47.13011231 152.28979434 45.2366509 156.57613936 43.33776855 160.86016846 C42.53150243 162.68042885 41.72682743 164.50139458 40.92346191 166.32293701 C39.69447313 169.1072922 38.45921817 171.88878764 37.22241211 174.66967773 C36.84521027 175.52684891 36.46800842 176.38402008 36.07937622 177.26716614 C35.72680756 178.05636948 35.37423889 178.84557281 35.01098633 179.65869141 C34.70248749 180.35443771 34.39398865 181.05018402 34.07614136 181.76701355 C33.16772461 183.50170898 33.16772461 183.50170898 31.16772461 185.50170898 C28.35522461 186.12670898 28.35522461 186.12670898 25.16772461 185.50170898 C21.12468814 180.69243774 18.65886073 174.53181854 16.19897461 168.80639648 C15.83735229 167.97882843 15.47572998 167.15126038 15.10314941 166.2986145 C13.95207931 163.66051413 12.80974938 161.01873562 11.66772461 158.37670898 C10.56121278 155.83564862 9.45294042 153.29539295 8.34132385 150.75656128 C7.5634576 148.96048146 6.79909243 147.15850778 6.04673767 145.35159302 C3.86079778 140.14769748 1.48880523 135.21123619 -1.28710938 130.29418945 C-13.79766048 106.98728126 -12.51201076 83.27241981 -11.95806885 57.39160156 C-11.87272496 52.65217671 -11.85270745 47.91340272 -11.83435917 43.17331505 C-11.8090099 37.49860513 -11.74565395 31.82450715 -11.67993164 26.15014648 C-11.67089373 25.07682446 -11.66185581 24.00350243 -11.65254402 22.89765549 C-11.62041961 19.87861646 -11.56107613 16.8614255 -11.49267578 13.84301758 C-11.4866333 12.9507547 -11.48059082 12.05849182 -11.47436523 11.13919067 C-11.36401883 7.4116191 -11.23784713 5.14300166 -9.21801758 1.94923401 C-6.00284543 -0.00153928 -3.75525019 0.00050914 0 0 Z M1.16772461 11.50170898 C0.64058785 27.20720745 0.64058785 27.20720745 0.28881836 42.91381836 C0.18286657 49.36124775 0.06039155 55.80391452 -0.19018555 62.24755859 C-1.33679807 92.55523406 2.62879264 115.07416717 16.8381958 141.97122192 C20.67337087 149.29607202 23.89267301 156.91454016 27.16772461 164.50170898 C27.82772461 164.50170898 28.48772461 164.50170898 29.16772461 164.50170898 C31.42628334 159.47547264 33.68239411 154.44814625 35.93652344 149.41992188 C36.69892007 147.7200975 37.46191299 146.02054041 38.22558594 144.32128906 C38.59127686 143.50748779 38.95696777 142.69368652 39.33374023 141.85522461 C39.68139435 141.0817292 40.02904846 140.3082338 40.38723755 139.51129913 C41.1397652 137.8276935 41.88720642 136.14179824 42.62782288 134.45291901 C44.51581442 130.14985359 46.45120462 125.8932984 48.55456543 121.69091797 C54.97770767 108.47707581 56.40098337 97.44271983 56.04663086 82.88842773 C56.02978414 80.810967 56.01700178 78.7334698 56.00804138 76.65596008 C55.97415302 71.26455834 55.88617622 65.87544117 55.78570557 60.48492432 C55.67613777 53.97630768 55.63589972 47.46691447 55.58362579 40.95763397 C55.49720763 31.13741767 55.3244652 21.32218427 55.16772461 11.50170898 C37.34772461 11.50170898 19.52772461 11.50170898 1.16772461 11.50170898 Z " fill="#000000" transform="translate(227.832275390625,194.498291015625)"/>
</svg>
